<?xml version="1.0" encoding="utf-8"?>
<svg viewBox="0 0 500 270" xmlns="http://www.w3.org/2000/svg" xmlns:bx="https://boxy-svg.com">
  <rect x="-0.987" y="-1.996" width="505.843" height="270.254" style=""/>
  <line style="stroke-width: 7px; stroke: rgb(255, 255, 255);" x1="58.074" y1="141.194" x2="94.816" y2="196.573" transform="matrix(-1, 0, 0, -1, 152.889999, 337.766998)"/>
  <g transform="matrix(0.901824, 0, 0, 0.87698, 325.73761, 31.691902)" style="">
    <line style="stroke-width: 7px; stroke: rgb(255, 255, 255);" x1="111.724" y1="110.187" x2="139.332" y2="157.597" transform="matrix(-1, 0, 0, -1, 251.056, 267.783997)"/>
    <line style="stroke-width: 7px; stroke: rgb(255, 255, 255);" x1="70.824" y1="161.492" x2="98.432" y2="114.082"/>
    <circle style="fill: rgb(93, 98, 234);" cx="179.298" cy="89.886" r="19.168" transform="matrix(0.907245, 0, 0, 0.913313, -57.992783, 17.071688)"/>
    <circle style="fill: rgb(93, 98, 234);" cx="147.973" cy="145.376" r="19.168" transform="matrix(0.907245, 0, 0, 0.913313, -65.134087, 32.003494)"/>
    <circle style="fill: rgb(93, 98, 234);" cx="480.018" cy="83.621" r="19.168" transform="matrix(0.907245, 0, 0, 0.913313, -289.760376, 88.484673)"/>
    <path d="M 109.11 108.356 L 102.64 108.356 L 102.64 106.796 L 104.66 106.446 L 104.66 104.186 L 96.55 104.186 L 96.55 102.816 L 104.51 90.296 L 107.09 90.296 L 107.09 102.276 L 109.59 102.276 L 109.59 104.186 L 107.09 104.186 L 107.09 106.446 L 109.11 106.796 L 109.11 108.356 Z M 104.34 94.416 L 99.16 102.276 L 104.66 102.276 L 104.66 93.786 L 104.59 93.756 L 104.34 94.416 Z" transform="matrix(1, 0, 0, 1, 0, 0)" style="fill: rgb(255, 255, 255); white-space: pre;"/>
    <path d="M 143.984 174.055 C 142.971 174.055 142.061 173.868 141.254 173.495 C 140.447 173.122 139.817 172.572 139.364 171.845 C 138.911 171.112 138.694 170.202 138.714 169.115 L 138.744 169.045 L 140.954 169.045 C 140.954 170.018 141.237 170.778 141.804 171.325 C 142.364 171.872 143.091 172.145 143.984 172.145 C 145.017 172.145 145.821 171.782 146.394 171.055 C 146.967 170.328 147.254 169.332 147.254 168.065 C 147.254 166.898 146.964 165.945 146.384 165.205 C 145.811 164.465 145.017 164.095 144.004 164.095 C 143.044 164.095 142.347 164.242 141.914 164.535 C 141.481 164.822 141.164 165.262 140.964 165.855 L 138.924 165.645 L 139.974 155.735 L 149.504 155.735 L 149.504 159.305 L 147.674 159.305 L 147.434 157.905 L 142.044 157.905 L 141.454 162.985 C 141.707 162.792 141.977 162.622 142.264 162.475 C 142.551 162.335 142.867 162.218 143.214 162.125 C 143.554 162.032 143.927 161.982 144.334 161.975 C 145.441 161.968 146.397 162.212 147.204 162.705 C 148.004 163.192 148.617 163.892 149.044 164.805 C 149.477 165.718 149.694 166.798 149.694 168.045 C 149.694 169.252 149.477 170.305 149.044 171.205 C 148.611 172.105 147.971 172.805 147.124 173.305 C 146.271 173.805 145.224 174.055 143.984 174.055 Z" transform="matrix(1, 0, 0, 1, 0, 0)" style="fill: rgb(255, 255, 255); white-space: pre;"/>
    <path d="M 68.755 172.322 C 67.655 172.322 66.675 172.122 65.815 171.722 C 64.955 171.322 64.285 170.752 63.805 170.012 C 63.318 169.272 63.088 168.392 63.115 167.372 L 63.155 167.302 L 65.485 167.302 C 65.485 167.935 65.618 168.485 65.885 168.952 C 66.145 169.412 66.518 169.772 67.005 170.032 C 67.498 170.285 68.082 170.412 68.755 170.412 C 69.788 170.412 70.598 170.132 71.185 169.572 C 71.772 169.005 72.065 168.172 72.065 167.072 C 72.065 165.959 71.805 165.139 71.285 164.612 C 70.765 164.079 69.945 163.812 68.825 163.812 L 66.685 163.812 L 66.685 161.902 L 68.825 161.902 C 69.538 161.902 70.115 161.782 70.555 161.542 C 70.995 161.295 71.312 160.942 71.505 160.482 C 71.698 160.022 71.795 159.472 71.795 158.832 C 71.795 157.799 71.538 157.012 71.025 156.472 C 70.512 155.932 69.755 155.662 68.755 155.662 C 68.122 155.662 67.568 155.789 67.095 156.042 C 66.622 156.295 66.255 156.652 65.995 157.112 C 65.735 157.572 65.605 158.112 65.605 158.732 L 63.265 158.732 L 63.235 158.652 C 63.215 157.745 63.435 156.919 63.895 156.172 C 64.348 155.432 64.995 154.842 65.835 154.402 C 66.675 153.962 67.648 153.742 68.755 153.742 C 70.428 153.742 71.762 154.185 72.755 155.072 C 73.748 155.965 74.245 157.235 74.245 158.882 C 74.245 159.622 74.018 160.362 73.565 161.102 C 73.112 161.842 72.435 162.409 71.535 162.802 C 72.622 163.155 73.388 163.712 73.835 164.472 C 74.288 165.232 74.515 166.082 74.515 167.022 C 74.515 168.122 74.268 169.069 73.775 169.862 C 73.282 170.649 72.602 171.255 71.735 171.682 C 70.868 172.109 69.875 172.322 68.755 172.322 Z" transform="matrix(1, 0, 0, 1, 0, 0)" style="fill: rgb(255, 255, 255); white-space: pre;"/>
    <path d="M 64.679 141.502 C 63.492 141.502 62.552 141.092 61.859 140.272 C 61.166 139.445 60.819 138.262 60.819 136.722 L 60.819 133.862 C 60.819 132.322 61.162 131.139 61.849 130.312 C 62.536 129.485 63.472 129.072 64.659 129.072 C 65.846 129.072 66.786 129.485 67.479 130.312 C 68.172 131.139 68.519 132.322 68.519 133.862 L 68.519 136.722 C 68.519 138.269 68.176 139.452 67.489 140.272 C 66.802 141.092 65.866 141.502 64.679 141.502 Z M 64.679 140.232 C 65.399 140.232 65.946 139.965 66.319 139.432 C 66.692 138.899 66.879 138.109 66.879 137.062 L 66.879 133.512 C 66.879 132.465 66.692 131.679 66.319 131.152 C 65.939 130.625 65.386 130.362 64.659 130.362 C 63.946 130.362 63.399 130.625 63.019 131.152 C 62.646 131.679 62.459 132.465 62.459 133.512 L 62.459 137.062 C 62.459 138.102 62.649 138.889 63.029 139.422 C 63.416 139.962 63.966 140.232 64.679 140.232 Z" transform="matrix(1, 0, 0, 1, 0, 0)" style="fill: rgb(255, 255, 255); white-space: pre;"/>
    <path d="M 104.503 73.501 C 103.316 73.501 102.376 73.091 101.683 72.271 C 100.99 71.444 100.643 70.261 100.643 68.721 L 100.643 65.861 C 100.643 64.321 100.986 63.138 101.673 62.311 C 102.36 61.484 103.296 61.071 104.483 61.071 C 105.67 61.071 106.61 61.484 107.303 62.311 C 107.996 63.138 108.343 64.321 108.343 65.861 L 108.343 68.721 C 108.343 70.268 108 71.451 107.313 72.271 C 106.626 73.091 105.69 73.501 104.503 73.501 Z M 104.503 72.231 C 105.223 72.231 105.77 71.964 106.143 71.431 C 106.516 70.898 106.703 70.108 106.703 69.061 L 106.703 65.511 C 106.703 64.464 106.516 63.678 106.143 63.151 C 105.763 62.624 105.21 62.361 104.483 62.361 C 103.77 62.361 103.223 62.624 102.843 63.151 C 102.47 63.678 102.283 64.464 102.283 65.511 L 102.283 69.061 C 102.283 70.101 102.473 70.888 102.853 71.421 C 103.24 71.961 103.79 72.231 104.503 72.231 Z" transform="matrix(1, 0, 0, 1, 0, 0)" style="fill: rgb(255, 255, 255); white-space: pre;"/>
    <path d="M 147.333 143.005 C 146.146 143.005 145.206 142.595 144.513 141.775 C 143.82 140.948 143.473 139.765 143.473 138.225 L 143.473 135.365 C 143.473 133.825 143.816 132.642 144.503 131.815 C 145.19 130.988 146.126 130.575 147.313 130.575 C 148.5 130.575 149.44 130.988 150.133 131.815 C 150.826 132.642 151.173 133.825 151.173 135.365 L 151.173 138.225 C 151.173 139.772 150.83 140.955 150.143 141.775 C 149.456 142.595 148.52 143.005 147.333 143.005 Z M 147.333 141.735 C 148.053 141.735 148.6 141.468 148.973 140.935 C 149.346 140.402 149.533 139.612 149.533 138.565 L 149.533 135.015 C 149.533 133.968 149.346 133.182 148.973 132.655 C 148.593 132.128 148.04 131.865 147.313 131.865 C 146.6 131.865 146.053 132.128 145.673 132.655 C 145.3 133.182 145.113 133.968 145.113 135.015 L 145.113 138.565 C 145.113 139.605 145.303 140.392 145.683 140.925 C 146.07 141.465 146.62 141.735 147.333 141.735 Z" transform="matrix(1, 0, 0, 1, 0, 0)" style="fill: rgb(255, 255, 255); white-space: pre;"/>
  </g>
  <path d="M 104.78 36.831 C 103.94 36.831 103.19 36.664 102.53 36.331 C 101.87 36.004 101.35 35.534 100.97 34.921 C 100.59 34.308 100.4 33.571 100.4 32.711 L 100.4 25.721 L 99.03 25.491 L 99.03 24.421 L 103.42 24.421 L 103.42 25.491 L 102.05 25.721 L 102.05 32.711 C 102.05 33.324 102.167 33.838 102.4 34.251 C 102.633 34.664 102.957 34.974 103.37 35.181 C 103.783 35.394 104.263 35.501 104.81 35.501 C 105.357 35.501 105.84 35.398 106.26 35.191 C 106.687 34.984 107.017 34.674 107.25 34.261 C 107.49 33.841 107.61 33.324 107.61 32.711 L 107.61 25.721 L 106.24 25.491 L 106.24 24.421 L 110.63 24.421 L 110.63 25.491 L 109.27 25.721 L 109.27 32.711 C 109.27 33.598 109.083 34.348 108.71 34.961 C 108.337 35.574 107.813 36.038 107.14 36.351 C 106.467 36.671 105.68 36.831 104.78 36.831 ZM 116.233 36.651 L 111.843 36.651 L 111.843 35.591 L 113.213 35.361 L 113.213 28.861 L 111.843 28.631 L 111.843 27.561 L 114.693 27.561 L 114.813 28.921 C 115.113 28.434 115.489 28.058 115.943 27.791 C 116.403 27.524 116.923 27.391 117.503 27.391 C 118.483 27.391 119.243 27.681 119.783 28.261 C 120.316 28.834 120.583 29.718 120.583 30.911 L 120.583 35.361 L 121.953 35.591 L 121.953 36.651 L 117.563 36.651 L 117.563 35.591 L 118.933 35.361 L 118.933 30.951 C 118.933 30.151 118.776 29.581 118.463 29.241 C 118.143 28.908 117.659 28.741 117.013 28.741 C 116.533 28.741 116.109 28.854 115.743 29.081 C 115.376 29.314 115.083 29.628 114.863 30.021 L 114.863 35.361 L 116.233 35.591 L 116.233 36.651 ZM 127.952 36.831 C 127.358 36.831 126.845 36.718 126.412 36.491 C 125.972 36.264 125.605 35.928 125.312 35.481 L 125.162 36.651 L 123.732 36.651 L 123.732 24.851 L 122.372 24.621 L 122.372 23.551 L 125.392 23.551 L 125.392 28.641 C 125.678 28.234 126.032 27.924 126.452 27.711 C 126.878 27.498 127.372 27.391 127.932 27.391 C 128.685 27.391 129.325 27.594 129.852 28.001 C 130.385 28.408 130.792 28.978 131.072 29.711 C 131.352 30.444 131.492 31.298 131.492 32.271 L 131.492 32.451 C 131.492 33.324 131.352 34.088 131.072 34.741 C 130.792 35.401 130.385 35.914 129.852 36.281 C 129.325 36.648 128.692 36.831 127.952 36.831 Z M 127.532 35.481 C 128.312 35.481 128.888 35.204 129.262 34.651 C 129.642 34.098 129.832 33.364 129.832 32.451 L 129.832 32.271 C 129.832 31.571 129.748 30.958 129.582 30.431 C 129.415 29.904 129.162 29.491 128.822 29.191 C 128.475 28.891 128.038 28.741 127.512 28.741 C 127.005 28.741 126.575 28.864 126.222 29.111 C 125.875 29.358 125.598 29.688 125.392 30.101 L 125.392 34.111 C 125.598 34.531 125.878 34.864 126.232 35.111 C 126.592 35.358 127.025 35.481 127.532 35.481 ZM 135.678 36.831 C 134.731 36.831 134.011 36.598 133.518 36.131 C 133.025 35.671 132.778 35.021 132.778 34.181 C 132.778 33.608 132.938 33.104 133.258 32.671 C 133.571 32.244 134.028 31.911 134.628 31.671 C 135.228 31.438 135.945 31.321 136.778 31.321 L 138.398 31.321 L 138.398 30.431 C 138.398 29.878 138.231 29.451 137.898 29.151 C 137.565 28.851 137.098 28.701 136.498 28.701 C 136.111 28.701 135.778 28.748 135.498 28.841 C 135.218 28.928 134.965 29.054 134.738 29.221 L 134.558 30.491 L 133.288 30.491 L 133.288 28.401 C 133.695 28.074 134.171 27.824 134.718 27.651 C 135.258 27.478 135.858 27.391 136.518 27.391 C 137.625 27.391 138.491 27.654 139.118 28.181 C 139.745 28.708 140.058 29.461 140.058 30.441 L 140.058 34.821 C 140.058 34.941 140.058 35.054 140.058 35.161 C 140.058 35.274 140.065 35.388 140.078 35.501 L 140.958 35.591 L 140.958 36.651 L 138.588 36.651 C 138.535 36.404 138.495 36.184 138.468 35.991 C 138.441 35.791 138.421 35.594 138.408 35.401 C 138.088 35.808 137.688 36.148 137.208 36.421 C 136.735 36.694 136.225 36.831 135.678 36.831 Z M 135.918 35.441 C 136.471 35.441 136.975 35.311 137.428 35.051 C 137.881 34.784 138.205 34.468 138.398 34.101 L 138.398 32.451 L 136.718 32.451 C 135.958 32.451 135.388 32.634 135.008 33.001 C 134.628 33.361 134.438 33.764 134.438 34.211 C 134.438 34.611 134.561 34.918 134.808 35.131 C 135.055 35.338 135.425 35.441 135.918 35.441 ZM 146.555 36.651 L 142.165 36.651 L 142.165 35.591 L 143.535 35.361 L 143.535 24.851 L 142.165 24.621 L 142.165 23.551 L 145.185 23.551 L 145.185 35.361 L 146.555 35.591 L 146.555 36.651 ZM 150.669 36.831 C 149.722 36.831 149.002 36.598 148.509 36.131 C 148.016 35.671 147.769 35.021 147.769 34.181 C 147.769 33.608 147.929 33.104 148.249 32.671 C 148.562 32.244 149.019 31.911 149.619 31.671 C 150.219 31.438 150.936 31.321 151.769 31.321 L 153.389 31.321 L 153.389 30.431 C 153.389 29.878 153.222 29.451 152.889 29.151 C 152.556 28.851 152.089 28.701 151.489 28.701 C 151.102 28.701 150.769 28.748 150.489 28.841 C 150.209 28.928 149.956 29.054 149.729 29.221 L 149.549 30.491 L 148.279 30.491 L 148.279 28.401 C 148.686 28.074 149.162 27.824 149.709 27.651 C 150.249 27.478 150.849 27.391 151.509 27.391 C 152.616 27.391 153.482 27.654 154.109 28.181 C 154.736 28.708 155.049 29.461 155.049 30.441 L 155.049 34.821 C 155.049 34.941 155.049 35.054 155.049 35.161 C 155.049 35.274 155.056 35.388 155.069 35.501 L 155.949 35.591 L 155.949 36.651 L 153.579 36.651 C 153.526 36.404 153.486 36.184 153.459 35.991 C 153.432 35.791 153.412 35.594 153.399 35.401 C 153.079 35.808 152.679 36.148 152.199 36.421 C 151.726 36.694 151.216 36.831 150.669 36.831 Z M 150.909 35.441 C 151.462 35.441 151.966 35.311 152.419 35.051 C 152.872 34.784 153.196 34.468 153.389 34.101 L 153.389 32.451 L 151.709 32.451 C 150.949 32.451 150.379 32.634 149.999 33.001 C 149.619 33.361 149.429 33.764 149.429 34.211 C 149.429 34.611 149.552 34.918 149.799 35.131 C 150.046 35.338 150.416 35.441 150.909 35.441 ZM 161.626 36.651 L 157.236 36.651 L 157.236 35.591 L 158.606 35.361 L 158.606 28.861 L 157.236 28.631 L 157.236 27.561 L 160.086 27.561 L 160.206 28.921 C 160.506 28.434 160.883 28.058 161.336 27.791 C 161.796 27.524 162.316 27.391 162.896 27.391 C 163.876 27.391 164.636 27.681 165.176 28.261 C 165.709 28.834 165.976 29.718 165.976 30.911 L 165.976 35.361 L 167.346 35.591 L 167.346 36.651 L 162.956 36.651 L 162.956 35.591 L 164.326 35.361 L 164.326 30.951 C 164.326 30.151 164.169 29.581 163.856 29.241 C 163.536 28.908 163.053 28.741 162.406 28.741 C 161.926 28.741 161.503 28.854 161.136 29.081 C 160.769 29.314 160.476 29.628 160.256 30.021 L 160.256 35.361 L 161.626 35.591 L 161.626 36.651 ZM 172.541 36.831 C 171.715 36.831 170.998 36.638 170.391 36.251 C 169.778 35.871 169.305 35.338 168.971 34.651 C 168.638 33.971 168.471 33.181 168.471 32.281 L 168.471 31.931 C 168.471 31.071 168.631 30.298 168.951 29.611 C 169.278 28.931 169.745 28.391 170.351 27.991 C 170.965 27.591 171.695 27.391 172.541 27.391 C 173.275 27.391 173.918 27.514 174.471 27.761 C 175.018 28.001 175.481 28.331 175.861 28.751 L 175.901 30.931 L 174.601 30.931 L 174.321 29.341 C 174.128 29.148 173.888 28.991 173.601 28.871 C 173.321 28.758 172.988 28.701 172.601 28.701 C 172.108 28.701 171.675 28.844 171.301 29.131 C 170.928 29.424 170.638 29.814 170.431 30.301 C 170.225 30.788 170.121 31.331 170.121 31.931 L 170.121 32.281 C 170.121 32.941 170.218 33.514 170.411 34.001 C 170.605 34.494 170.881 34.871 171.241 35.131 C 171.601 35.398 172.031 35.531 172.531 35.531 C 173.091 35.531 173.555 35.378 173.921 35.071 C 174.295 34.764 174.521 34.341 174.601 33.801 L 176.091 33.801 L 176.111 33.851 C 176.085 34.371 175.931 34.858 175.651 35.311 C 175.371 35.764 174.971 36.131 174.451 36.411 C 173.931 36.691 173.295 36.831 172.541 36.831 ZM 181.742 36.831 C 180.902 36.831 180.172 36.638 179.552 36.251 C 178.932 35.871 178.452 35.338 178.112 34.651 C 177.772 33.971 177.602 33.181 177.602 32.281 L 177.602 31.911 C 177.602 31.051 177.779 30.281 178.132 29.601 C 178.492 28.921 178.966 28.384 179.552 27.991 C 180.146 27.591 180.792 27.391 181.492 27.391 C 182.312 27.391 182.996 27.561 183.542 27.901 C 184.096 28.234 184.512 28.704 184.792 29.311 C 185.072 29.924 185.212 30.641 185.212 31.461 L 185.212 32.491 L 179.312 32.491 L 179.292 32.531 C 179.306 33.118 179.409 33.634 179.602 34.081 C 179.796 34.534 180.072 34.891 180.432 35.151 C 180.799 35.404 181.236 35.531 181.742 35.531 C 182.302 35.531 182.796 35.451 183.222 35.291 C 183.642 35.131 184.006 34.911 184.312 34.631 L 184.962 35.711 C 184.636 36.024 184.206 36.288 183.672 36.501 C 183.139 36.721 182.496 36.831 181.742 36.831 Z M 179.352 31.161 L 179.372 31.201 L 183.562 31.201 L 183.562 30.981 C 183.562 30.548 183.486 30.158 183.332 29.811 C 183.172 29.464 182.942 29.191 182.642 28.991 C 182.336 28.798 181.952 28.701 181.492 28.701 C 181.126 28.701 180.789 28.808 180.482 29.021 C 180.182 29.234 179.932 29.528 179.732 29.901 C 179.539 30.268 179.412 30.688 179.352 31.161 ZM 190.402 36.831 C 189.662 36.831 189.029 36.648 188.502 36.281 C 187.969 35.914 187.562 35.401 187.282 34.741 C 187.009 34.088 186.872 33.324 186.872 32.451 L 186.872 32.271 C 186.872 31.298 187.009 30.444 187.282 29.711 C 187.562 28.978 187.969 28.408 188.502 28.001 C 189.035 27.594 189.675 27.391 190.422 27.391 C 190.955 27.391 191.429 27.491 191.842 27.691 C 192.255 27.891 192.609 28.178 192.902 28.551 L 192.902 24.851 L 191.532 24.621 L 191.532 23.551 L 192.902 23.551 L 194.552 23.551 L 194.552 35.361 L 195.922 35.591 L 195.922 36.651 L 193.112 36.651 L 192.982 35.571 C 192.682 35.984 192.319 36.298 191.892 36.511 C 191.465 36.724 190.969 36.831 190.402 36.831 Z M 190.822 35.481 C 191.315 35.481 191.729 35.371 192.062 35.151 C 192.402 34.924 192.682 34.608 192.902 34.201 L 192.902 29.981 C 192.689 29.601 192.409 29.298 192.062 29.071 C 191.722 28.851 191.315 28.741 190.842 28.741 C 190.315 28.741 189.882 28.891 189.542 29.191 C 189.195 29.491 188.939 29.904 188.772 30.431 C 188.605 30.958 188.522 31.571 188.522 32.271 L 188.522 32.451 C 188.522 33.364 188.709 34.098 189.082 34.651 C 189.455 35.204 190.035 35.481 190.822 35.481 ZM 352.539 36.651 L 346.739 36.651 L 346.739 35.591 L 348.109 35.361 L 348.109 25.721 L 346.739 25.491 L 346.739 24.421 L 348.109 24.421 L 352.009 24.421 C 353.289 24.421 354.289 24.698 355.009 25.251 C 355.729 25.804 356.089 26.631 356.089 27.731 C 356.089 28.278 355.916 28.764 355.569 29.191 C 355.223 29.618 354.769 29.934 354.209 30.141 C 354.703 30.241 355.123 30.438 355.469 30.731 C 355.823 31.024 356.096 31.384 356.289 31.811 C 356.483 32.231 356.579 32.694 356.579 33.201 C 356.579 34.321 356.216 35.174 355.489 35.761 C 354.763 36.354 353.779 36.651 352.539 36.651 Z M 349.759 30.911 L 349.759 35.361 L 352.539 35.361 C 353.293 35.361 353.876 35.174 354.289 34.801 C 354.709 34.428 354.919 33.901 354.919 33.221 C 354.919 32.734 354.843 32.321 354.689 31.981 C 354.536 31.641 354.299 31.378 353.979 31.191 C 353.666 31.004 353.269 30.911 352.789 30.911 L 349.759 30.911 Z M 349.759 25.721 L 349.759 29.621 L 352.439 29.621 C 353.033 29.621 353.513 29.448 353.879 29.101 C 354.246 28.761 354.429 28.294 354.429 27.701 C 354.429 27.041 354.223 26.544 353.809 26.211 C 353.396 25.884 352.796 25.721 352.009 25.721 L 349.759 25.721 ZM 360.722 36.831 C 359.775 36.831 359.055 36.598 358.562 36.131 C 358.069 35.671 357.822 35.021 357.822 34.181 C 357.822 33.608 357.982 33.104 358.302 32.671 C 358.615 32.244 359.072 31.911 359.672 31.671 C 360.272 31.438 360.989 31.321 361.822 31.321 L 363.442 31.321 L 363.442 30.431 C 363.442 29.878 363.275 29.451 362.942 29.151 C 362.609 28.851 362.142 28.701 361.542 28.701 C 361.155 28.701 360.822 28.748 360.542 28.841 C 360.262 28.928 360.009 29.054 359.782 29.221 L 359.602 30.491 L 358.332 30.491 L 358.332 28.401 C 358.739 28.074 359.215 27.824 359.762 27.651 C 360.302 27.478 360.902 27.391 361.562 27.391 C 362.669 27.391 363.535 27.654 364.162 28.181 C 364.789 28.708 365.102 29.461 365.102 30.441 L 365.102 34.821 C 365.102 34.941 365.102 35.054 365.102 35.161 C 365.102 35.274 365.109 35.388 365.122 35.501 L 366.002 35.591 L 366.002 36.651 L 363.632 36.651 C 363.579 36.404 363.539 36.184 363.512 35.991 C 363.485 35.791 363.465 35.594 363.452 35.401 C 363.132 35.808 362.732 36.148 362.252 36.421 C 361.779 36.694 361.269 36.831 360.722 36.831 Z M 360.962 35.441 C 361.515 35.441 362.019 35.311 362.472 35.051 C 362.925 34.784 363.249 34.468 363.442 34.101 L 363.442 32.451 L 361.762 32.451 C 361.002 32.451 360.432 32.634 360.052 33.001 C 359.672 33.361 359.482 33.764 359.482 34.211 C 359.482 34.611 359.605 34.918 359.852 35.131 C 360.099 35.338 360.469 35.441 360.962 35.441 ZM 371.599 36.651 L 367.209 36.651 L 367.209 35.591 L 368.579 35.361 L 368.579 24.851 L 367.209 24.621 L 367.209 23.551 L 370.229 23.551 L 370.229 35.361 L 371.599 35.591 L 371.599 36.651 ZM 375.713 36.831 C 374.766 36.831 374.046 36.598 373.553 36.131 C 373.06 35.671 372.813 35.021 372.813 34.181 C 372.813 33.608 372.973 33.104 373.293 32.671 C 373.606 32.244 374.063 31.911 374.663 31.671 C 375.263 31.438 375.98 31.321 376.813 31.321 L 378.433 31.321 L 378.433 30.431 C 378.433 29.878 378.266 29.451 377.933 29.151 C 377.6 28.851 377.133 28.701 376.533 28.701 C 376.146 28.701 375.813 28.748 375.533 28.841 C 375.253 28.928 375 29.054 374.773 29.221 L 374.593 30.491 L 373.323 30.491 L 373.323 28.401 C 373.73 28.074 374.206 27.824 374.753 27.651 C 375.293 27.478 375.893 27.391 376.553 27.391 C 377.66 27.391 378.526 27.654 379.153 28.181 C 379.78 28.708 380.093 29.461 380.093 30.441 L 380.093 34.821 C 380.093 34.941 380.093 35.054 380.093 35.161 C 380.093 35.274 380.1 35.388 380.113 35.501 L 380.993 35.591 L 380.993 36.651 L 378.623 36.651 C 378.57 36.404 378.53 36.184 378.503 35.991 C 378.476 35.791 378.456 35.594 378.443 35.401 C 378.123 35.808 377.723 36.148 377.243 36.421 C 376.77 36.694 376.26 36.831 375.713 36.831 Z M 375.953 35.441 C 376.506 35.441 377.01 35.311 377.463 35.051 C 377.916 34.784 378.24 34.468 378.433 34.101 L 378.433 32.451 L 376.753 32.451 C 375.993 32.451 375.423 32.634 375.043 33.001 C 374.663 33.361 374.473 33.764 374.473 34.211 C 374.473 34.611 374.596 34.918 374.843 35.131 C 375.09 35.338 375.46 35.441 375.953 35.441 ZM 386.67 36.651 L 382.28 36.651 L 382.28 35.591 L 383.65 35.361 L 383.65 28.861 L 382.28 28.631 L 382.28 27.561 L 385.13 27.561 L 385.25 28.921 C 385.55 28.434 385.927 28.058 386.38 27.791 C 386.84 27.524 387.36 27.391 387.94 27.391 C 388.92 27.391 389.68 27.681 390.22 28.261 C 390.753 28.834 391.02 29.718 391.02 30.911 L 391.02 35.361 L 392.39 35.591 L 392.39 36.651 L 388 36.651 L 388 35.591 L 389.37 35.361 L 389.37 30.951 C 389.37 30.151 389.213 29.581 388.9 29.241 C 388.58 28.908 388.097 28.741 387.45 28.741 C 386.97 28.741 386.547 28.854 386.18 29.081 C 385.813 29.314 385.52 29.628 385.3 30.021 L 385.3 35.361 L 386.67 35.591 L 386.67 36.651 ZM 397.585 36.831 C 396.759 36.831 396.042 36.638 395.435 36.251 C 394.822 35.871 394.349 35.338 394.015 34.651 C 393.682 33.971 393.515 33.181 393.515 32.281 L 393.515 31.931 C 393.515 31.071 393.675 30.298 393.995 29.611 C 394.322 28.931 394.789 28.391 395.395 27.991 C 396.009 27.591 396.739 27.391 397.585 27.391 C 398.319 27.391 398.962 27.514 399.515 27.761 C 400.062 28.001 400.525 28.331 400.905 28.751 L 400.945 30.931 L 399.645 30.931 L 399.365 29.341 C 399.172 29.148 398.932 28.991 398.645 28.871 C 398.365 28.758 398.032 28.701 397.645 28.701 C 397.152 28.701 396.719 28.844 396.345 29.131 C 395.972 29.424 395.682 29.814 395.475 30.301 C 395.269 30.788 395.165 31.331 395.165 31.931 L 395.165 32.281 C 395.165 32.941 395.262 33.514 395.455 34.001 C 395.649 34.494 395.925 34.871 396.285 35.131 C 396.645 35.398 397.075 35.531 397.575 35.531 C 398.135 35.531 398.599 35.378 398.965 35.071 C 399.339 34.764 399.565 34.341 399.645 33.801 L 401.135 33.801 L 401.155 33.851 C 401.129 34.371 400.975 34.858 400.695 35.311 C 400.415 35.764 400.015 36.131 399.495 36.411 C 398.975 36.691 398.339 36.831 397.585 36.831 ZM 406.786 36.831 C 405.946 36.831 405.216 36.638 404.596 36.251 C 403.976 35.871 403.496 35.338 403.156 34.651 C 402.816 33.971 402.646 33.181 402.646 32.281 L 402.646 31.911 C 402.646 31.051 402.823 30.281 403.176 29.601 C 403.536 28.921 404.01 28.384 404.596 27.991 C 405.19 27.591 405.836 27.391 406.536 27.391 C 407.356 27.391 408.04 27.561 408.586 27.901 C 409.14 28.234 409.556 28.704 409.836 29.311 C 410.116 29.924 410.256 30.641 410.256 31.461 L 410.256 32.491 L 404.356 32.491 L 404.336 32.531 C 404.35 33.118 404.453 33.634 404.646 34.081 C 404.84 34.534 405.116 34.891 405.476 35.151 C 405.843 35.404 406.28 35.531 406.786 35.531 C 407.346 35.531 407.84 35.451 408.266 35.291 C 408.686 35.131 409.05 34.911 409.356 34.631 L 410.006 35.711 C 409.68 36.024 409.25 36.288 408.716 36.501 C 408.183 36.721 407.54 36.831 406.786 36.831 Z M 404.396 31.161 L 404.416 31.201 L 408.606 31.201 L 408.606 30.981 C 408.606 30.548 408.53 30.158 408.376 29.811 C 408.216 29.464 407.986 29.191 407.686 28.991 C 407.38 28.798 406.996 28.701 406.536 28.701 C 406.17 28.701 405.833 28.808 405.526 29.021 C 405.226 29.234 404.976 29.528 404.776 29.901 C 404.583 30.268 404.456 30.688 404.396 31.161 ZM 415.446 36.831 C 414.706 36.831 414.073 36.648 413.546 36.281 C 413.013 35.914 412.606 35.401 412.326 34.741 C 412.053 34.088 411.916 33.324 411.916 32.451 L 411.916 32.271 C 411.916 31.298 412.053 30.444 412.326 29.711 C 412.606 28.978 413.013 28.408 413.546 28.001 C 414.08 27.594 414.72 27.391 415.466 27.391 C 416 27.391 416.473 27.491 416.886 27.691 C 417.3 27.891 417.653 28.178 417.946 28.551 L 417.946 24.851 L 416.576 24.621 L 416.576 23.551 L 417.946 23.551 L 419.596 23.551 L 419.596 35.361 L 420.966 35.591 L 420.966 36.651 L 418.156 36.651 L 418.026 35.571 C 417.726 35.984 417.363 36.298 416.936 36.511 C 416.51 36.724 416.013 36.831 415.446 36.831 Z M 415.866 35.481 C 416.36 35.481 416.773 35.371 417.106 35.151 C 417.446 34.924 417.726 34.608 417.946 34.201 L 417.946 29.981 C 417.733 29.601 417.453 29.298 417.106 29.071 C 416.766 28.851 416.36 28.741 415.886 28.741 C 415.36 28.741 414.926 28.891 414.586 29.191 C 414.24 29.491 413.983 29.904 413.816 30.431 C 413.65 30.958 413.566 31.571 413.566 32.271 L 413.566 32.451 C 413.566 33.364 413.753 34.098 414.126 34.651 C 414.5 35.204 415.08 35.481 415.866 35.481 Z" transform="matrix(1, 0, 0, 1, 0, 0)" style="fill: rgb(255, 255, 255); white-space: pre;"/>
  <g transform="matrix(-1, 0, 0, 1, 526.054199, 0)">
    <line style="stroke-width: 7px; stroke: rgb(255, 255, 255);" x1="232.329" y1="88.072" x2="294.851" y2="191.885" transform="matrix(-1, 0, 0, -1, 527.180008, 279.956993)"/>
    <circle style="fill: rgb(93, 98, 234);" cx="315.338" cy="87.201" r="19.168" transform="matrix(-0.907245, 0, 0, 0.913313, 521.102478, 7.147762)"/>
    <circle style="fill: rgb(93, 98, 234);" cx="284.013" cy="143.586" r="19.168" transform="matrix(-0.907245, 0, 0, 0.913313, 521.102478, 7.147762)"/>
    <circle style="fill: rgb(93, 98, 234);" cx="253.583" cy="199.076" r="19.168" transform="matrix(-0.907245, 0, 0, 0.913313, 521.102478, 7.147762)"/>
  </g>
  <path d="M -232.228 162.014 C -233.415 162.014 -234.355 161.604 -235.048 160.784 C -235.741 159.957 -236.088 158.774 -236.088 157.234 L -236.088 154.374 C -236.088 152.834 -235.745 151.651 -235.058 150.824 C -234.371 149.997 -233.435 149.584 -232.248 149.584 C -231.061 149.584 -230.121 149.997 -229.428 150.824 C -228.735 151.651 -228.388 152.834 -228.388 154.374 L -228.388 157.234 C -228.388 158.781 -228.731 159.964 -229.418 160.784 C -230.105 161.604 -231.041 162.014 -232.228 162.014 Z M -232.228 160.744 C -231.508 160.744 -230.961 160.477 -230.588 159.944 C -230.215 159.411 -230.028 158.621 -230.028 157.574 L -230.028 154.024 C -230.028 152.977 -230.215 152.191 -230.588 151.664 C -230.968 151.137 -231.521 150.874 -232.248 150.874 C -232.961 150.874 -233.508 151.137 -233.888 151.664 C -234.261 152.191 -234.448 152.977 -234.448 154.024 L -234.448 157.574 C -234.448 158.614 -234.258 159.401 -233.878 159.934 C -233.491 160.474 -232.941 160.744 -232.228 160.744 Z" transform="matrix(-1, 0, 0, 1, 0, 0)" style="fill: rgb(255, 255, 255); white-space: pre;"/>
  <path d="M 83.663 47.08 H 121.419 L 121.419 39.005 L 136.289 49.772 L 121.419 60.539 L 121.419 52.463 H 83.663 V 47.08 Z" style="fill: rgb(216, 216, 216);" transform="matrix(0.999997, 0.002266, -0.002266, 0.999997, 51.452236, 89.257759)" bx:shape="arrow 83.663 39.005 52.626 21.534 5.383 14.87 0 1@6efbf687"/>
  <g transform="matrix(-1, 0, 0, 1, 379.738495, 1.083589)">
    <path d="M 62.066 204.169 C 78.5 191.022 81.418 164.097 81.418 144.039 C 81.418 139.377 83.495 128.84 81.418 124.686 C 79.888 121.626 77.963 112.698 77.963 110.172" style="fill: rgb(216, 216, 216); fill-opacity: 0; stroke: rgb(255, 255, 255); stroke-width: 3px;" transform="matrix(-1, 0, 0, -1, 144.407112, 314.341003)"/>
    <path d="M 51.931 205.755 C 55.772 202.682 66.87 186.27 71.283 188.476 C 74.897 190.283 77.076 198.416 79.577 200.917" style="fill: rgb(216, 216, 216); fill-opacity: 0; stroke: rgb(255, 255, 255); stroke-width: 3px;" transform="matrix(-1, 0, 0, -1, 131.508003, 394.027756)"/>
  </g>
  <path d="M 291.908 95.38 C 290.788 95.38 289.781 95.173 288.888 94.76 C 288.001 94.353 287.308 93.747 286.808 92.94 C 286.308 92.133 286.071 91.133 286.098 89.94 L 286.118 89.85 L 288.558 89.85 C 288.558 90.93 288.868 91.77 289.488 92.37 C 290.115 92.97 290.921 93.27 291.908 93.27 C 293.048 93.27 293.931 92.87 294.558 92.07 C 295.185 91.27 295.498 90.17 295.498 88.77 C 295.498 87.49 295.181 86.44 294.548 85.62 C 293.915 84.807 293.038 84.4 291.918 84.4 C 290.858 84.4 290.091 84.56 289.618 84.88 C 289.138 85.2 288.788 85.687 288.568 86.34 L 286.328 86.11 L 287.478 75.18 L 297.988 75.18 L 297.988 79.12 L 295.968 79.12 L 295.708 77.58 L 289.758 77.58 L 289.118 83.17 C 289.391 82.957 289.688 82.77 290.008 82.61 C 290.321 82.457 290.668 82.327 291.048 82.22 C 291.428 82.12 291.841 82.067 292.288 82.06 C 293.508 82.053 294.561 82.32 295.448 82.86 C 296.328 83.4 297.005 84.173 297.478 85.18 C 297.958 86.193 298.198 87.383 298.198 88.75 C 298.198 90.077 297.958 91.237 297.478 92.23 C 296.998 93.223 296.291 93.997 295.358 94.55 C 294.425 95.103 293.275 95.38 291.908 95.38 Z" transform="matrix(1, 0, 0, 1, 0, 0)" style="fill: rgb(255, 255, 255); white-space: pre;"/>
  <path d="M 268.65 146.927 L 261.51 146.927 L 261.51 145.207 L 263.74 144.817 L 263.74 142.337 L 254.8 142.337 L 254.8 140.817 L 263.58 127.017 L 266.42 127.017 L 266.42 140.227 L 269.17 140.227 L 269.17 142.337 L 266.42 142.337 L 266.42 144.817 L 268.65 145.207 L 268.65 146.927 Z M 263.39 131.557 L 257.67 140.227 L 263.74 140.227 L 263.74 130.867 L 263.66 130.837 L 263.39 131.557 Z" transform="matrix(1, 0, 0, 1, 0, 0)" style="fill: rgb(255, 255, 255); white-space: pre;"/>
  <path d="M 237.077 197.533 C 235.864 197.533 234.784 197.31 233.837 196.863 C 232.884 196.423 232.14 195.796 231.607 194.983 C 231.074 194.163 230.824 193.193 230.857 192.073 L 230.897 191.993 L 233.467 191.993 C 233.467 192.693 233.61 193.3 233.897 193.813 C 234.19 194.32 234.607 194.716 235.147 195.003 C 235.687 195.283 236.33 195.423 237.077 195.423 C 238.217 195.423 239.11 195.113 239.757 194.493 C 240.404 193.873 240.727 192.956 240.727 191.743 C 240.727 190.516 240.44 189.61 239.867 189.023 C 239.287 188.443 238.377 188.153 237.137 188.153 L 234.787 188.153 L 234.787 186.043 L 237.137 186.043 C 237.93 186.043 238.57 185.91 239.057 185.643 C 239.537 185.376 239.884 184.99 240.097 184.483 C 240.317 183.976 240.427 183.366 240.427 182.653 C 240.427 181.513 240.144 180.646 239.577 180.053 C 239.01 179.466 238.177 179.173 237.077 179.173 C 236.37 179.173 235.757 179.31 235.237 179.583 C 234.717 179.863 234.314 180.256 234.027 180.763 C 233.74 181.27 233.597 181.863 233.597 182.543 L 231.017 182.543 L 230.987 182.463 C 230.96 181.463 231.2 180.553 231.707 179.733 C 232.214 178.913 232.93 178.26 233.857 177.773 C 234.777 177.293 235.85 177.053 237.077 177.053 C 238.917 177.053 240.384 177.543 241.477 178.523 C 242.57 179.503 243.117 180.9 243.117 182.713 C 243.117 183.533 242.867 184.35 242.367 185.163 C 241.874 185.976 241.13 186.6 240.137 187.033 C 241.33 187.42 242.174 188.033 242.667 188.873 C 243.167 189.713 243.417 190.653 243.417 191.693 C 243.417 192.906 243.147 193.946 242.607 194.813 C 242.06 195.686 241.31 196.356 240.357 196.823 C 239.397 197.296 238.304 197.533 237.077 197.533 Z" transform="matrix(1, 0, 0, 1, 0, 0)" style="fill: rgb(255, 255, 255); white-space: pre;"/>
  <path d="M 261.537 112.492 L 255.537 112.492 L 255.537 111.322 L 257.627 111.062 L 257.627 100.942 L 255.507 100.982 L 255.507 99.842 L 259.457 98.982 L 259.457 111.062 L 261.537 111.322 L 261.537 112.492 Z" transform="matrix(1, 0, 0, 1, 0, 0)" style="fill: rgb(255, 255, 255); white-space: pre;"/>
  <path d="M 290.671 61.77 L 281.921 61.77 L 281.921 60.52 L 286.351 55.6 C 286.871 55.013 287.281 54.51 287.581 54.09 C 287.874 53.677 288.081 53.3 288.201 52.96 C 288.321 52.62 288.381 52.267 288.381 51.9 C 288.381 51.227 288.174 50.66 287.761 50.2 C 287.354 49.74 286.771 49.51 286.011 49.51 C 285.218 49.51 284.601 49.747 284.161 50.22 C 283.721 50.693 283.501 51.367 283.501 52.24 L 281.741 52.24 L 281.731 52.19 C 281.711 51.41 281.874 50.71 282.221 50.09 C 282.568 49.463 283.068 48.97 283.721 48.61 C 284.381 48.25 285.168 48.07 286.081 48.07 C 286.934 48.07 287.668 48.23 288.281 48.55 C 288.894 48.877 289.368 49.323 289.701 49.89 C 290.034 50.45 290.201 51.093 290.201 51.82 C 290.201 52.32 290.104 52.813 289.911 53.3 C 289.718 53.787 289.434 54.287 289.061 54.8 C 288.688 55.313 288.238 55.857 287.711 56.43 L 284.161 60.29 L 284.171 60.34 L 288.971 60.34 L 289.121 58.79 L 290.671 58.79 L 290.671 61.77 Z" transform="matrix(1, 0, 0, 1, 0, 0)" style="fill: rgb(255, 255, 255); white-space: pre;"/>
  <line style="stroke-width: 7px; stroke: rgb(255, 255, 255);" x1="53.387" y1="146.576" x2="90.129" y2="91.197"/>
  <circle style="fill: rgb(93, 98, 234);" cx="315.338" cy="87.201" r="19.168" transform="matrix(0.907245, 0, 0, 0.913313, -198.645111, 10.272561)"/>
  <circle style="fill: rgb(93, 98, 234);" cx="284.013" cy="143.586" r="19.168" transform="matrix(0.907245, 0, 0, 0.913313, -198.645111, 10.272561)"/>
  <circle style="fill: rgb(93, 98, 234);" cx="253.583" cy="199.076" r="19.168" transform="matrix(0.907245, 0, 0, 0.913313, -141.617523, 14.178559)"/>
  <path d="M 91.413 174.829 C 90.226 174.829 89.286 174.419 88.593 173.599 C 87.9 172.772 87.553 171.589 87.553 170.049 L 87.553 167.189 C 87.553 165.649 87.896 164.466 88.583 163.639 C 89.27 162.812 90.206 162.399 91.393 162.399 C 92.58 162.399 93.52 162.812 94.213 163.639 C 94.906 164.466 95.253 165.649 95.253 167.189 L 95.253 170.049 C 95.253 171.596 94.91 172.779 94.223 173.599 C 93.536 174.419 92.6 174.829 91.413 174.829 Z M 91.413 173.559 C 92.133 173.559 92.68 173.292 93.053 172.759 C 93.426 172.226 93.613 171.436 93.613 170.389 L 93.613 166.839 C 93.613 165.792 93.426 165.006 93.053 164.479 C 92.673 163.952 92.12 163.689 91.393 163.689 C 90.68 163.689 90.133 163.952 89.753 164.479 C 89.38 165.006 89.193 165.792 89.193 166.839 L 89.193 170.389 C 89.193 171.429 89.383 172.216 89.763 172.749 C 90.15 173.289 90.7 173.559 91.413 173.559 Z" transform="matrix(1, 0, 0, 1, 0, 0)" style="fill: rgb(255, 255, 255); white-space: pre;"/>
  <path d="M 95.135 203.825 L 87.995 203.825 L 87.995 202.105 L 90.225 201.715 L 90.225 199.235 L 81.285 199.235 L 81.285 197.715 L 90.065 183.915 L 92.905 183.915 L 92.905 197.125 L 95.655 197.125 L 95.655 199.235 L 92.905 199.235 L 92.905 201.715 L 95.135 202.105 L 95.135 203.825 Z M 89.875 188.455 L 84.155 197.125 L 90.225 197.125 L 90.225 187.765 L 90.145 187.735 L 89.875 188.455 Z" transform="matrix(1, 0, 0, 1, 0, 0)" style="fill: rgb(255, 255, 255); white-space: pre;"/>
  <path d="M 85.73 99.271 C 84.61 99.271 83.603 99.064 82.71 98.651 C 81.823 98.244 81.13 97.638 80.63 96.831 C 80.13 96.024 79.893 95.024 79.92 93.831 L 79.94 93.741 L 82.38 93.741 C 82.38 94.821 82.69 95.661 83.31 96.261 C 83.937 96.861 84.743 97.161 85.73 97.161 C 86.87 97.161 87.753 96.761 88.38 95.961 C 89.007 95.161 89.32 94.061 89.32 92.661 C 89.32 91.381 89.003 90.331 88.37 89.511 C 87.737 88.698 86.86 88.291 85.74 88.291 C 84.68 88.291 83.913 88.451 83.44 88.771 C 82.96 89.091 82.61 89.578 82.39 90.231 L 80.15 90.001 L 81.3 79.071 L 91.81 79.071 L 91.81 83.011 L 89.79 83.011 L 89.53 81.471 L 83.58 81.471 L 82.94 87.061 C 83.213 86.848 83.51 86.661 83.83 86.501 C 84.143 86.348 84.49 86.218 84.87 86.111 C 85.25 86.011 85.663 85.958 86.11 85.951 C 87.33 85.944 88.383 86.211 89.27 86.751 C 90.15 87.291 90.827 88.064 91.3 89.071 C 91.78 90.084 92.02 91.274 92.02 92.641 C 92.02 93.968 91.78 95.128 91.3 96.121 C 90.82 97.114 90.113 97.888 89.18 98.441 C 88.247 98.994 87.097 99.271 85.73 99.271 Z" transform="matrix(1, 0, 0, 1, 0, 0)" style="fill: rgb(255, 255, 255); white-space: pre;"/>
  <path d="M 60.306 150.636 C 59.093 150.636 58.013 150.413 57.066 149.966 C 56.113 149.526 55.369 148.899 54.836 148.086 C 54.303 147.266 54.053 146.296 54.086 145.176 L 54.126 145.096 L 56.696 145.096 C 56.696 145.796 56.839 146.403 57.126 146.916 C 57.419 147.423 57.836 147.819 58.376 148.106 C 58.916 148.386 59.559 148.526 60.306 148.526 C 61.446 148.526 62.339 148.216 62.986 147.596 C 63.633 146.976 63.956 146.059 63.956 144.846 C 63.956 143.619 63.669 142.713 63.096 142.126 C 62.516 141.546 61.606 141.256 60.366 141.256 L 58.016 141.256 L 58.016 139.146 L 60.366 139.146 C 61.159 139.146 61.799 139.013 62.286 138.746 C 62.766 138.479 63.113 138.093 63.326 137.586 C 63.546 137.079 63.656 136.469 63.656 135.756 C 63.656 134.616 63.373 133.749 62.806 133.156 C 62.239 132.569 61.406 132.276 60.306 132.276 C 59.599 132.276 58.986 132.413 58.466 132.686 C 57.946 132.966 57.543 133.359 57.256 133.866 C 56.969 134.373 56.826 134.966 56.826 135.646 L 54.246 135.646 L 54.216 135.566 C 54.189 134.566 54.429 133.656 54.936 132.836 C 55.443 132.016 56.159 131.363 57.086 130.876 C 58.006 130.396 59.079 130.156 60.306 130.156 C 62.146 130.156 63.613 130.646 64.706 131.626 C 65.799 132.606 66.346 134.003 66.346 135.816 C 66.346 136.636 66.096 137.453 65.596 138.266 C 65.103 139.079 64.359 139.703 63.366 140.136 C 64.559 140.523 65.403 141.136 65.896 141.976 C 66.396 142.816 66.646 143.756 66.646 144.796 C 66.646 146.009 66.376 147.049 65.836 147.916 C 65.289 148.789 64.539 149.459 63.586 149.926 C 62.626 150.399 61.533 150.636 60.306 150.636 Z" transform="matrix(1, 0, 0, 1, 0, 0)" style="fill: rgb(255, 255, 255); white-space: pre;"/>
  <path d="M 55.784 109.927 L 51.724 109.927 L 51.724 108.657 L 55.784 108.657 L 55.784 109.927 ZM 63.43 114.397 L 58.06 114.397 L 58.06 113.347 L 59.93 113.117 L 59.93 104.067 L 58.03 104.097 L 58.03 103.077 L 61.57 102.307 L 61.57 113.117 L 63.43 113.347 L 63.43 114.397 Z" transform="matrix(1, 0, 0, 1, 0, 0)" style="fill: rgb(255, 255, 255); white-space: pre;"/>
  <path d="M 85.972 65.318 L 78.152 65.318 L 78.152 64.198 L 82.102 59.798 C 82.575 59.271 82.945 58.821 83.212 58.448 C 83.479 58.075 83.662 57.735 83.762 57.428 C 83.869 57.128 83.922 56.815 83.922 56.488 C 83.922 55.881 83.739 55.371 83.372 54.958 C 83.012 54.551 82.492 54.348 81.812 54.348 C 81.099 54.348 80.545 54.561 80.152 54.988 C 79.759 55.408 79.562 56.011 79.562 56.798 L 77.992 56.798 L 77.972 56.748 C 77.959 56.048 78.105 55.421 78.412 54.868 C 78.725 54.308 79.175 53.868 79.762 53.548 C 80.349 53.221 81.049 53.058 81.862 53.058 C 82.629 53.058 83.289 53.205 83.842 53.498 C 84.389 53.785 84.812 54.181 85.112 54.688 C 85.412 55.188 85.562 55.765 85.562 56.418 C 85.562 56.865 85.475 57.305 85.302 57.738 C 85.122 58.178 84.865 58.628 84.532 59.088 C 84.199 59.548 83.795 60.031 83.322 60.538 L 80.152 63.998 L 80.162 64.038 L 84.452 64.038 L 84.592 62.658 L 85.972 62.658 L 85.972 65.318 Z" transform="matrix(1, 0, 0, 1, 0, 0)" style="fill: rgb(255, 255, 255); white-space: pre;"/>
  <path d="M 83.663 47.08 H 121.419 L 121.419 39.005 L 136.289 49.772 L 121.419 60.539 L 121.419 52.463 H 83.663 V 47.08 Z" style="fill: rgb(216, 216, 216);" transform="matrix(0.999997, 0.002266, -0.002266, 0.999997, 236.97998, 71.039047)" bx:shape="arrow 83.663 39.005 52.626 21.534 5.383 14.87 0 1@6efbf687"/>
  <path d="M 55.169 247.969 L 46.359 247.969 L 46.359 246.909 L 47.729 246.679 L 47.729 237.039 L 46.359 236.809 L 46.359 235.739 L 47.729 235.739 L 49.379 235.739 L 50.749 235.739 L 50.749 236.809 L 49.379 237.039 L 49.379 246.699 L 53.709 246.699 L 53.899 244.769 L 55.169 244.769 L 55.169 247.969 ZM 65.331 247.969 L 56.521 247.969 L 56.521 246.909 L 57.891 246.679 L 57.891 237.039 L 56.521 236.809 L 56.521 235.739 L 57.891 235.739 L 59.541 235.739 L 60.911 235.739 L 60.911 236.809 L 59.541 237.039 L 59.541 246.699 L 63.871 246.699 L 64.061 244.769 L 65.331 244.769 L 65.331 247.969 ZM 75.348 247.969 L 70.958 247.969 L 70.958 246.909 L 72.328 246.679 L 72.328 237.039 L 70.958 236.809 L 70.958 235.749 L 76.408 235.749 C 77.301 235.749 78.055 235.882 78.668 236.149 C 79.281 236.416 79.745 236.799 80.058 237.299 C 80.378 237.806 80.538 238.422 80.538 239.149 C 80.538 239.869 80.385 240.472 80.078 240.959 C 79.765 241.446 79.321 241.812 78.748 242.059 C 78.181 242.312 77.505 242.446 76.718 242.459 L 73.978 242.509 L 73.978 246.679 L 75.348 246.909 L 75.348 247.969 Z M 81.068 247.969 L 79.028 247.969 L 76.308 241.859 L 77.958 241.849 L 80.218 246.739 L 81.068 246.889 L 81.068 247.969 Z M 73.978 237.039 L 73.978 241.209 L 76.238 241.209 C 77.165 241.209 77.838 241.032 78.258 240.679 C 78.678 240.326 78.888 239.809 78.888 239.129 C 78.888 238.489 78.685 237.982 78.278 237.609 C 77.878 237.229 77.255 237.039 76.408 237.039 L 73.978 237.039 ZM 86.64 248.149 C 85.8 248.149 85.077 247.949 84.47 247.549 C 83.863 247.156 83.393 246.612 83.06 245.919 C 82.733 245.219 82.57 244.422 82.57 243.529 L 82.57 243.339 C 82.57 242.446 82.733 241.649 83.06 240.949 C 83.393 240.256 83.863 239.709 84.47 239.309 C 85.077 238.909 85.793 238.709 86.62 238.709 C 87.46 238.709 88.183 238.909 88.79 239.309 C 89.397 239.709 89.867 240.256 90.2 240.949 C 90.527 241.642 90.69 242.439 90.69 243.339 L 90.69 243.529 C 90.69 244.429 90.527 245.226 90.2 245.919 C 89.867 246.619 89.4 247.166 88.8 247.559 C 88.193 247.952 87.473 248.149 86.64 248.149 Z M 86.64 246.849 C 87.167 246.849 87.607 246.706 87.96 246.419 C 88.313 246.132 88.583 245.739 88.77 245.239 C 88.95 244.732 89.04 244.162 89.04 243.529 L 89.04 243.339 C 89.04 242.706 88.95 242.136 88.77 241.629 C 88.583 241.129 88.313 240.736 87.96 240.449 C 87.6 240.162 87.153 240.019 86.62 240.019 C 86.093 240.019 85.65 240.162 85.29 240.449 C 84.937 240.736 84.67 241.129 84.49 241.629 C 84.31 242.136 84.22 242.706 84.22 243.339 L 84.22 243.529 C 84.22 244.162 84.31 244.732 84.49 245.239 C 84.67 245.739 84.94 246.132 85.3 246.419 C 85.66 246.706 86.107 246.849 86.64 246.849 ZM 95.18 248.109 C 94.506 248.109 93.973 247.912 93.58 247.519 C 93.186 247.126 92.99 246.496 92.99 245.629 L 92.99 240.109 L 91.55 240.109 L 91.55 238.879 L 92.99 238.879 L 92.99 236.689 L 94.64 236.689 L 94.64 238.879 L 96.62 238.879 L 96.62 240.109 L 94.64 240.109 L 94.64 245.629 C 94.64 246.062 94.726 246.382 94.9 246.589 C 95.073 246.796 95.306 246.899 95.6 246.899 C 95.793 246.899 96.01 246.882 96.25 246.849 C 96.496 246.809 96.686 246.776 96.82 246.749 L 97.04 247.839 C 96.8 247.906 96.506 247.969 96.16 248.029 C 95.806 248.082 95.48 248.109 95.18 248.109 ZM 101.041 248.149 C 100.094 248.149 99.374 247.916 98.881 247.449 C 98.387 246.989 98.141 246.339 98.141 245.499 C 98.141 244.926 98.301 244.422 98.621 243.989 C 98.934 243.562 99.391 243.229 99.991 242.989 C 100.591 242.756 101.307 242.639 102.141 242.639 L 103.761 242.639 L 103.761 241.749 C 103.761 241.196 103.594 240.769 103.261 240.469 C 102.927 240.169 102.461 240.019 101.861 240.019 C 101.474 240.019 101.141 240.066 100.861 240.159 C 100.581 240.246 100.327 240.372 100.101 240.539 L 99.921 241.809 L 98.651 241.809 L 98.651 239.719 C 99.057 239.392 99.534 239.142 100.081 238.969 C 100.621 238.796 101.221 238.709 101.881 238.709 C 102.987 238.709 103.854 238.972 104.481 239.499 C 105.107 240.026 105.421 240.779 105.421 241.759 L 105.421 246.139 C 105.421 246.259 105.421 246.372 105.421 246.479 C 105.421 246.592 105.427 246.706 105.441 246.819 L 106.321 246.909 L 106.321 247.969 L 103.951 247.969 C 103.897 247.722 103.857 247.502 103.831 247.309 C 103.804 247.109 103.784 246.912 103.771 246.719 C 103.451 247.126 103.051 247.466 102.571 247.739 C 102.097 248.012 101.587 248.149 101.041 248.149 Z M 101.281 246.759 C 101.834 246.759 102.337 246.629 102.791 246.369 C 103.244 246.102 103.567 245.786 103.761 245.419 L 103.761 243.769 L 102.081 243.769 C 101.321 243.769 100.751 243.952 100.371 244.319 C 99.991 244.679 99.801 245.082 99.801 245.529 C 99.801 245.929 99.924 246.236 100.171 246.449 C 100.417 246.656 100.787 246.759 101.281 246.759 ZM 110.818 248.109 C 110.144 248.109 109.611 247.912 109.218 247.519 C 108.824 247.126 108.628 246.496 108.628 245.629 L 108.628 240.109 L 107.188 240.109 L 107.188 238.879 L 108.628 238.879 L 108.628 236.689 L 110.278 236.689 L 110.278 238.879 L 112.258 238.879 L 112.258 240.109 L 110.278 240.109 L 110.278 245.629 C 110.278 246.062 110.364 246.382 110.538 246.589 C 110.711 246.796 110.944 246.899 111.238 246.899 C 111.431 246.899 111.648 246.882 111.888 246.849 C 112.134 246.809 112.324 246.776 112.458 246.749 L 112.678 247.839 C 112.438 247.906 112.144 247.969 111.798 248.029 C 111.444 248.082 111.118 248.109 110.818 248.109 ZM 118.078 247.969 L 113.678 247.969 L 113.678 246.909 L 115.048 246.679 L 115.048 240.179 L 113.678 239.949 L 113.678 238.879 L 116.708 238.879 L 116.708 246.679 L 118.078 246.909 L 118.078 247.969 Z M 116.708 236.639 L 114.968 236.639 L 114.968 234.869 L 116.708 234.869 L 116.708 236.639 ZM 123.324 248.149 C 122.484 248.149 121.761 247.949 121.154 247.549 C 120.548 247.156 120.078 246.612 119.744 245.919 C 119.418 245.219 119.254 244.422 119.254 243.529 L 119.254 243.339 C 119.254 242.446 119.418 241.649 119.744 240.949 C 120.078 240.256 120.548 239.709 121.154 239.309 C 121.761 238.909 122.478 238.709 123.304 238.709 C 124.144 238.709 124.868 238.909 125.474 239.309 C 126.081 239.709 126.551 240.256 126.884 240.949 C 127.211 241.642 127.374 242.439 127.374 243.339 L 127.374 243.529 C 127.374 244.429 127.211 245.226 126.884 245.919 C 126.551 246.619 126.084 247.166 125.484 247.559 C 124.878 247.952 124.158 248.149 123.324 248.149 Z M 123.324 246.849 C 123.851 246.849 124.291 246.706 124.644 246.419 C 124.998 246.132 125.268 245.739 125.454 245.239 C 125.634 244.732 125.724 244.162 125.724 243.529 L 125.724 243.339 C 125.724 242.706 125.634 242.136 125.454 241.629 C 125.268 241.129 124.998 240.736 124.644 240.449 C 124.284 240.162 123.838 240.019 123.304 240.019 C 122.778 240.019 122.334 240.162 121.974 240.449 C 121.621 240.736 121.354 241.129 121.174 241.629 C 120.994 242.136 120.904 242.706 120.904 243.339 L 120.904 243.529 C 120.904 244.162 120.994 244.732 121.174 245.239 C 121.354 245.739 121.624 246.132 121.984 246.419 C 122.344 246.706 122.791 246.849 123.324 246.849 ZM 133.044 247.969 L 128.654 247.969 L 128.654 246.909 L 130.024 246.679 L 130.024 240.179 L 128.654 239.949 L 128.654 238.879 L 131.504 238.879 L 131.624 240.239 C 131.924 239.752 132.301 239.376 132.754 239.109 C 133.214 238.842 133.734 238.709 134.314 238.709 C 135.294 238.709 136.054 238.999 136.594 239.579 C 137.127 240.152 137.394 241.036 137.394 242.229 L 137.394 246.679 L 138.764 246.909 L 138.764 247.969 L 134.374 247.969 L 134.374 246.909 L 135.744 246.679 L 135.744 242.269 C 135.744 241.469 135.587 240.899 135.274 240.559 C 134.954 240.226 134.471 240.059 133.824 240.059 C 133.344 240.059 132.921 240.172 132.554 240.399 C 132.187 240.632 131.894 240.946 131.674 241.339 L 131.674 246.679 L 133.044 246.909 L 133.044 247.969 ZM 212.78 247.969 L 208.39 247.969 L 208.39 246.909 L 209.76 246.679 L 209.76 237.039 L 208.39 236.809 L 208.39 235.749 L 213.84 235.749 C 214.733 235.749 215.487 235.882 216.1 236.149 C 216.713 236.416 217.177 236.799 217.49 237.299 C 217.81 237.806 217.97 238.422 217.97 239.149 C 217.97 239.869 217.817 240.472 217.51 240.959 C 217.197 241.446 216.753 241.812 216.18 242.059 C 215.613 242.312 214.937 242.446 214.15 242.459 L 211.41 242.509 L 211.41 246.679 L 212.78 246.909 L 212.78 247.969 Z M 218.5 247.969 L 216.46 247.969 L 213.74 241.859 L 215.39 241.849 L 217.65 246.739 L 218.5 246.889 L 218.5 247.969 Z M 211.41 237.039 L 211.41 241.209 L 213.67 241.209 C 214.597 241.209 215.27 241.032 215.69 240.679 C 216.11 240.326 216.32 239.809 216.32 239.129 C 216.32 238.489 216.117 237.982 215.71 237.609 C 215.31 237.229 214.687 237.039 213.84 237.039 L 211.41 237.039 ZM 224.412 247.969 L 220.022 247.969 L 220.022 246.909 L 221.392 246.679 L 221.392 237.039 L 220.022 236.809 L 220.022 235.749 L 225.472 235.749 C 226.365 235.749 227.118 235.882 227.732 236.149 C 228.345 236.416 228.808 236.799 229.122 237.299 C 229.442 237.806 229.602 238.422 229.602 239.149 C 229.602 239.869 229.448 240.472 229.142 240.959 C 228.828 241.446 228.385 241.812 227.812 242.059 C 227.245 242.312 226.568 242.446 225.782 242.459 L 223.042 242.509 L 223.042 246.679 L 224.412 246.909 L 224.412 247.969 Z M 230.132 247.969 L 228.092 247.969 L 225.372 241.859 L 227.022 241.849 L 229.282 246.739 L 230.132 246.889 L 230.132 247.969 Z M 223.042 237.039 L 223.042 241.209 L 225.302 241.209 C 226.228 241.209 226.902 241.032 227.322 240.679 C 227.742 240.326 227.952 239.809 227.952 239.129 C 227.952 238.489 227.748 237.982 227.342 237.609 C 226.942 237.229 226.318 237.039 225.472 237.039 L 223.042 237.039 ZM 240.318 247.969 L 235.928 247.969 L 235.928 246.909 L 237.298 246.679 L 237.298 237.039 L 235.928 236.809 L 235.928 235.749 L 241.378 235.749 C 242.272 235.749 243.025 235.882 243.638 236.149 C 244.252 236.416 244.715 236.799 245.028 237.299 C 245.348 237.806 245.508 238.422 245.508 239.149 C 245.508 239.869 245.355 240.472 245.048 240.959 C 244.735 241.446 244.292 241.812 243.718 242.059 C 243.152 242.312 242.475 242.446 241.688 242.459 L 238.948 242.509 L 238.948 246.679 L 240.318 246.909 L 240.318 247.969 Z M 246.038 247.969 L 243.998 247.969 L 241.278 241.859 L 242.928 241.849 L 245.188 246.739 L 246.038 246.889 L 246.038 247.969 Z M 238.948 237.039 L 238.948 241.209 L 241.208 241.209 C 242.135 241.209 242.808 241.032 243.228 240.679 C 243.648 240.326 243.858 239.809 243.858 239.129 C 243.858 238.489 243.655 237.982 243.248 237.609 C 242.848 237.229 242.225 237.039 241.378 237.039 L 238.948 237.039 ZM 251.61 248.149 C 250.77 248.149 250.047 247.949 249.44 247.549 C 248.833 247.156 248.363 246.612 248.03 245.919 C 247.703 245.219 247.54 244.422 247.54 243.529 L 247.54 243.339 C 247.54 242.446 247.703 241.649 248.03 240.949 C 248.363 240.256 248.833 239.709 249.44 239.309 C 250.047 238.909 250.763 238.709 251.59 238.709 C 252.43 238.709 253.153 238.909 253.76 239.309 C 254.367 239.709 254.837 240.256 255.17 240.949 C 255.497 241.642 255.66 242.439 255.66 243.339 L 255.66 243.529 C 255.66 244.429 255.497 245.226 255.17 245.919 C 254.837 246.619 254.37 247.166 253.77 247.559 C 253.163 247.952 252.443 248.149 251.61 248.149 Z M 251.61 246.849 C 252.137 246.849 252.577 246.706 252.93 246.419 C 253.283 246.132 253.553 245.739 253.74 245.239 C 253.92 244.732 254.01 244.162 254.01 243.529 L 254.01 243.339 C 254.01 242.706 253.92 242.136 253.74 241.629 C 253.553 241.129 253.283 240.736 252.93 240.449 C 252.57 240.162 252.123 240.019 251.59 240.019 C 251.063 240.019 250.62 240.162 250.26 240.449 C 249.907 240.736 249.64 241.129 249.46 241.629 C 249.28 242.136 249.19 242.706 249.19 243.339 L 249.19 243.529 C 249.19 244.162 249.28 244.732 249.46 245.239 C 249.64 245.739 249.91 246.132 250.27 246.419 C 250.63 246.706 251.077 246.849 251.61 246.849 ZM 260.15 248.109 C 259.477 248.109 258.943 247.912 258.55 247.519 C 258.157 247.126 257.96 246.496 257.96 245.629 L 257.96 240.109 L 256.52 240.109 L 256.52 238.879 L 257.96 238.879 L 257.96 236.689 L 259.61 236.689 L 259.61 238.879 L 261.59 238.879 L 261.59 240.109 L 259.61 240.109 L 259.61 245.629 C 259.61 246.062 259.697 246.382 259.87 246.589 C 260.043 246.796 260.277 246.899 260.57 246.899 C 260.763 246.899 260.98 246.882 261.22 246.849 C 261.467 246.809 261.657 246.776 261.79 246.749 L 262.01 247.839 C 261.77 247.906 261.477 247.969 261.13 248.029 C 260.777 248.082 260.45 248.109 260.15 248.109 ZM 266.011 248.149 C 265.064 248.149 264.344 247.916 263.851 247.449 C 263.358 246.989 263.111 246.339 263.111 245.499 C 263.111 244.926 263.271 244.422 263.591 243.989 C 263.904 243.562 264.361 243.229 264.961 242.989 C 265.561 242.756 266.278 242.639 267.111 242.639 L 268.731 242.639 L 268.731 241.749 C 268.731 241.196 268.564 240.769 268.231 240.469 C 267.898 240.169 267.431 240.019 266.831 240.019 C 266.444 240.019 266.111 240.066 265.831 240.159 C 265.551 240.246 265.298 240.372 265.071 240.539 L 264.891 241.809 L 263.621 241.809 L 263.621 239.719 C 264.028 239.392 264.504 239.142 265.051 238.969 C 265.591 238.796 266.191 238.709 266.851 238.709 C 267.958 238.709 268.824 238.972 269.451 239.499 C 270.078 240.026 270.391 240.779 270.391 241.759 L 270.391 246.139 C 270.391 246.259 270.391 246.372 270.391 246.479 C 270.391 246.592 270.398 246.706 270.411 246.819 L 271.291 246.909 L 271.291 247.969 L 268.921 247.969 C 268.868 247.722 268.828 247.502 268.801 247.309 C 268.774 247.109 268.754 246.912 268.741 246.719 C 268.421 247.126 268.021 247.466 267.541 247.739 C 267.068 248.012 266.558 248.149 266.011 248.149 Z M 266.251 246.759 C 266.804 246.759 267.308 246.629 267.761 246.369 C 268.214 246.102 268.538 245.786 268.731 245.419 L 268.731 243.769 L 267.051 243.769 C 266.291 243.769 265.721 243.952 265.341 244.319 C 264.961 244.679 264.771 245.082 264.771 245.529 C 264.771 245.929 264.894 246.236 265.141 246.449 C 265.388 246.656 265.758 246.759 266.251 246.759 ZM 275.788 248.109 C 275.115 248.109 274.581 247.912 274.188 247.519 C 273.795 247.126 273.598 246.496 273.598 245.629 L 273.598 240.109 L 272.158 240.109 L 272.158 238.879 L 273.598 238.879 L 273.598 236.689 L 275.248 236.689 L 275.248 238.879 L 277.228 238.879 L 277.228 240.109 L 275.248 240.109 L 275.248 245.629 C 275.248 246.062 275.335 246.382 275.508 246.589 C 275.681 246.796 275.915 246.899 276.208 246.899 C 276.401 246.899 276.618 246.882 276.858 246.849 C 277.105 246.809 277.295 246.776 277.428 246.749 L 277.648 247.839 C 277.408 247.906 277.115 247.969 276.768 248.029 C 276.415 248.082 276.088 248.109 275.788 248.109 ZM 283.049 247.969 L 278.649 247.969 L 278.649 246.909 L 280.019 246.679 L 280.019 240.179 L 278.649 239.949 L 278.649 238.879 L 281.679 238.879 L 281.679 246.679 L 283.049 246.909 L 283.049 247.969 Z M 281.679 236.639 L 279.939 236.639 L 279.939 234.869 L 281.679 234.869 L 281.679 236.639 ZM 288.295 248.149 C 287.455 248.149 286.731 247.949 286.125 247.549 C 285.518 247.156 285.048 246.612 284.715 245.919 C 284.388 245.219 284.225 244.422 284.225 243.529 L 284.225 243.339 C 284.225 242.446 284.388 241.649 284.715 240.949 C 285.048 240.256 285.518 239.709 286.125 239.309 C 286.731 238.909 287.448 238.709 288.275 238.709 C 289.115 238.709 289.838 238.909 290.445 239.309 C 291.051 239.709 291.521 240.256 291.855 240.949 C 292.181 241.642 292.345 242.439 292.345 243.339 L 292.345 243.529 C 292.345 244.429 292.181 245.226 291.855 245.919 C 291.521 246.619 291.055 247.166 290.455 247.559 C 289.848 247.952 289.128 248.149 288.295 248.149 Z M 288.295 246.849 C 288.821 246.849 289.261 246.706 289.615 246.419 C 289.968 246.132 290.238 245.739 290.425 245.239 C 290.605 244.732 290.695 244.162 290.695 243.529 L 290.695 243.339 C 290.695 242.706 290.605 242.136 290.425 241.629 C 290.238 241.129 289.968 240.736 289.615 240.449 C 289.255 240.162 288.808 240.019 288.275 240.019 C 287.748 240.019 287.305 240.162 286.945 240.449 C 286.591 240.736 286.325 241.129 286.145 241.629 C 285.965 242.136 285.875 242.706 285.875 243.339 L 285.875 243.529 C 285.875 244.162 285.965 244.732 286.145 245.239 C 286.325 245.739 286.595 246.132 286.955 246.419 C 287.315 246.706 287.761 246.849 288.295 246.849 ZM 298.014 247.969 L 293.624 247.969 L 293.624 246.909 L 294.994 246.679 L 294.994 240.179 L 293.624 239.949 L 293.624 238.879 L 296.474 238.879 L 296.594 240.239 C 296.894 239.752 297.271 239.376 297.724 239.109 C 298.184 238.842 298.704 238.709 299.284 238.709 C 300.264 238.709 301.024 238.999 301.564 239.579 C 302.098 240.152 302.364 241.036 302.364 242.229 L 302.364 246.679 L 303.734 246.909 L 303.734 247.969 L 299.344 247.969 L 299.344 246.909 L 300.714 246.679 L 300.714 242.269 C 300.714 241.469 300.558 240.899 300.244 240.559 C 299.924 240.226 299.441 240.059 298.794 240.059 C 298.314 240.059 297.891 240.172 297.524 240.399 C 297.158 240.632 296.864 240.946 296.644 241.339 L 296.644 246.679 L 298.014 246.909 L 298.014 247.969 Z" transform="matrix(1, 0, 0, 1, 0, 0)" style="fill: rgb(255, 255, 255); white-space: pre;"/>
  <g transform="matrix(0.646283, -0.335069, -0.308179, -0.594416, 44.535267, 305.519287)" style="">
    <path d="M 62.066 204.169 C 78.5 191.022 81.418 164.097 81.418 144.039 C 81.418 139.377 83.495 128.84 81.418 124.686 C 79.888 121.626 77.963 112.698 77.963 110.172" style="fill: rgb(216, 216, 216); fill-opacity: 0; stroke: rgb(255, 255, 255); stroke-width: 3px;" transform="matrix(-1, 0, 0, -1, 144.407112, 314.341003)"/>
    <path d="M 51.931 205.755 C 55.772 202.682 66.87 186.27 71.283 188.476 C 74.897 190.283 77.076 198.416 79.577 200.917" style="fill: rgb(216, 216, 216); fill-opacity: 0; stroke: rgb(255, 255, 255); stroke-width: 3px;" transform="matrix(-1, 0, 0, -1, 131.508003, 394.027756)"/>
  </g>
</svg>