<?xml version="1.0" encoding="utf-8"?>
<svg viewBox="0 0 500 270" xmlns="http://www.w3.org/2000/svg" xmlns:bx="https://boxy-svg.com">
  <rect x="-0.987" y="-1.996" width="505.843" height="270.254" style=""/>
  <line style="stroke-width: 7px; stroke: rgb(255, 255, 255);" x1="52.653" y1="196.573" x2="89.395" y2="141.194"/>
  <g transform="matrix(0.901824, 0, 0, 0.87698, 325.73761, 31.691902)" style="">
    <line style="stroke-width: 7px; stroke: rgb(255, 255, 255);" x1="111.724" y1="110.187" x2="139.332" y2="157.597" transform="matrix(-1, 0, 0, -1, 251.056, 267.783997)"/>
    <line style="stroke-width: 7px; stroke: rgb(255, 255, 255);" x1="70.824" y1="161.492" x2="98.432" y2="114.082"/>
    <circle style="fill: rgb(93, 98, 234);" cx="179.298" cy="89.886" r="19.168" transform="matrix(0.907245, 0, 0, 0.913313, -57.992783, 17.071688)"/>
    <circle style="fill: rgb(93, 98, 234);" cx="147.973" cy="145.376" r="19.168" transform="matrix(0.907245, 0, 0, 0.913313, -65.134087, 32.003494)"/>
    <circle style="fill: rgb(93, 98, 234);" cx="480.018" cy="83.621" r="19.168" transform="matrix(0.907245, 0, 0, 0.913313, -289.760376, 88.484673)"/>
    <path d="M 109.11 108.356 L 102.64 108.356 L 102.64 106.796 L 104.66 106.446 L 104.66 104.186 L 96.55 104.186 L 96.55 102.816 L 104.51 90.296 L 107.09 90.296 L 107.09 102.276 L 109.59 102.276 L 109.59 104.186 L 107.09 104.186 L 107.09 106.446 L 109.11 106.796 L 109.11 108.356 Z M 104.34 94.416 L 99.16 102.276 L 104.66 102.276 L 104.66 93.786 L 104.59 93.756 L 104.34 94.416 Z" transform="matrix(1, 0, 0, 1, 0, 0)" style="fill: rgb(255, 255, 255); white-space: pre;"/>
    <path d="M 143.984 174.055 C 142.971 174.055 142.061 173.868 141.254 173.495 C 140.447 173.122 139.817 172.572 139.364 171.845 C 138.911 171.112 138.694 170.202 138.714 169.115 L 138.744 169.045 L 140.954 169.045 C 140.954 170.018 141.237 170.778 141.804 171.325 C 142.364 171.872 143.091 172.145 143.984 172.145 C 145.017 172.145 145.821 171.782 146.394 171.055 C 146.967 170.328 147.254 169.332 147.254 168.065 C 147.254 166.898 146.964 165.945 146.384 165.205 C 145.811 164.465 145.017 164.095 144.004 164.095 C 143.044 164.095 142.347 164.242 141.914 164.535 C 141.481 164.822 141.164 165.262 140.964 165.855 L 138.924 165.645 L 139.974 155.735 L 149.504 155.735 L 149.504 159.305 L 147.674 159.305 L 147.434 157.905 L 142.044 157.905 L 141.454 162.985 C 141.707 162.792 141.977 162.622 142.264 162.475 C 142.551 162.335 142.867 162.218 143.214 162.125 C 143.554 162.032 143.927 161.982 144.334 161.975 C 145.441 161.968 146.397 162.212 147.204 162.705 C 148.004 163.192 148.617 163.892 149.044 164.805 C 149.477 165.718 149.694 166.798 149.694 168.045 C 149.694 169.252 149.477 170.305 149.044 171.205 C 148.611 172.105 147.971 172.805 147.124 173.305 C 146.271 173.805 145.224 174.055 143.984 174.055 Z" transform="matrix(1, 0, 0, 1, 0, 0)" style="fill: rgb(255, 255, 255); white-space: pre;"/>
    <path d="M 68.755 172.322 C 67.655 172.322 66.675 172.122 65.815 171.722 C 64.955 171.322 64.285 170.752 63.805 170.012 C 63.318 169.272 63.088 168.392 63.115 167.372 L 63.155 167.302 L 65.485 167.302 C 65.485 167.935 65.618 168.485 65.885 168.952 C 66.145 169.412 66.518 169.772 67.005 170.032 C 67.498 170.285 68.082 170.412 68.755 170.412 C 69.788 170.412 70.598 170.132 71.185 169.572 C 71.772 169.005 72.065 168.172 72.065 167.072 C 72.065 165.959 71.805 165.139 71.285 164.612 C 70.765 164.079 69.945 163.812 68.825 163.812 L 66.685 163.812 L 66.685 161.902 L 68.825 161.902 C 69.538 161.902 70.115 161.782 70.555 161.542 C 70.995 161.295 71.312 160.942 71.505 160.482 C 71.698 160.022 71.795 159.472 71.795 158.832 C 71.795 157.799 71.538 157.012 71.025 156.472 C 70.512 155.932 69.755 155.662 68.755 155.662 C 68.122 155.662 67.568 155.789 67.095 156.042 C 66.622 156.295 66.255 156.652 65.995 157.112 C 65.735 157.572 65.605 158.112 65.605 158.732 L 63.265 158.732 L 63.235 158.652 C 63.215 157.745 63.435 156.919 63.895 156.172 C 64.348 155.432 64.995 154.842 65.835 154.402 C 66.675 153.962 67.648 153.742 68.755 153.742 C 70.428 153.742 71.762 154.185 72.755 155.072 C 73.748 155.965 74.245 157.235 74.245 158.882 C 74.245 159.622 74.018 160.362 73.565 161.102 C 73.112 161.842 72.435 162.409 71.535 162.802 C 72.622 163.155 73.388 163.712 73.835 164.472 C 74.288 165.232 74.515 166.082 74.515 167.022 C 74.515 168.122 74.268 169.069 73.775 169.862 C 73.282 170.649 72.602 171.255 71.735 171.682 C 70.868 172.109 69.875 172.322 68.755 172.322 Z" transform="matrix(1, 0, 0, 1, 0, 0)" style="fill: rgb(255, 255, 255); white-space: pre;"/>
    <path d="M 64.679 141.502 C 63.492 141.502 62.552 141.092 61.859 140.272 C 61.166 139.445 60.819 138.262 60.819 136.722 L 60.819 133.862 C 60.819 132.322 61.162 131.139 61.849 130.312 C 62.536 129.485 63.472 129.072 64.659 129.072 C 65.846 129.072 66.786 129.485 67.479 130.312 C 68.172 131.139 68.519 132.322 68.519 133.862 L 68.519 136.722 C 68.519 138.269 68.176 139.452 67.489 140.272 C 66.802 141.092 65.866 141.502 64.679 141.502 Z M 64.679 140.232 C 65.399 140.232 65.946 139.965 66.319 139.432 C 66.692 138.899 66.879 138.109 66.879 137.062 L 66.879 133.512 C 66.879 132.465 66.692 131.679 66.319 131.152 C 65.939 130.625 65.386 130.362 64.659 130.362 C 63.946 130.362 63.399 130.625 63.019 131.152 C 62.646 131.679 62.459 132.465 62.459 133.512 L 62.459 137.062 C 62.459 138.102 62.649 138.889 63.029 139.422 C 63.416 139.962 63.966 140.232 64.679 140.232 Z" transform="matrix(1, 0, 0, 1, 0, 0)" style="fill: rgb(255, 255, 255); white-space: pre;"/>
    <path d="M 104.503 73.501 C 103.316 73.501 102.376 73.091 101.683 72.271 C 100.99 71.444 100.643 70.261 100.643 68.721 L 100.643 65.861 C 100.643 64.321 100.986 63.138 101.673 62.311 C 102.36 61.484 103.296 61.071 104.483 61.071 C 105.67 61.071 106.61 61.484 107.303 62.311 C 107.996 63.138 108.343 64.321 108.343 65.861 L 108.343 68.721 C 108.343 70.268 108 71.451 107.313 72.271 C 106.626 73.091 105.69 73.501 104.503 73.501 Z M 104.503 72.231 C 105.223 72.231 105.77 71.964 106.143 71.431 C 106.516 70.898 106.703 70.108 106.703 69.061 L 106.703 65.511 C 106.703 64.464 106.516 63.678 106.143 63.151 C 105.763 62.624 105.21 62.361 104.483 62.361 C 103.77 62.361 103.223 62.624 102.843 63.151 C 102.47 63.678 102.283 64.464 102.283 65.511 L 102.283 69.061 C 102.283 70.101 102.473 70.888 102.853 71.421 C 103.24 71.961 103.79 72.231 104.503 72.231 Z" transform="matrix(1, 0, 0, 1, 0, 0)" style="fill: rgb(255, 255, 255); white-space: pre;"/>
    <path d="M 147.333 143.005 C 146.146 143.005 145.206 142.595 144.513 141.775 C 143.82 140.948 143.473 139.765 143.473 138.225 L 143.473 135.365 C 143.473 133.825 143.816 132.642 144.503 131.815 C 145.19 130.988 146.126 130.575 147.313 130.575 C 148.5 130.575 149.44 130.988 150.133 131.815 C 150.826 132.642 151.173 133.825 151.173 135.365 L 151.173 138.225 C 151.173 139.772 150.83 140.955 150.143 141.775 C 149.456 142.595 148.52 143.005 147.333 143.005 Z M 147.333 141.735 C 148.053 141.735 148.6 141.468 148.973 140.935 C 149.346 140.402 149.533 139.612 149.533 138.565 L 149.533 135.015 C 149.533 133.968 149.346 133.182 148.973 132.655 C 148.593 132.128 148.04 131.865 147.313 131.865 C 146.6 131.865 146.053 132.128 145.673 132.655 C 145.3 133.182 145.113 133.968 145.113 135.015 L 145.113 138.565 C 145.113 139.605 145.303 140.392 145.683 140.925 C 146.07 141.465 146.62 141.735 147.333 141.735 Z" transform="matrix(1, 0, 0, 1, 0, 0)" style="fill: rgb(255, 255, 255); white-space: pre;"/>
  </g>
  <path d="M 104.78 36.831 C 103.94 36.831 103.19 36.664 102.53 36.331 C 101.87 36.004 101.35 35.534 100.97 34.921 C 100.59 34.308 100.4 33.571 100.4 32.711 L 100.4 25.721 L 99.03 25.491 L 99.03 24.421 L 103.42 24.421 L 103.42 25.491 L 102.05 25.721 L 102.05 32.711 C 102.05 33.324 102.167 33.838 102.4 34.251 C 102.633 34.664 102.957 34.974 103.37 35.181 C 103.783 35.394 104.263 35.501 104.81 35.501 C 105.357 35.501 105.84 35.398 106.26 35.191 C 106.687 34.984 107.017 34.674 107.25 34.261 C 107.49 33.841 107.61 33.324 107.61 32.711 L 107.61 25.721 L 106.24 25.491 L 106.24 24.421 L 110.63 24.421 L 110.63 25.491 L 109.27 25.721 L 109.27 32.711 C 109.27 33.598 109.083 34.348 108.71 34.961 C 108.337 35.574 107.813 36.038 107.14 36.351 C 106.467 36.671 105.68 36.831 104.78 36.831 ZM 116.233 36.651 L 111.843 36.651 L 111.843 35.591 L 113.213 35.361 L 113.213 28.861 L 111.843 28.631 L 111.843 27.561 L 114.693 27.561 L 114.813 28.921 C 115.113 28.434 115.489 28.058 115.943 27.791 C 116.403 27.524 116.923 27.391 117.503 27.391 C 118.483 27.391 119.243 27.681 119.783 28.261 C 120.316 28.834 120.583 29.718 120.583 30.911 L 120.583 35.361 L 121.953 35.591 L 121.953 36.651 L 117.563 36.651 L 117.563 35.591 L 118.933 35.361 L 118.933 30.951 C 118.933 30.151 118.776 29.581 118.463 29.241 C 118.143 28.908 117.659 28.741 117.013 28.741 C 116.533 28.741 116.109 28.854 115.743 29.081 C 115.376 29.314 115.083 29.628 114.863 30.021 L 114.863 35.361 L 116.233 35.591 L 116.233 36.651 ZM 127.952 36.831 C 127.358 36.831 126.845 36.718 126.412 36.491 C 125.972 36.264 125.605 35.928 125.312 35.481 L 125.162 36.651 L 123.732 36.651 L 123.732 24.851 L 122.372 24.621 L 122.372 23.551 L 125.392 23.551 L 125.392 28.641 C 125.678 28.234 126.032 27.924 126.452 27.711 C 126.878 27.498 127.372 27.391 127.932 27.391 C 128.685 27.391 129.325 27.594 129.852 28.001 C 130.385 28.408 130.792 28.978 131.072 29.711 C 131.352 30.444 131.492 31.298 131.492 32.271 L 131.492 32.451 C 131.492 33.324 131.352 34.088 131.072 34.741 C 130.792 35.401 130.385 35.914 129.852 36.281 C 129.325 36.648 128.692 36.831 127.952 36.831 Z M 127.532 35.481 C 128.312 35.481 128.888 35.204 129.262 34.651 C 129.642 34.098 129.832 33.364 129.832 32.451 L 129.832 32.271 C 129.832 31.571 129.748 30.958 129.582 30.431 C 129.415 29.904 129.162 29.491 128.822 29.191 C 128.475 28.891 128.038 28.741 127.512 28.741 C 127.005 28.741 126.575 28.864 126.222 29.111 C 125.875 29.358 125.598 29.688 125.392 30.101 L 125.392 34.111 C 125.598 34.531 125.878 34.864 126.232 35.111 C 126.592 35.358 127.025 35.481 127.532 35.481 ZM 135.678 36.831 C 134.731 36.831 134.011 36.598 133.518 36.131 C 133.025 35.671 132.778 35.021 132.778 34.181 C 132.778 33.608 132.938 33.104 133.258 32.671 C 133.571 32.244 134.028 31.911 134.628 31.671 C 135.228 31.438 135.945 31.321 136.778 31.321 L 138.398 31.321 L 138.398 30.431 C 138.398 29.878 138.231 29.451 137.898 29.151 C 137.565 28.851 137.098 28.701 136.498 28.701 C 136.111 28.701 135.778 28.748 135.498 28.841 C 135.218 28.928 134.965 29.054 134.738 29.221 L 134.558 30.491 L 133.288 30.491 L 133.288 28.401 C 133.695 28.074 134.171 27.824 134.718 27.651 C 135.258 27.478 135.858 27.391 136.518 27.391 C 137.625 27.391 138.491 27.654 139.118 28.181 C 139.745 28.708 140.058 29.461 140.058 30.441 L 140.058 34.821 C 140.058 34.941 140.058 35.054 140.058 35.161 C 140.058 35.274 140.065 35.388 140.078 35.501 L 140.958 35.591 L 140.958 36.651 L 138.588 36.651 C 138.535 36.404 138.495 36.184 138.468 35.991 C 138.441 35.791 138.421 35.594 138.408 35.401 C 138.088 35.808 137.688 36.148 137.208 36.421 C 136.735 36.694 136.225 36.831 135.678 36.831 Z M 135.918 35.441 C 136.471 35.441 136.975 35.311 137.428 35.051 C 137.881 34.784 138.205 34.468 138.398 34.101 L 138.398 32.451 L 136.718 32.451 C 135.958 32.451 135.388 32.634 135.008 33.001 C 134.628 33.361 134.438 33.764 134.438 34.211 C 134.438 34.611 134.561 34.918 134.808 35.131 C 135.055 35.338 135.425 35.441 135.918 35.441 ZM 146.555 36.651 L 142.165 36.651 L 142.165 35.591 L 143.535 35.361 L 143.535 24.851 L 142.165 24.621 L 142.165 23.551 L 145.185 23.551 L 145.185 35.361 L 146.555 35.591 L 146.555 36.651 ZM 150.669 36.831 C 149.722 36.831 149.002 36.598 148.509 36.131 C 148.016 35.671 147.769 35.021 147.769 34.181 C 147.769 33.608 147.929 33.104 148.249 32.671 C 148.562 32.244 149.019 31.911 149.619 31.671 C 150.219 31.438 150.936 31.321 151.769 31.321 L 153.389 31.321 L 153.389 30.431 C 153.389 29.878 153.222 29.451 152.889 29.151 C 152.556 28.851 152.089 28.701 151.489 28.701 C 151.102 28.701 150.769 28.748 150.489 28.841 C 150.209 28.928 149.956 29.054 149.729 29.221 L 149.549 30.491 L 148.279 30.491 L 148.279 28.401 C 148.686 28.074 149.162 27.824 149.709 27.651 C 150.249 27.478 150.849 27.391 151.509 27.391 C 152.616 27.391 153.482 27.654 154.109 28.181 C 154.736 28.708 155.049 29.461 155.049 30.441 L 155.049 34.821 C 155.049 34.941 155.049 35.054 155.049 35.161 C 155.049 35.274 155.056 35.388 155.069 35.501 L 155.949 35.591 L 155.949 36.651 L 153.579 36.651 C 153.526 36.404 153.486 36.184 153.459 35.991 C 153.432 35.791 153.412 35.594 153.399 35.401 C 153.079 35.808 152.679 36.148 152.199 36.421 C 151.726 36.694 151.216 36.831 150.669 36.831 Z M 150.909 35.441 C 151.462 35.441 151.966 35.311 152.419 35.051 C 152.872 34.784 153.196 34.468 153.389 34.101 L 153.389 32.451 L 151.709 32.451 C 150.949 32.451 150.379 32.634 149.999 33.001 C 149.619 33.361 149.429 33.764 149.429 34.211 C 149.429 34.611 149.552 34.918 149.799 35.131 C 150.046 35.338 150.416 35.441 150.909 35.441 ZM 161.626 36.651 L 157.236 36.651 L 157.236 35.591 L 158.606 35.361 L 158.606 28.861 L 157.236 28.631 L 157.236 27.561 L 160.086 27.561 L 160.206 28.921 C 160.506 28.434 160.883 28.058 161.336 27.791 C 161.796 27.524 162.316 27.391 162.896 27.391 C 163.876 27.391 164.636 27.681 165.176 28.261 C 165.709 28.834 165.976 29.718 165.976 30.911 L 165.976 35.361 L 167.346 35.591 L 167.346 36.651 L 162.956 36.651 L 162.956 35.591 L 164.326 35.361 L 164.326 30.951 C 164.326 30.151 164.169 29.581 163.856 29.241 C 163.536 28.908 163.053 28.741 162.406 28.741 C 161.926 28.741 161.503 28.854 161.136 29.081 C 160.769 29.314 160.476 29.628 160.256 30.021 L 160.256 35.361 L 161.626 35.591 L 161.626 36.651 ZM 172.541 36.831 C 171.715 36.831 170.998 36.638 170.391 36.251 C 169.778 35.871 169.305 35.338 168.971 34.651 C 168.638 33.971 168.471 33.181 168.471 32.281 L 168.471 31.931 C 168.471 31.071 168.631 30.298 168.951 29.611 C 169.278 28.931 169.745 28.391 170.351 27.991 C 170.965 27.591 171.695 27.391 172.541 27.391 C 173.275 27.391 173.918 27.514 174.471 27.761 C 175.018 28.001 175.481 28.331 175.861 28.751 L 175.901 30.931 L 174.601 30.931 L 174.321 29.341 C 174.128 29.148 173.888 28.991 173.601 28.871 C 173.321 28.758 172.988 28.701 172.601 28.701 C 172.108 28.701 171.675 28.844 171.301 29.131 C 170.928 29.424 170.638 29.814 170.431 30.301 C 170.225 30.788 170.121 31.331 170.121 31.931 L 170.121 32.281 C 170.121 32.941 170.218 33.514 170.411 34.001 C 170.605 34.494 170.881 34.871 171.241 35.131 C 171.601 35.398 172.031 35.531 172.531 35.531 C 173.091 35.531 173.555 35.378 173.921 35.071 C 174.295 34.764 174.521 34.341 174.601 33.801 L 176.091 33.801 L 176.111 33.851 C 176.085 34.371 175.931 34.858 175.651 35.311 C 175.371 35.764 174.971 36.131 174.451 36.411 C 173.931 36.691 173.295 36.831 172.541 36.831 ZM 181.742 36.831 C 180.902 36.831 180.172 36.638 179.552 36.251 C 178.932 35.871 178.452 35.338 178.112 34.651 C 177.772 33.971 177.602 33.181 177.602 32.281 L 177.602 31.911 C 177.602 31.051 177.779 30.281 178.132 29.601 C 178.492 28.921 178.966 28.384 179.552 27.991 C 180.146 27.591 180.792 27.391 181.492 27.391 C 182.312 27.391 182.996 27.561 183.542 27.901 C 184.096 28.234 184.512 28.704 184.792 29.311 C 185.072 29.924 185.212 30.641 185.212 31.461 L 185.212 32.491 L 179.312 32.491 L 179.292 32.531 C 179.306 33.118 179.409 33.634 179.602 34.081 C 179.796 34.534 180.072 34.891 180.432 35.151 C 180.799 35.404 181.236 35.531 181.742 35.531 C 182.302 35.531 182.796 35.451 183.222 35.291 C 183.642 35.131 184.006 34.911 184.312 34.631 L 184.962 35.711 C 184.636 36.024 184.206 36.288 183.672 36.501 C 183.139 36.721 182.496 36.831 181.742 36.831 Z M 179.352 31.161 L 179.372 31.201 L 183.562 31.201 L 183.562 30.981 C 183.562 30.548 183.486 30.158 183.332 29.811 C 183.172 29.464 182.942 29.191 182.642 28.991 C 182.336 28.798 181.952 28.701 181.492 28.701 C 181.126 28.701 180.789 28.808 180.482 29.021 C 180.182 29.234 179.932 29.528 179.732 29.901 C 179.539 30.268 179.412 30.688 179.352 31.161 ZM 190.402 36.831 C 189.662 36.831 189.029 36.648 188.502 36.281 C 187.969 35.914 187.562 35.401 187.282 34.741 C 187.009 34.088 186.872 33.324 186.872 32.451 L 186.872 32.271 C 186.872 31.298 187.009 30.444 187.282 29.711 C 187.562 28.978 187.969 28.408 188.502 28.001 C 189.035 27.594 189.675 27.391 190.422 27.391 C 190.955 27.391 191.429 27.491 191.842 27.691 C 192.255 27.891 192.609 28.178 192.902 28.551 L 192.902 24.851 L 191.532 24.621 L 191.532 23.551 L 192.902 23.551 L 194.552 23.551 L 194.552 35.361 L 195.922 35.591 L 195.922 36.651 L 193.112 36.651 L 192.982 35.571 C 192.682 35.984 192.319 36.298 191.892 36.511 C 191.465 36.724 190.969 36.831 190.402 36.831 Z M 190.822 35.481 C 191.315 35.481 191.729 35.371 192.062 35.151 C 192.402 34.924 192.682 34.608 192.902 34.201 L 192.902 29.981 C 192.689 29.601 192.409 29.298 192.062 29.071 C 191.722 28.851 191.315 28.741 190.842 28.741 C 190.315 28.741 189.882 28.891 189.542 29.191 C 189.195 29.491 188.939 29.904 188.772 30.431 C 188.605 30.958 188.522 31.571 188.522 32.271 L 188.522 32.451 C 188.522 33.364 188.709 34.098 189.082 34.651 C 189.455 35.204 190.035 35.481 190.822 35.481 ZM 352.539 36.651 L 346.739 36.651 L 346.739 35.591 L 348.109 35.361 L 348.109 25.721 L 346.739 25.491 L 346.739 24.421 L 348.109 24.421 L 352.009 24.421 C 353.289 24.421 354.289 24.698 355.009 25.251 C 355.729 25.804 356.089 26.631 356.089 27.731 C 356.089 28.278 355.916 28.764 355.569 29.191 C 355.223 29.618 354.769 29.934 354.209 30.141 C 354.703 30.241 355.123 30.438 355.469 30.731 C 355.823 31.024 356.096 31.384 356.289 31.811 C 356.483 32.231 356.579 32.694 356.579 33.201 C 356.579 34.321 356.216 35.174 355.489 35.761 C 354.763 36.354 353.779 36.651 352.539 36.651 Z M 349.759 30.911 L 349.759 35.361 L 352.539 35.361 C 353.293 35.361 353.876 35.174 354.289 34.801 C 354.709 34.428 354.919 33.901 354.919 33.221 C 354.919 32.734 354.843 32.321 354.689 31.981 C 354.536 31.641 354.299 31.378 353.979 31.191 C 353.666 31.004 353.269 30.911 352.789 30.911 L 349.759 30.911 Z M 349.759 25.721 L 349.759 29.621 L 352.439 29.621 C 353.033 29.621 353.513 29.448 353.879 29.101 C 354.246 28.761 354.429 28.294 354.429 27.701 C 354.429 27.041 354.223 26.544 353.809 26.211 C 353.396 25.884 352.796 25.721 352.009 25.721 L 349.759 25.721 ZM 360.722 36.831 C 359.775 36.831 359.055 36.598 358.562 36.131 C 358.069 35.671 357.822 35.021 357.822 34.181 C 357.822 33.608 357.982 33.104 358.302 32.671 C 358.615 32.244 359.072 31.911 359.672 31.671 C 360.272 31.438 360.989 31.321 361.822 31.321 L 363.442 31.321 L 363.442 30.431 C 363.442 29.878 363.275 29.451 362.942 29.151 C 362.609 28.851 362.142 28.701 361.542 28.701 C 361.155 28.701 360.822 28.748 360.542 28.841 C 360.262 28.928 360.009 29.054 359.782 29.221 L 359.602 30.491 L 358.332 30.491 L 358.332 28.401 C 358.739 28.074 359.215 27.824 359.762 27.651 C 360.302 27.478 360.902 27.391 361.562 27.391 C 362.669 27.391 363.535 27.654 364.162 28.181 C 364.789 28.708 365.102 29.461 365.102 30.441 L 365.102 34.821 C 365.102 34.941 365.102 35.054 365.102 35.161 C 365.102 35.274 365.109 35.388 365.122 35.501 L 366.002 35.591 L 366.002 36.651 L 363.632 36.651 C 363.579 36.404 363.539 36.184 363.512 35.991 C 363.485 35.791 363.465 35.594 363.452 35.401 C 363.132 35.808 362.732 36.148 362.252 36.421 C 361.779 36.694 361.269 36.831 360.722 36.831 Z M 360.962 35.441 C 361.515 35.441 362.019 35.311 362.472 35.051 C 362.925 34.784 363.249 34.468 363.442 34.101 L 363.442 32.451 L 361.762 32.451 C 361.002 32.451 360.432 32.634 360.052 33.001 C 359.672 33.361 359.482 33.764 359.482 34.211 C 359.482 34.611 359.605 34.918 359.852 35.131 C 360.099 35.338 360.469 35.441 360.962 35.441 ZM 371.599 36.651 L 367.209 36.651 L 367.209 35.591 L 368.579 35.361 L 368.579 24.851 L 367.209 24.621 L 367.209 23.551 L 370.229 23.551 L 370.229 35.361 L 371.599 35.591 L 371.599 36.651 ZM 375.713 36.831 C 374.766 36.831 374.046 36.598 373.553 36.131 C 373.06 35.671 372.813 35.021 372.813 34.181 C 372.813 33.608 372.973 33.104 373.293 32.671 C 373.606 32.244 374.063 31.911 374.663 31.671 C 375.263 31.438 375.98 31.321 376.813 31.321 L 378.433 31.321 L 378.433 30.431 C 378.433 29.878 378.266 29.451 377.933 29.151 C 377.6 28.851 377.133 28.701 376.533 28.701 C 376.146 28.701 375.813 28.748 375.533 28.841 C 375.253 28.928 375 29.054 374.773 29.221 L 374.593 30.491 L 373.323 30.491 L 373.323 28.401 C 373.73 28.074 374.206 27.824 374.753 27.651 C 375.293 27.478 375.893 27.391 376.553 27.391 C 377.66 27.391 378.526 27.654 379.153 28.181 C 379.78 28.708 380.093 29.461 380.093 30.441 L 380.093 34.821 C 380.093 34.941 380.093 35.054 380.093 35.161 C 380.093 35.274 380.1 35.388 380.113 35.501 L 380.993 35.591 L 380.993 36.651 L 378.623 36.651 C 378.57 36.404 378.53 36.184 378.503 35.991 C 378.476 35.791 378.456 35.594 378.443 35.401 C 378.123 35.808 377.723 36.148 377.243 36.421 C 376.77 36.694 376.26 36.831 375.713 36.831 Z M 375.953 35.441 C 376.506 35.441 377.01 35.311 377.463 35.051 C 377.916 34.784 378.24 34.468 378.433 34.101 L 378.433 32.451 L 376.753 32.451 C 375.993 32.451 375.423 32.634 375.043 33.001 C 374.663 33.361 374.473 33.764 374.473 34.211 C 374.473 34.611 374.596 34.918 374.843 35.131 C 375.09 35.338 375.46 35.441 375.953 35.441 ZM 386.67 36.651 L 382.28 36.651 L 382.28 35.591 L 383.65 35.361 L 383.65 28.861 L 382.28 28.631 L 382.28 27.561 L 385.13 27.561 L 385.25 28.921 C 385.55 28.434 385.927 28.058 386.38 27.791 C 386.84 27.524 387.36 27.391 387.94 27.391 C 388.92 27.391 389.68 27.681 390.22 28.261 C 390.753 28.834 391.02 29.718 391.02 30.911 L 391.02 35.361 L 392.39 35.591 L 392.39 36.651 L 388 36.651 L 388 35.591 L 389.37 35.361 L 389.37 30.951 C 389.37 30.151 389.213 29.581 388.9 29.241 C 388.58 28.908 388.097 28.741 387.45 28.741 C 386.97 28.741 386.547 28.854 386.18 29.081 C 385.813 29.314 385.52 29.628 385.3 30.021 L 385.3 35.361 L 386.67 35.591 L 386.67 36.651 ZM 397.585 36.831 C 396.759 36.831 396.042 36.638 395.435 36.251 C 394.822 35.871 394.349 35.338 394.015 34.651 C 393.682 33.971 393.515 33.181 393.515 32.281 L 393.515 31.931 C 393.515 31.071 393.675 30.298 393.995 29.611 C 394.322 28.931 394.789 28.391 395.395 27.991 C 396.009 27.591 396.739 27.391 397.585 27.391 C 398.319 27.391 398.962 27.514 399.515 27.761 C 400.062 28.001 400.525 28.331 400.905 28.751 L 400.945 30.931 L 399.645 30.931 L 399.365 29.341 C 399.172 29.148 398.932 28.991 398.645 28.871 C 398.365 28.758 398.032 28.701 397.645 28.701 C 397.152 28.701 396.719 28.844 396.345 29.131 C 395.972 29.424 395.682 29.814 395.475 30.301 C 395.269 30.788 395.165 31.331 395.165 31.931 L 395.165 32.281 C 395.165 32.941 395.262 33.514 395.455 34.001 C 395.649 34.494 395.925 34.871 396.285 35.131 C 396.645 35.398 397.075 35.531 397.575 35.531 C 398.135 35.531 398.599 35.378 398.965 35.071 C 399.339 34.764 399.565 34.341 399.645 33.801 L 401.135 33.801 L 401.155 33.851 C 401.129 34.371 400.975 34.858 400.695 35.311 C 400.415 35.764 400.015 36.131 399.495 36.411 C 398.975 36.691 398.339 36.831 397.585 36.831 ZM 406.786 36.831 C 405.946 36.831 405.216 36.638 404.596 36.251 C 403.976 35.871 403.496 35.338 403.156 34.651 C 402.816 33.971 402.646 33.181 402.646 32.281 L 402.646 31.911 C 402.646 31.051 402.823 30.281 403.176 29.601 C 403.536 28.921 404.01 28.384 404.596 27.991 C 405.19 27.591 405.836 27.391 406.536 27.391 C 407.356 27.391 408.04 27.561 408.586 27.901 C 409.14 28.234 409.556 28.704 409.836 29.311 C 410.116 29.924 410.256 30.641 410.256 31.461 L 410.256 32.491 L 404.356 32.491 L 404.336 32.531 C 404.35 33.118 404.453 33.634 404.646 34.081 C 404.84 34.534 405.116 34.891 405.476 35.151 C 405.843 35.404 406.28 35.531 406.786 35.531 C 407.346 35.531 407.84 35.451 408.266 35.291 C 408.686 35.131 409.05 34.911 409.356 34.631 L 410.006 35.711 C 409.68 36.024 409.25 36.288 408.716 36.501 C 408.183 36.721 407.54 36.831 406.786 36.831 Z M 404.396 31.161 L 404.416 31.201 L 408.606 31.201 L 408.606 30.981 C 408.606 30.548 408.53 30.158 408.376 29.811 C 408.216 29.464 407.986 29.191 407.686 28.991 C 407.38 28.798 406.996 28.701 406.536 28.701 C 406.17 28.701 405.833 28.808 405.526 29.021 C 405.226 29.234 404.976 29.528 404.776 29.901 C 404.583 30.268 404.456 30.688 404.396 31.161 ZM 415.446 36.831 C 414.706 36.831 414.073 36.648 413.546 36.281 C 413.013 35.914 412.606 35.401 412.326 34.741 C 412.053 34.088 411.916 33.324 411.916 32.451 L 411.916 32.271 C 411.916 31.298 412.053 30.444 412.326 29.711 C 412.606 28.978 413.013 28.408 413.546 28.001 C 414.08 27.594 414.72 27.391 415.466 27.391 C 416 27.391 416.473 27.491 416.886 27.691 C 417.3 27.891 417.653 28.178 417.946 28.551 L 417.946 24.851 L 416.576 24.621 L 416.576 23.551 L 417.946 23.551 L 419.596 23.551 L 419.596 35.361 L 420.966 35.591 L 420.966 36.651 L 418.156 36.651 L 418.026 35.571 C 417.726 35.984 417.363 36.298 416.936 36.511 C 416.51 36.724 416.013 36.831 415.446 36.831 Z M 415.866 35.481 C 416.36 35.481 416.773 35.371 417.106 35.151 C 417.446 34.924 417.726 34.608 417.946 34.201 L 417.946 29.981 C 417.733 29.601 417.453 29.298 417.106 29.071 C 416.766 28.851 416.36 28.741 415.886 28.741 C 415.36 28.741 414.926 28.891 414.586 29.191 C 414.24 29.491 413.983 29.904 413.816 30.431 C 413.65 30.958 413.566 31.571 413.566 32.271 L 413.566 32.451 C 413.566 33.364 413.753 34.098 414.126 34.651 C 414.5 35.204 415.08 35.481 415.866 35.481 Z" transform="matrix(1, 0, 0, 1, 0, 0)" style="fill: rgb(255, 255, 255); white-space: pre;"/>
  <g transform="matrix(-1, 0, 0, 1, 654.626343, 4.35867)">
    <line style="stroke-width: 7px; stroke: rgb(255, 255, 255);" x1="359.775" y1="187.526" x2="422.297" y2="83.713"/>
    <circle style="fill: rgb(93, 98, 234);" cx="315.338" cy="87.201" r="19.168" transform="matrix(0.907245, 0, 0, 0.913313, 133.523849, 2.789092)"/>
    <circle style="fill: rgb(93, 98, 234);" cx="284.013" cy="143.586" r="19.168" transform="matrix(0.907245, 0, 0, 0.913313, 133.523849, 2.789092)"/>
    <circle style="fill: rgb(93, 98, 234);" cx="253.583" cy="199.076" r="19.168" transform="matrix(0.907245, 0, 0, 0.913313, 133.523849, 2.789092)"/>
    <path d="M 358.476 160.663 C 357.289 160.663 356.349 160.253 355.656 159.433 C 354.963 158.606 354.616 157.423 354.616 155.883 L 354.616 153.023 C 354.616 151.483 354.959 150.3 355.646 149.473 C 356.333 148.646 357.269 148.233 358.456 148.233 C 359.643 148.233 360.583 148.646 361.276 149.473 C 361.969 150.3 362.316 151.483 362.316 153.023 L 362.316 155.883 C 362.316 157.43 361.973 158.613 361.286 159.433 C 360.599 160.253 359.663 160.663 358.476 160.663 Z M 358.476 159.393 C 359.196 159.393 359.743 159.126 360.116 158.593 C 360.489 158.06 360.676 157.27 360.676 156.223 L 360.676 152.673 C 360.676 151.626 360.489 150.84 360.116 150.313 C 359.736 149.786 359.183 149.523 358.456 149.523 C 357.743 149.523 357.196 149.786 356.816 150.313 C 356.443 150.84 356.256 151.626 356.256 152.673 L 356.256 156.223 C 356.256 157.263 356.446 158.05 356.826 158.583 C 357.213 159.123 357.763 159.393 358.476 159.393 Z" transform="matrix(1, 0, 0, 1, 0, 0)" style="fill: rgb(255, 255, 255); white-space: pre;"/>
  </g>
  <path d="M 83.663 47.08 H 121.419 L 121.419 39.005 L 136.289 49.772 L 121.419 60.539 L 121.419 52.463 H 83.663 V 47.08 Z" style="fill: rgb(216, 216, 216);" transform="matrix(0.999997, 0.002266, -0.002266, 0.999997, 51.452236, 89.257759)" bx:shape="arrow 83.663 39.005 52.626 21.534 5.383 14.87 0 1@6efbf687"/>
  <g transform="matrix(1, 0, 0, 1, 143.943649, 0.331568)">
    <path d="M 62.066 204.169 C 78.5 191.022 81.418 164.097 81.418 144.039 C 81.418 139.377 83.495 128.84 81.418 124.686 C 79.888 121.626 77.963 112.698 77.963 110.172" style="fill: rgb(216, 216, 216); fill-opacity: 0; stroke: rgb(255, 255, 255); stroke-width: 3px;" transform="matrix(-1, 0, 0, -1, 144.407112, 314.341003)"/>
    <path d="M 51.931 205.755 C 55.772 202.682 66.87 186.27 71.283 188.476 C 74.897 190.283 77.076 198.416 79.577 200.917" style="fill: rgb(216, 216, 216); fill-opacity: 0; stroke: rgb(255, 255, 255); stroke-width: 3px;" transform="matrix(-1, 0, 0, -1, 131.508003, 394.027756)"/>
    <path d="M -47.185 213.919 C -31.822 205.892 -29.095 189.453 -29.095 177.206 C -29.095 174.359 -27.153 167.926 -29.095 165.39 C -30.525 163.521 -32.324 158.07 -32.324 156.528" style="fill: rgb(216, 216, 216); fill-opacity: 0; stroke: rgb(255, 255, 255); stroke-width: 3px;" transform="matrix(0.951341, 0.308139, -0.308139, 0.951341, 55.23969, 20.632139)"/>
    <path d="M -41.121 174.97 C -37.28 171.897 -26.182 155.485 -21.769 157.691 C -18.155 159.498 -15.976 167.631 -13.475 170.132" style="fill: rgb(216, 216, 216); fill-opacity: 0; stroke: rgb(255, 255, 255); stroke-width: 3px;" transform="matrix(0.997811, -0.066135, 0.066135, 0.997811, -11.053307, -1.441425)"/>
  </g>
  <path d="M 291.156 199.911 C 290.036 199.911 289.029 199.704 288.136 199.291 C 287.249 198.884 286.556 198.278 286.056 197.471 C 285.556 196.664 285.319 195.664 285.346 194.471 L 285.366 194.381 L 287.806 194.381 C 287.806 195.461 288.116 196.301 288.736 196.901 C 289.363 197.501 290.169 197.801 291.156 197.801 C 292.296 197.801 293.179 197.401 293.806 196.601 C 294.433 195.801 294.746 194.701 294.746 193.301 C 294.746 192.021 294.429 190.971 293.796 190.151 C 293.163 189.338 292.286 188.931 291.166 188.931 C 290.106 188.931 289.339 189.091 288.866 189.411 C 288.386 189.731 288.036 190.218 287.816 190.871 L 285.576 190.641 L 286.726 179.711 L 297.236 179.711 L 297.236 183.651 L 295.216 183.651 L 294.956 182.111 L 289.006 182.111 L 288.366 187.701 C 288.639 187.488 288.936 187.301 289.256 187.141 C 289.569 186.988 289.916 186.858 290.296 186.751 C 290.676 186.651 291.089 186.598 291.536 186.591 C 292.756 186.584 293.809 186.851 294.696 187.391 C 295.576 187.931 296.253 188.704 296.726 189.711 C 297.206 190.724 297.446 191.914 297.446 193.281 C 297.446 194.608 297.206 195.768 296.726 196.761 C 296.246 197.754 295.539 198.528 294.606 199.081 C 293.673 199.634 292.523 199.911 291.156 199.911 Z" transform="matrix(1, 0, 0, 1, 0, 0)" style="fill: rgb(255, 255, 255); white-space: pre;"/>
  <path d="M 268.65 146.927 L 261.51 146.927 L 261.51 145.207 L 263.74 144.817 L 263.74 142.337 L 254.8 142.337 L 254.8 140.817 L 263.58 127.017 L 266.42 127.017 L 266.42 140.227 L 269.17 140.227 L 269.17 142.337 L 266.42 142.337 L 266.42 144.817 L 268.65 145.207 L 268.65 146.927 Z M 263.39 131.557 L 257.67 140.227 L 263.74 140.227 L 263.74 130.867 L 263.66 130.837 L 263.39 131.557 Z" transform="matrix(1, 0, 0, 1, 0, 0)" style="fill: rgb(255, 255, 255); white-space: pre;"/>
  <path d="M 235.573 95.258 C 234.36 95.258 233.28 95.035 232.333 94.588 C 231.38 94.148 230.636 93.521 230.103 92.708 C 229.57 91.888 229.32 90.918 229.353 89.798 L 229.393 89.718 L 231.963 89.718 C 231.963 90.418 232.106 91.025 232.393 91.538 C 232.686 92.045 233.103 92.441 233.643 92.728 C 234.183 93.008 234.826 93.148 235.573 93.148 C 236.713 93.148 237.606 92.838 238.253 92.218 C 238.9 91.598 239.223 90.681 239.223 89.468 C 239.223 88.241 238.936 87.335 238.363 86.748 C 237.783 86.168 236.873 85.878 235.633 85.878 L 233.283 85.878 L 233.283 83.768 L 235.633 83.768 C 236.426 83.768 237.066 83.635 237.553 83.368 C 238.033 83.101 238.38 82.715 238.593 82.208 C 238.813 81.701 238.923 81.091 238.923 80.378 C 238.923 79.238 238.64 78.371 238.073 77.778 C 237.506 77.191 236.673 76.898 235.573 76.898 C 234.866 76.898 234.253 77.035 233.733 77.308 C 233.213 77.588 232.81 77.981 232.523 78.488 C 232.236 78.995 232.093 79.588 232.093 80.268 L 229.513 80.268 L 229.483 80.188 C 229.456 79.188 229.696 78.278 230.203 77.458 C 230.71 76.638 231.426 75.985 232.353 75.498 C 233.273 75.018 234.346 74.778 235.573 74.778 C 237.413 74.778 238.88 75.268 239.973 76.248 C 241.066 77.228 241.613 78.625 241.613 80.438 C 241.613 81.258 241.363 82.075 240.863 82.888 C 240.37 83.701 239.626 84.325 238.633 84.758 C 239.826 85.145 240.67 85.758 241.163 86.598 C 241.663 87.438 241.913 88.378 241.913 89.418 C 241.913 90.631 241.643 91.671 241.103 92.538 C 240.556 93.411 239.806 94.081 238.853 94.548 C 237.893 95.021 236.8 95.258 235.573 95.258 Z" transform="matrix(1, 0, 0, 1, 0, 0)" style="fill: rgb(255, 255, 255); white-space: pre;"/>
  <path d="M 277.329 112.492 L 271.329 112.492 L 271.329 111.322 L 273.419 111.062 L 273.419 100.942 L 271.299 100.982 L 271.299 99.842 L 275.249 98.982 L 275.249 111.062 L 277.329 111.322 L 277.329 112.492 Z" transform="matrix(1, 0, 0, 1, 0, 0)" style="fill: rgb(255, 255, 255); white-space: pre;"/>
  <path d="M 234.35 56.78 L 229.81 56.78 L 229.81 55.35 L 234.35 55.35 L 234.35 56.78 ZM 245.424 61.77 L 236.674 61.77 L 236.674 60.52 L 241.104 55.6 C 241.624 55.013 242.034 54.51 242.334 54.09 C 242.627 53.677 242.834 53.3 242.954 52.96 C 243.074 52.62 243.134 52.267 243.134 51.9 C 243.134 51.227 242.927 50.66 242.514 50.2 C 242.107 49.74 241.524 49.51 240.764 49.51 C 239.971 49.51 239.354 49.747 238.914 50.22 C 238.474 50.693 238.254 51.367 238.254 52.24 L 236.494 52.24 L 236.484 52.19 C 236.464 51.41 236.627 50.71 236.974 50.09 C 237.321 49.463 237.821 48.97 238.474 48.61 C 239.134 48.25 239.921 48.07 240.834 48.07 C 241.687 48.07 242.421 48.23 243.034 48.55 C 243.647 48.877 244.121 49.323 244.454 49.89 C 244.787 50.45 244.954 51.093 244.954 51.82 C 244.954 52.32 244.857 52.813 244.664 53.3 C 244.471 53.787 244.187 54.287 243.814 54.8 C 243.441 55.313 242.991 55.857 242.464 56.43 L 238.914 60.29 L 238.924 60.34 L 243.724 60.34 L 243.874 58.79 L 245.424 58.79 L 245.424 61.77 Z" transform="matrix(1, 0, 0, 1, 0, 0)" style="fill: rgb(255, 255, 255); white-space: pre;"/>
  <line style="stroke-width: 7px; stroke: rgb(255, 255, 255);" x1="57.34" y1="91.197" x2="94.082" y2="146.576" transform="matrix(-1, 0, 0, -1, 151.421997, 237.77301)"/>
  <circle style="fill: rgb(93, 98, 234);" cx="315.338" cy="87.201" r="19.168" transform="matrix(-0.907245, 0, 0, 0.913313, 346.11377, 10.272561)"/>
  <circle style="fill: rgb(93, 98, 234);" cx="284.013" cy="143.586" r="19.168" transform="matrix(-0.907245, 0, 0, 0.913313, 346.11377, 10.272561)"/>
  <circle style="fill: rgb(93, 98, 234);" cx="253.583" cy="199.076" r="19.168" transform="matrix(-0.907245, 0, 0, 0.913313, 289.086182, 14.178559)"/>
  <path d="M 53.812 170.317 C 52.625 170.317 51.685 169.907 50.992 169.087 C 50.299 168.26 49.952 167.077 49.952 165.537 L 49.952 162.677 C 49.952 161.137 50.295 159.954 50.982 159.127 C 51.669 158.3 52.605 157.887 53.792 157.887 C 54.979 157.887 55.919 158.3 56.612 159.127 C 57.305 159.954 57.652 161.137 57.652 162.677 L 57.652 165.537 C 57.652 167.084 57.309 168.267 56.622 169.087 C 55.935 169.907 54.999 170.317 53.812 170.317 Z M 53.812 169.047 C 54.532 169.047 55.079 168.78 55.452 168.247 C 55.825 167.714 56.012 166.924 56.012 165.877 L 56.012 162.327 C 56.012 161.28 55.825 160.494 55.452 159.967 C 55.072 159.44 54.519 159.177 53.792 159.177 C 53.079 159.177 52.532 159.44 52.152 159.967 C 51.779 160.494 51.592 161.28 51.592 162.327 L 51.592 165.877 C 51.592 166.917 51.782 167.704 52.162 168.237 C 52.549 168.777 53.099 169.047 53.812 169.047 Z" transform="matrix(1, 0, 0, 1, 0, 0)" style="fill: rgb(255, 255, 255); white-space: pre;"/>
  <path d="M 64.302 205.329 L 57.162 205.329 L 57.162 203.609 L 59.392 203.219 L 59.392 200.739 L 50.452 200.739 L 50.452 199.219 L 59.232 185.419 L 62.072 185.419 L 62.072 198.629 L 64.822 198.629 L 64.822 200.739 L 62.072 200.739 L 62.072 203.219 L 64.302 203.609 L 64.302 205.329 Z M 59.042 189.959 L 53.322 198.629 L 59.392 198.629 L 59.392 189.269 L 59.312 189.239 L 59.042 189.959 Z" transform="matrix(1, 0, 0, 1, 0, 0)" style="fill: rgb(255, 255, 255); white-space: pre;"/>
  <path d="M 88.738 151.912 C 87.618 151.912 86.611 151.705 85.718 151.292 C 84.831 150.885 84.138 150.279 83.638 149.472 C 83.138 148.665 82.901 147.665 82.928 146.472 L 82.948 146.382 L 85.388 146.382 C 85.388 147.462 85.698 148.302 86.318 148.902 C 86.945 149.502 87.751 149.802 88.738 149.802 C 89.878 149.802 90.761 149.402 91.388 148.602 C 92.015 147.802 92.328 146.702 92.328 145.302 C 92.328 144.022 92.011 142.972 91.378 142.152 C 90.745 141.339 89.868 140.932 88.748 140.932 C 87.688 140.932 86.921 141.092 86.448 141.412 C 85.968 141.732 85.618 142.219 85.398 142.872 L 83.158 142.642 L 84.308 131.712 L 94.818 131.712 L 94.818 135.652 L 92.798 135.652 L 92.538 134.112 L 86.588 134.112 L 85.948 139.702 C 86.221 139.489 86.518 139.302 86.838 139.142 C 87.151 138.989 87.498 138.859 87.878 138.752 C 88.258 138.652 88.671 138.599 89.118 138.592 C 90.338 138.585 91.391 138.852 92.278 139.392 C 93.158 139.932 93.835 140.705 94.308 141.712 C 94.788 142.725 95.028 143.915 95.028 145.282 C 95.028 146.609 94.788 147.769 94.308 148.762 C 93.828 149.755 93.121 150.529 92.188 151.082 C 91.255 151.635 90.105 151.912 88.738 151.912 Z" transform="matrix(1, 0, 0, 1, 0, 0)" style="fill: rgb(255, 255, 255); white-space: pre;"/>
  <path d="M 59.554 98.747 C 58.341 98.747 57.261 98.524 56.314 98.077 C 55.361 97.637 54.617 97.01 54.084 96.197 C 53.551 95.377 53.301 94.407 53.334 93.287 L 53.374 93.207 L 55.944 93.207 C 55.944 93.907 56.087 94.514 56.374 95.027 C 56.667 95.534 57.084 95.93 57.624 96.217 C 58.164 96.497 58.807 96.637 59.554 96.637 C 60.694 96.637 61.587 96.327 62.234 95.707 C 62.881 95.087 63.204 94.17 63.204 92.957 C 63.204 91.73 62.917 90.824 62.344 90.237 C 61.764 89.657 60.854 89.367 59.614 89.367 L 57.264 89.367 L 57.264 87.257 L 59.614 87.257 C 60.407 87.257 61.047 87.124 61.534 86.857 C 62.014 86.59 62.361 86.204 62.574 85.697 C 62.794 85.19 62.904 84.58 62.904 83.867 C 62.904 82.727 62.621 81.86 62.054 81.267 C 61.487 80.68 60.654 80.387 59.554 80.387 C 58.847 80.387 58.234 80.524 57.714 80.797 C 57.194 81.077 56.791 81.47 56.504 81.977 C 56.217 82.484 56.074 83.077 56.074 83.757 L 53.494 83.757 L 53.464 83.677 C 53.437 82.677 53.677 81.767 54.184 80.947 C 54.691 80.127 55.407 79.474 56.334 78.987 C 57.254 78.507 58.327 78.267 59.554 78.267 C 61.394 78.267 62.861 78.757 63.954 79.737 C 65.047 80.717 65.594 82.114 65.594 83.927 C 65.594 84.747 65.344 85.564 64.844 86.377 C 64.351 87.19 63.607 87.814 62.614 88.247 C 63.807 88.634 64.651 89.247 65.144 90.087 C 65.644 90.927 65.894 91.867 65.894 92.907 C 65.894 94.12 65.624 95.16 65.084 96.027 C 64.537 96.9 63.787 97.57 62.834 98.037 C 61.874 98.51 60.781 98.747 59.554 98.747 Z" transform="matrix(1, 0, 0, 1, 0, 0)" style="fill: rgb(255, 255, 255); white-space: pre;"/>
  <path d="M 94.415 118.157 L 89.045 118.157 L 89.045 117.107 L 90.915 116.877 L 90.915 107.827 L 89.015 107.857 L 89.015 106.837 L 92.555 106.067 L 92.555 116.877 L 94.415 117.107 L 94.415 118.157 Z" transform="matrix(1, 0, 0, 1, 0, 0)" style="fill: rgb(255, 255, 255); white-space: pre;"/>
  <path d="M 51.097 60.096 L 47.037 60.096 L 47.037 58.826 L 51.097 58.826 L 51.097 60.096 ZM 61.003 64.566 L 53.183 64.566 L 53.183 63.446 L 57.133 59.046 C 57.606 58.519 57.976 58.069 58.243 57.696 C 58.509 57.323 58.693 56.983 58.793 56.676 C 58.899 56.376 58.953 56.063 58.953 55.736 C 58.953 55.129 58.769 54.619 58.403 54.206 C 58.043 53.799 57.523 53.596 56.843 53.596 C 56.129 53.596 55.576 53.809 55.183 54.236 C 54.789 54.656 54.593 55.259 54.593 56.046 L 53.023 56.046 L 53.003 55.996 C 52.989 55.296 53.136 54.669 53.443 54.116 C 53.756 53.556 54.206 53.116 54.793 52.796 C 55.379 52.469 56.079 52.306 56.893 52.306 C 57.659 52.306 58.319 52.453 58.873 52.746 C 59.419 53.033 59.843 53.429 60.143 53.936 C 60.443 54.436 60.593 55.013 60.593 55.666 C 60.593 56.113 60.506 56.553 60.333 56.986 C 60.153 57.426 59.896 57.876 59.563 58.336 C 59.229 58.796 58.826 59.279 58.353 59.786 L 55.183 63.246 L 55.193 63.286 L 59.483 63.286 L 59.623 61.906 L 61.003 61.906 L 61.003 64.566 Z" transform="matrix(1, 0, 0, 1, 0, 0)" style="fill: rgb(255, 255, 255); white-space: pre;"/>
  <path d="M 83.663 47.08 H 121.419 L 121.419 39.005 L 136.289 49.772 L 121.419 60.539 L 121.419 52.463 H 83.663 V 47.08 Z" style="fill: rgb(216, 216, 216);" transform="matrix(0.999997, 0.002266, -0.002266, 0.999997, 236.97998, 71.039047)" bx:shape="arrow 83.663 39.005 52.626 21.534 5.383 14.87 0 1@6efbf687"/>
  <path d="M 50.749 247.969 L 46.359 247.969 L 46.359 246.909 L 47.729 246.679 L 47.729 237.039 L 46.359 236.809 L 46.359 235.749 L 51.809 235.749 C 52.702 235.749 53.456 235.882 54.069 236.149 C 54.682 236.416 55.146 236.799 55.459 237.299 C 55.779 237.806 55.939 238.422 55.939 239.149 C 55.939 239.869 55.786 240.472 55.479 240.959 C 55.166 241.446 54.722 241.812 54.149 242.059 C 53.582 242.312 52.906 242.446 52.119 242.459 L 49.379 242.509 L 49.379 246.679 L 50.749 246.909 L 50.749 247.969 Z M 56.469 247.969 L 54.429 247.969 L 51.709 241.859 L 53.359 241.849 L 55.619 246.739 L 56.469 246.889 L 56.469 247.969 Z M 49.379 237.039 L 49.379 241.209 L 51.639 241.209 C 52.566 241.209 53.239 241.032 53.659 240.679 C 54.079 240.326 54.289 239.809 54.289 239.129 C 54.289 238.489 54.086 237.982 53.679 237.609 C 53.279 237.229 52.656 237.039 51.809 237.039 L 49.379 237.039 ZM 62.381 247.969 L 57.991 247.969 L 57.991 246.909 L 59.361 246.679 L 59.361 237.039 L 57.991 236.809 L 57.991 235.749 L 63.441 235.749 C 64.334 235.749 65.088 235.882 65.701 236.149 C 66.314 236.416 66.778 236.799 67.091 237.299 C 67.411 237.806 67.571 238.422 67.571 239.149 C 67.571 239.869 67.418 240.472 67.111 240.959 C 66.798 241.446 66.354 241.812 65.781 242.059 C 65.214 242.312 64.538 242.446 63.751 242.459 L 61.011 242.509 L 61.011 246.679 L 62.381 246.909 L 62.381 247.969 Z M 68.101 247.969 L 66.061 247.969 L 63.341 241.859 L 64.991 241.849 L 67.251 246.739 L 68.101 246.889 L 68.101 247.969 Z M 61.011 237.039 L 61.011 241.209 L 63.271 241.209 C 64.198 241.209 64.871 241.032 65.291 240.679 C 65.711 240.326 65.921 239.809 65.921 239.129 C 65.921 238.489 65.718 237.982 65.311 237.609 C 64.911 237.229 64.288 237.039 63.441 237.039 L 61.011 237.039 ZM 78.287 247.969 L 73.897 247.969 L 73.897 246.909 L 75.267 246.679 L 75.267 237.039 L 73.897 236.809 L 73.897 235.749 L 79.347 235.749 C 80.241 235.749 80.994 235.882 81.607 236.149 C 82.221 236.416 82.684 236.799 82.997 237.299 C 83.317 237.806 83.477 238.422 83.477 239.149 C 83.477 239.869 83.324 240.472 83.017 240.959 C 82.704 241.446 82.261 241.812 81.687 242.059 C 81.121 242.312 80.444 242.446 79.657 242.459 L 76.917 242.509 L 76.917 246.679 L 78.287 246.909 L 78.287 247.969 Z M 84.007 247.969 L 81.967 247.969 L 79.247 241.859 L 80.897 241.849 L 83.157 246.739 L 84.007 246.889 L 84.007 247.969 Z M 76.917 237.039 L 76.917 241.209 L 79.177 241.209 C 80.104 241.209 80.777 241.032 81.197 240.679 C 81.617 240.326 81.827 239.809 81.827 239.129 C 81.827 238.489 81.624 237.982 81.217 237.609 C 80.817 237.229 80.194 237.039 79.347 237.039 L 76.917 237.039 ZM 89.579 248.149 C 88.739 248.149 88.016 247.949 87.409 247.549 C 86.803 247.156 86.333 246.612 85.999 245.919 C 85.673 245.219 85.509 244.422 85.509 243.529 L 85.509 243.339 C 85.509 242.446 85.673 241.649 85.999 240.949 C 86.333 240.256 86.803 239.709 87.409 239.309 C 88.016 238.909 88.733 238.709 89.559 238.709 C 90.399 238.709 91.123 238.909 91.729 239.309 C 92.336 239.709 92.806 240.256 93.139 240.949 C 93.466 241.642 93.629 242.439 93.629 243.339 L 93.629 243.529 C 93.629 244.429 93.466 245.226 93.139 245.919 C 92.806 246.619 92.339 247.166 91.739 247.559 C 91.133 247.952 90.413 248.149 89.579 248.149 Z M 89.579 246.849 C 90.106 246.849 90.546 246.706 90.899 246.419 C 91.253 246.132 91.523 245.739 91.709 245.239 C 91.889 244.732 91.979 244.162 91.979 243.529 L 91.979 243.339 C 91.979 242.706 91.889 242.136 91.709 241.629 C 91.523 241.129 91.253 240.736 90.899 240.449 C 90.539 240.162 90.093 240.019 89.559 240.019 C 89.033 240.019 88.589 240.162 88.229 240.449 C 87.876 240.736 87.609 241.129 87.429 241.629 C 87.249 242.136 87.159 242.706 87.159 243.339 L 87.159 243.529 C 87.159 244.162 87.249 244.732 87.429 245.239 C 87.609 245.739 87.879 246.132 88.239 246.419 C 88.599 246.706 89.046 246.849 89.579 246.849 ZM 98.119 248.109 C 97.446 248.109 96.912 247.912 96.519 247.519 C 96.126 247.126 95.929 246.496 95.929 245.629 L 95.929 240.109 L 94.489 240.109 L 94.489 238.879 L 95.929 238.879 L 95.929 236.689 L 97.579 236.689 L 97.579 238.879 L 99.559 238.879 L 99.559 240.109 L 97.579 240.109 L 97.579 245.629 C 97.579 246.062 97.666 246.382 97.839 246.589 C 98.012 246.796 98.246 246.899 98.539 246.899 C 98.732 246.899 98.949 246.882 99.189 246.849 C 99.436 246.809 99.626 246.776 99.759 246.749 L 99.979 247.839 C 99.739 247.906 99.446 247.969 99.099 248.029 C 98.746 248.082 98.419 248.109 98.119 248.109 ZM 103.98 248.149 C 103.033 248.149 102.313 247.916 101.82 247.449 C 101.327 246.989 101.08 246.339 101.08 245.499 C 101.08 244.926 101.24 244.422 101.56 243.989 C 101.873 243.562 102.33 243.229 102.93 242.989 C 103.53 242.756 104.247 242.639 105.08 242.639 L 106.7 242.639 L 106.7 241.749 C 106.7 241.196 106.533 240.769 106.2 240.469 C 105.867 240.169 105.4 240.019 104.8 240.019 C 104.413 240.019 104.08 240.066 103.8 240.159 C 103.52 240.246 103.267 240.372 103.04 240.539 L 102.86 241.809 L 101.59 241.809 L 101.59 239.719 C 101.997 239.392 102.473 239.142 103.02 238.969 C 103.56 238.796 104.16 238.709 104.82 238.709 C 105.927 238.709 106.793 238.972 107.42 239.499 C 108.047 240.026 108.36 240.779 108.36 241.759 L 108.36 246.139 C 108.36 246.259 108.36 246.372 108.36 246.479 C 108.36 246.592 108.367 246.706 108.38 246.819 L 109.26 246.909 L 109.26 247.969 L 106.89 247.969 C 106.837 247.722 106.797 247.502 106.77 247.309 C 106.743 247.109 106.723 246.912 106.71 246.719 C 106.39 247.126 105.99 247.466 105.51 247.739 C 105.037 248.012 104.527 248.149 103.98 248.149 Z M 104.22 246.759 C 104.773 246.759 105.277 246.629 105.73 246.369 C 106.183 246.102 106.507 245.786 106.7 245.419 L 106.7 243.769 L 105.02 243.769 C 104.26 243.769 103.69 243.952 103.31 244.319 C 102.93 244.679 102.74 245.082 102.74 245.529 C 102.74 245.929 102.863 246.236 103.11 246.449 C 103.357 246.656 103.727 246.759 104.22 246.759 ZM 113.757 248.109 C 113.084 248.109 112.55 247.912 112.157 247.519 C 111.764 247.126 111.567 246.496 111.567 245.629 L 111.567 240.109 L 110.127 240.109 L 110.127 238.879 L 111.567 238.879 L 111.567 236.689 L 113.217 236.689 L 113.217 238.879 L 115.197 238.879 L 115.197 240.109 L 113.217 240.109 L 113.217 245.629 C 113.217 246.062 113.304 246.382 113.477 246.589 C 113.65 246.796 113.884 246.899 114.177 246.899 C 114.37 246.899 114.587 246.882 114.827 246.849 C 115.074 246.809 115.264 246.776 115.397 246.749 L 115.617 247.839 C 115.377 247.906 115.084 247.969 114.737 248.029 C 114.384 248.082 114.057 248.109 113.757 248.109 ZM 121.018 247.969 L 116.618 247.969 L 116.618 246.909 L 117.988 246.679 L 117.988 240.179 L 116.618 239.949 L 116.618 238.879 L 119.648 238.879 L 119.648 246.679 L 121.018 246.909 L 121.018 247.969 Z M 119.648 236.639 L 117.908 236.639 L 117.908 234.869 L 119.648 234.869 L 119.648 236.639 ZM 126.264 248.149 C 125.424 248.149 124.7 247.949 124.094 247.549 C 123.487 247.156 123.017 246.612 122.684 245.919 C 122.357 245.219 122.194 244.422 122.194 243.529 L 122.194 243.339 C 122.194 242.446 122.357 241.649 122.684 240.949 C 123.017 240.256 123.487 239.709 124.094 239.309 C 124.7 238.909 125.417 238.709 126.244 238.709 C 127.084 238.709 127.807 238.909 128.414 239.309 C 129.02 239.709 129.49 240.256 129.824 240.949 C 130.15 241.642 130.314 242.439 130.314 243.339 L 130.314 243.529 C 130.314 244.429 130.15 245.226 129.824 245.919 C 129.49 246.619 129.024 247.166 128.424 247.559 C 127.817 247.952 127.097 248.149 126.264 248.149 Z M 126.264 246.849 C 126.79 246.849 127.23 246.706 127.584 246.419 C 127.937 246.132 128.207 245.739 128.394 245.239 C 128.574 244.732 128.664 244.162 128.664 243.529 L 128.664 243.339 C 128.664 242.706 128.574 242.136 128.394 241.629 C 128.207 241.129 127.937 240.736 127.584 240.449 C 127.224 240.162 126.777 240.019 126.244 240.019 C 125.717 240.019 125.274 240.162 124.914 240.449 C 124.56 240.736 124.294 241.129 124.114 241.629 C 123.934 242.136 123.844 242.706 123.844 243.339 L 123.844 243.529 C 123.844 244.162 123.934 244.732 124.114 245.239 C 124.294 245.739 124.564 246.132 124.924 246.419 C 125.284 246.706 125.73 246.849 126.264 246.849 ZM 135.983 247.969 L 131.593 247.969 L 131.593 246.909 L 132.963 246.679 L 132.963 240.179 L 131.593 239.949 L 131.593 238.879 L 134.443 238.879 L 134.563 240.239 C 134.863 239.752 135.24 239.376 135.693 239.109 C 136.153 238.842 136.673 238.709 137.253 238.709 C 138.233 238.709 138.993 238.999 139.533 239.579 C 140.067 240.152 140.333 241.036 140.333 242.229 L 140.333 246.679 L 141.703 246.909 L 141.703 247.969 L 137.313 247.969 L 137.313 246.909 L 138.683 246.679 L 138.683 242.269 C 138.683 241.469 138.527 240.899 138.213 240.559 C 137.893 240.226 137.41 240.059 136.763 240.059 C 136.283 240.059 135.86 240.172 135.493 240.399 C 135.127 240.632 134.833 240.946 134.613 241.339 L 134.613 246.679 L 135.983 246.909 L 135.983 247.969 ZM 220.139 247.969 L 211.329 247.969 L 211.329 246.909 L 212.699 246.679 L 212.699 237.039 L 211.329 236.809 L 211.329 235.739 L 212.699 235.739 L 214.349 235.739 L 215.719 235.739 L 215.719 236.809 L 214.349 237.039 L 214.349 246.699 L 218.679 246.699 L 218.869 244.769 L 220.139 244.769 L 220.139 247.969 ZM 230.301 247.969 L 221.491 247.969 L 221.491 246.909 L 222.861 246.679 L 222.861 237.039 L 221.491 236.809 L 221.491 235.739 L 222.861 235.739 L 224.511 235.739 L 225.881 235.739 L 225.881 236.809 L 224.511 237.039 L 224.511 246.699 L 228.841 246.699 L 229.031 244.769 L 230.301 244.769 L 230.301 247.969 ZM 240.318 247.969 L 235.928 247.969 L 235.928 246.909 L 237.298 246.679 L 237.298 237.039 L 235.928 236.809 L 235.928 235.749 L 241.378 235.749 C 242.272 235.749 243.025 235.882 243.638 236.149 C 244.252 236.416 244.715 236.799 245.028 237.299 C 245.348 237.806 245.508 238.422 245.508 239.149 C 245.508 239.869 245.355 240.472 245.048 240.959 C 244.735 241.446 244.292 241.812 243.718 242.059 C 243.152 242.312 242.475 242.446 241.688 242.459 L 238.948 242.509 L 238.948 246.679 L 240.318 246.909 L 240.318 247.969 Z M 246.038 247.969 L 243.998 247.969 L 241.278 241.859 L 242.928 241.849 L 245.188 246.739 L 246.038 246.889 L 246.038 247.969 Z M 238.948 237.039 L 238.948 241.209 L 241.208 241.209 C 242.135 241.209 242.808 241.032 243.228 240.679 C 243.648 240.326 243.858 239.809 243.858 239.129 C 243.858 238.489 243.655 237.982 243.248 237.609 C 242.848 237.229 242.225 237.039 241.378 237.039 L 238.948 237.039 ZM 251.61 248.149 C 250.77 248.149 250.047 247.949 249.44 247.549 C 248.833 247.156 248.363 246.612 248.03 245.919 C 247.703 245.219 247.54 244.422 247.54 243.529 L 247.54 243.339 C 247.54 242.446 247.703 241.649 248.03 240.949 C 248.363 240.256 248.833 239.709 249.44 239.309 C 250.047 238.909 250.763 238.709 251.59 238.709 C 252.43 238.709 253.153 238.909 253.76 239.309 C 254.367 239.709 254.837 240.256 255.17 240.949 C 255.497 241.642 255.66 242.439 255.66 243.339 L 255.66 243.529 C 255.66 244.429 255.497 245.226 255.17 245.919 C 254.837 246.619 254.37 247.166 253.77 247.559 C 253.163 247.952 252.443 248.149 251.61 248.149 Z M 251.61 246.849 C 252.137 246.849 252.577 246.706 252.93 246.419 C 253.283 246.132 253.553 245.739 253.74 245.239 C 253.92 244.732 254.01 244.162 254.01 243.529 L 254.01 243.339 C 254.01 242.706 253.92 242.136 253.74 241.629 C 253.553 241.129 253.283 240.736 252.93 240.449 C 252.57 240.162 252.123 240.019 251.59 240.019 C 251.063 240.019 250.62 240.162 250.26 240.449 C 249.907 240.736 249.64 241.129 249.46 241.629 C 249.28 242.136 249.19 242.706 249.19 243.339 L 249.19 243.529 C 249.19 244.162 249.28 244.732 249.46 245.239 C 249.64 245.739 249.91 246.132 250.27 246.419 C 250.63 246.706 251.077 246.849 251.61 246.849 ZM 260.15 248.109 C 259.477 248.109 258.943 247.912 258.55 247.519 C 258.157 247.126 257.96 246.496 257.96 245.629 L 257.96 240.109 L 256.52 240.109 L 256.52 238.879 L 257.96 238.879 L 257.96 236.689 L 259.61 236.689 L 259.61 238.879 L 261.59 238.879 L 261.59 240.109 L 259.61 240.109 L 259.61 245.629 C 259.61 246.062 259.697 246.382 259.87 246.589 C 260.043 246.796 260.277 246.899 260.57 246.899 C 260.763 246.899 260.98 246.882 261.22 246.849 C 261.467 246.809 261.657 246.776 261.79 246.749 L 262.01 247.839 C 261.77 247.906 261.477 247.969 261.13 248.029 C 260.777 248.082 260.45 248.109 260.15 248.109 ZM 266.011 248.149 C 265.064 248.149 264.344 247.916 263.851 247.449 C 263.358 246.989 263.111 246.339 263.111 245.499 C 263.111 244.926 263.271 244.422 263.591 243.989 C 263.904 243.562 264.361 243.229 264.961 242.989 C 265.561 242.756 266.278 242.639 267.111 242.639 L 268.731 242.639 L 268.731 241.749 C 268.731 241.196 268.564 240.769 268.231 240.469 C 267.898 240.169 267.431 240.019 266.831 240.019 C 266.444 240.019 266.111 240.066 265.831 240.159 C 265.551 240.246 265.298 240.372 265.071 240.539 L 264.891 241.809 L 263.621 241.809 L 263.621 239.719 C 264.028 239.392 264.504 239.142 265.051 238.969 C 265.591 238.796 266.191 238.709 266.851 238.709 C 267.958 238.709 268.824 238.972 269.451 239.499 C 270.078 240.026 270.391 240.779 270.391 241.759 L 270.391 246.139 C 270.391 246.259 270.391 246.372 270.391 246.479 C 270.391 246.592 270.398 246.706 270.411 246.819 L 271.291 246.909 L 271.291 247.969 L 268.921 247.969 C 268.868 247.722 268.828 247.502 268.801 247.309 C 268.774 247.109 268.754 246.912 268.741 246.719 C 268.421 247.126 268.021 247.466 267.541 247.739 C 267.068 248.012 266.558 248.149 266.011 248.149 Z M 266.251 246.759 C 266.804 246.759 267.308 246.629 267.761 246.369 C 268.214 246.102 268.538 245.786 268.731 245.419 L 268.731 243.769 L 267.051 243.769 C 266.291 243.769 265.721 243.952 265.341 244.319 C 264.961 244.679 264.771 245.082 264.771 245.529 C 264.771 245.929 264.894 246.236 265.141 246.449 C 265.388 246.656 265.758 246.759 266.251 246.759 ZM 275.788 248.109 C 275.115 248.109 274.581 247.912 274.188 247.519 C 273.795 247.126 273.598 246.496 273.598 245.629 L 273.598 240.109 L 272.158 240.109 L 272.158 238.879 L 273.598 238.879 L 273.598 236.689 L 275.248 236.689 L 275.248 238.879 L 277.228 238.879 L 277.228 240.109 L 275.248 240.109 L 275.248 245.629 C 275.248 246.062 275.335 246.382 275.508 246.589 C 275.681 246.796 275.915 246.899 276.208 246.899 C 276.401 246.899 276.618 246.882 276.858 246.849 C 277.105 246.809 277.295 246.776 277.428 246.749 L 277.648 247.839 C 277.408 247.906 277.115 247.969 276.768 248.029 C 276.415 248.082 276.088 248.109 275.788 248.109 ZM 283.049 247.969 L 278.649 247.969 L 278.649 246.909 L 280.019 246.679 L 280.019 240.179 L 278.649 239.949 L 278.649 238.879 L 281.679 238.879 L 281.679 246.679 L 283.049 246.909 L 283.049 247.969 Z M 281.679 236.639 L 279.939 236.639 L 279.939 234.869 L 281.679 234.869 L 281.679 236.639 ZM 288.295 248.149 C 287.455 248.149 286.731 247.949 286.125 247.549 C 285.518 247.156 285.048 246.612 284.715 245.919 C 284.388 245.219 284.225 244.422 284.225 243.529 L 284.225 243.339 C 284.225 242.446 284.388 241.649 284.715 240.949 C 285.048 240.256 285.518 239.709 286.125 239.309 C 286.731 238.909 287.448 238.709 288.275 238.709 C 289.115 238.709 289.838 238.909 290.445 239.309 C 291.051 239.709 291.521 240.256 291.855 240.949 C 292.181 241.642 292.345 242.439 292.345 243.339 L 292.345 243.529 C 292.345 244.429 292.181 245.226 291.855 245.919 C 291.521 246.619 291.055 247.166 290.455 247.559 C 289.848 247.952 289.128 248.149 288.295 248.149 Z M 288.295 246.849 C 288.821 246.849 289.261 246.706 289.615 246.419 C 289.968 246.132 290.238 245.739 290.425 245.239 C 290.605 244.732 290.695 244.162 290.695 243.529 L 290.695 243.339 C 290.695 242.706 290.605 242.136 290.425 241.629 C 290.238 241.129 289.968 240.736 289.615 240.449 C 289.255 240.162 288.808 240.019 288.275 240.019 C 287.748 240.019 287.305 240.162 286.945 240.449 C 286.591 240.736 286.325 241.129 286.145 241.629 C 285.965 242.136 285.875 242.706 285.875 243.339 L 285.875 243.529 C 285.875 244.162 285.965 244.732 286.145 245.239 C 286.325 245.739 286.595 246.132 286.955 246.419 C 287.315 246.706 287.761 246.849 288.295 246.849 ZM 298.014 247.969 L 293.624 247.969 L 293.624 246.909 L 294.994 246.679 L 294.994 240.179 L 293.624 239.949 L 293.624 238.879 L 296.474 238.879 L 296.594 240.239 C 296.894 239.752 297.271 239.376 297.724 239.109 C 298.184 238.842 298.704 238.709 299.284 238.709 C 300.264 238.709 301.024 238.999 301.564 239.579 C 302.098 240.152 302.364 241.036 302.364 242.229 L 302.364 246.679 L 303.734 246.909 L 303.734 247.969 L 299.344 247.969 L 299.344 246.909 L 300.714 246.679 L 300.714 242.269 C 300.714 241.469 300.558 240.899 300.244 240.559 C 299.924 240.226 299.441 240.059 298.794 240.059 C 298.314 240.059 297.891 240.172 297.524 240.399 C 297.158 240.632 296.864 240.946 296.644 241.339 L 296.644 246.679 L 298.014 246.909 L 298.014 247.969 Z" transform="matrix(1, 0, 0, 1, 0, 0)" style="fill: rgb(255, 255, 255); white-space: pre;"/>
</svg>