<?xml version="1.0" encoding="utf-8"?>
<svg viewBox="0 0 500 270" xmlns="http://www.w3.org/2000/svg" xmlns:bx="https://boxy-svg.com">
  <rect x="-0.987" y="-1.996" width="505.843" height="270.254" style=""/>
  <g transform="matrix(1, 0, 0, 1, 273.006439, 24.881599)">
    <line style="stroke-width: 7px; stroke: rgb(255, 255, 255);" x1="111.724" y1="110.187" x2="139.332" y2="157.597" transform="matrix(-1, 0, 0, -1, 251.056, 267.783997)"/>
    <line style="stroke-width: 7px; stroke: rgb(255, 255, 255);" x1="70.824" y1="161.492" x2="98.432" y2="114.082"/>
    <circle style="fill: rgb(93, 98, 234);" cx="179.298" cy="89.886" r="19.168" transform="matrix(0.907245, 0, 0, 0.913313, -57.992783, 17.071688)"/>
    <circle style="fill: rgb(93, 98, 234);" cx="147.973" cy="145.376" r="19.168" transform="matrix(0.907245, 0, 0, 0.913313, -65.134087, 32.003494)"/>
    <circle style="fill: rgb(93, 98, 234);" cx="480.018" cy="83.621" r="19.168" transform="matrix(0.907245, 0, 0, 0.913313, -289.760376, 88.484673)"/>
    <path d="M 109.11 108.356 L 102.64 108.356 L 102.64 106.796 L 104.66 106.446 L 104.66 104.186 L 96.55 104.186 L 96.55 102.816 L 104.51 90.296 L 107.09 90.296 L 107.09 102.276 L 109.59 102.276 L 109.59 104.186 L 107.09 104.186 L 107.09 106.446 L 109.11 106.796 L 109.11 108.356 Z M 104.34 94.416 L 99.16 102.276 L 104.66 102.276 L 104.66 93.786 L 104.59 93.756 L 104.34 94.416 Z" transform="matrix(1, 0, 0, 1, 0, 0)" style="fill: rgb(255, 255, 255); white-space: pre;"/>
    <path d="M 143.984 174.055 C 142.971 174.055 142.061 173.868 141.254 173.495 C 140.447 173.122 139.817 172.572 139.364 171.845 C 138.911 171.112 138.694 170.202 138.714 169.115 L 138.744 169.045 L 140.954 169.045 C 140.954 170.018 141.237 170.778 141.804 171.325 C 142.364 171.872 143.091 172.145 143.984 172.145 C 145.017 172.145 145.821 171.782 146.394 171.055 C 146.967 170.328 147.254 169.332 147.254 168.065 C 147.254 166.898 146.964 165.945 146.384 165.205 C 145.811 164.465 145.017 164.095 144.004 164.095 C 143.044 164.095 142.347 164.242 141.914 164.535 C 141.481 164.822 141.164 165.262 140.964 165.855 L 138.924 165.645 L 139.974 155.735 L 149.504 155.735 L 149.504 159.305 L 147.674 159.305 L 147.434 157.905 L 142.044 157.905 L 141.454 162.985 C 141.707 162.792 141.977 162.622 142.264 162.475 C 142.551 162.335 142.867 162.218 143.214 162.125 C 143.554 162.032 143.927 161.982 144.334 161.975 C 145.441 161.968 146.397 162.212 147.204 162.705 C 148.004 163.192 148.617 163.892 149.044 164.805 C 149.477 165.718 149.694 166.798 149.694 168.045 C 149.694 169.252 149.477 170.305 149.044 171.205 C 148.611 172.105 147.971 172.805 147.124 173.305 C 146.271 173.805 145.224 174.055 143.984 174.055 Z" transform="matrix(1, 0, 0, 1, 0, 0)" style="fill: rgb(255, 255, 255); white-space: pre;"/>
    <path d="M 68.755 172.322 C 67.655 172.322 66.675 172.122 65.815 171.722 C 64.955 171.322 64.285 170.752 63.805 170.012 C 63.318 169.272 63.088 168.392 63.115 167.372 L 63.155 167.302 L 65.485 167.302 C 65.485 167.935 65.618 168.485 65.885 168.952 C 66.145 169.412 66.518 169.772 67.005 170.032 C 67.498 170.285 68.082 170.412 68.755 170.412 C 69.788 170.412 70.598 170.132 71.185 169.572 C 71.772 169.005 72.065 168.172 72.065 167.072 C 72.065 165.959 71.805 165.139 71.285 164.612 C 70.765 164.079 69.945 163.812 68.825 163.812 L 66.685 163.812 L 66.685 161.902 L 68.825 161.902 C 69.538 161.902 70.115 161.782 70.555 161.542 C 70.995 161.295 71.312 160.942 71.505 160.482 C 71.698 160.022 71.795 159.472 71.795 158.832 C 71.795 157.799 71.538 157.012 71.025 156.472 C 70.512 155.932 69.755 155.662 68.755 155.662 C 68.122 155.662 67.568 155.789 67.095 156.042 C 66.622 156.295 66.255 156.652 65.995 157.112 C 65.735 157.572 65.605 158.112 65.605 158.732 L 63.265 158.732 L 63.235 158.652 C 63.215 157.745 63.435 156.919 63.895 156.172 C 64.348 155.432 64.995 154.842 65.835 154.402 C 66.675 153.962 67.648 153.742 68.755 153.742 C 70.428 153.742 71.762 154.185 72.755 155.072 C 73.748 155.965 74.245 157.235 74.245 158.882 C 74.245 159.622 74.018 160.362 73.565 161.102 C 73.112 161.842 72.435 162.409 71.535 162.802 C 72.622 163.155 73.388 163.712 73.835 164.472 C 74.288 165.232 74.515 166.082 74.515 167.022 C 74.515 168.122 74.268 169.069 73.775 169.862 C 73.282 170.649 72.602 171.255 71.735 171.682 C 70.868 172.109 69.875 172.322 68.755 172.322 Z" transform="matrix(1, 0, 0, 1, 0, 0)" style="fill: rgb(255, 255, 255); white-space: pre;"/>
    <path d="M 64.679 141.502 C 63.492 141.502 62.552 141.092 61.859 140.272 C 61.166 139.445 60.819 138.262 60.819 136.722 L 60.819 133.862 C 60.819 132.322 61.162 131.139 61.849 130.312 C 62.536 129.485 63.472 129.072 64.659 129.072 C 65.846 129.072 66.786 129.485 67.479 130.312 C 68.172 131.139 68.519 132.322 68.519 133.862 L 68.519 136.722 C 68.519 138.269 68.176 139.452 67.489 140.272 C 66.802 141.092 65.866 141.502 64.679 141.502 Z M 64.679 140.232 C 65.399 140.232 65.946 139.965 66.319 139.432 C 66.692 138.899 66.879 138.109 66.879 137.062 L 66.879 133.512 C 66.879 132.465 66.692 131.679 66.319 131.152 C 65.939 130.625 65.386 130.362 64.659 130.362 C 63.946 130.362 63.399 130.625 63.019 131.152 C 62.646 131.679 62.459 132.465 62.459 133.512 L 62.459 137.062 C 62.459 138.102 62.649 138.889 63.029 139.422 C 63.416 139.962 63.966 140.232 64.679 140.232 Z" transform="matrix(1, 0, 0, 1, 0, 0)" style="fill: rgb(255, 255, 255); white-space: pre;"/>
    <path d="M 104.503 73.501 C 103.316 73.501 102.376 73.091 101.683 72.271 C 100.99 71.444 100.643 70.261 100.643 68.721 L 100.643 65.861 C 100.643 64.321 100.986 63.138 101.673 62.311 C 102.36 61.484 103.296 61.071 104.483 61.071 C 105.67 61.071 106.61 61.484 107.303 62.311 C 107.996 63.138 108.343 64.321 108.343 65.861 L 108.343 68.721 C 108.343 70.268 108 71.451 107.313 72.271 C 106.626 73.091 105.69 73.501 104.503 73.501 Z M 104.503 72.231 C 105.223 72.231 105.77 71.964 106.143 71.431 C 106.516 70.898 106.703 70.108 106.703 69.061 L 106.703 65.511 C 106.703 64.464 106.516 63.678 106.143 63.151 C 105.763 62.624 105.21 62.361 104.483 62.361 C 103.77 62.361 103.223 62.624 102.843 63.151 C 102.47 63.678 102.283 64.464 102.283 65.511 L 102.283 69.061 C 102.283 70.101 102.473 70.888 102.853 71.421 C 103.24 71.961 103.79 72.231 104.503 72.231 Z" transform="matrix(1, 0, 0, 1, 0, 0)" style="fill: rgb(255, 255, 255); white-space: pre;"/>
    <path d="M 147.333 143.005 C 146.146 143.005 145.206 142.595 144.513 141.775 C 143.82 140.948 143.473 139.765 143.473 138.225 L 143.473 135.365 C 143.473 133.825 143.816 132.642 144.503 131.815 C 145.19 130.988 146.126 130.575 147.313 130.575 C 148.5 130.575 149.44 130.988 150.133 131.815 C 150.826 132.642 151.173 133.825 151.173 135.365 L 151.173 138.225 C 151.173 139.772 150.83 140.955 150.143 141.775 C 149.456 142.595 148.52 143.005 147.333 143.005 Z M 147.333 141.735 C 148.053 141.735 148.6 141.468 148.973 140.935 C 149.346 140.402 149.533 139.612 149.533 138.565 L 149.533 135.015 C 149.533 133.968 149.346 133.182 148.973 132.655 C 148.593 132.128 148.04 131.865 147.313 131.865 C 146.6 131.865 146.053 132.128 145.673 132.655 C 145.3 133.182 145.113 133.968 145.113 135.015 L 145.113 138.565 C 145.113 139.605 145.303 140.392 145.683 140.925 C 146.07 141.465 146.62 141.735 147.333 141.735 Z" transform="matrix(1, 0, 0, 1, 0, 0)" style="fill: rgb(255, 255, 255); white-space: pre;"/>
  </g>
  <path d="M 104.78 36.831 C 103.94 36.831 103.19 36.664 102.53 36.331 C 101.87 36.004 101.35 35.534 100.97 34.921 C 100.59 34.308 100.4 33.571 100.4 32.711 L 100.4 25.721 L 99.03 25.491 L 99.03 24.421 L 103.42 24.421 L 103.42 25.491 L 102.05 25.721 L 102.05 32.711 C 102.05 33.324 102.167 33.838 102.4 34.251 C 102.633 34.664 102.957 34.974 103.37 35.181 C 103.783 35.394 104.263 35.501 104.81 35.501 C 105.357 35.501 105.84 35.398 106.26 35.191 C 106.687 34.984 107.017 34.674 107.25 34.261 C 107.49 33.841 107.61 33.324 107.61 32.711 L 107.61 25.721 L 106.24 25.491 L 106.24 24.421 L 110.63 24.421 L 110.63 25.491 L 109.27 25.721 L 109.27 32.711 C 109.27 33.598 109.083 34.348 108.71 34.961 C 108.337 35.574 107.813 36.038 107.14 36.351 C 106.467 36.671 105.68 36.831 104.78 36.831 ZM 116.233 36.651 L 111.843 36.651 L 111.843 35.591 L 113.213 35.361 L 113.213 28.861 L 111.843 28.631 L 111.843 27.561 L 114.693 27.561 L 114.813 28.921 C 115.113 28.434 115.489 28.058 115.943 27.791 C 116.403 27.524 116.923 27.391 117.503 27.391 C 118.483 27.391 119.243 27.681 119.783 28.261 C 120.316 28.834 120.583 29.718 120.583 30.911 L 120.583 35.361 L 121.953 35.591 L 121.953 36.651 L 117.563 36.651 L 117.563 35.591 L 118.933 35.361 L 118.933 30.951 C 118.933 30.151 118.776 29.581 118.463 29.241 C 118.143 28.908 117.659 28.741 117.013 28.741 C 116.533 28.741 116.109 28.854 115.743 29.081 C 115.376 29.314 115.083 29.628 114.863 30.021 L 114.863 35.361 L 116.233 35.591 L 116.233 36.651 ZM 127.952 36.831 C 127.358 36.831 126.845 36.718 126.412 36.491 C 125.972 36.264 125.605 35.928 125.312 35.481 L 125.162 36.651 L 123.732 36.651 L 123.732 24.851 L 122.372 24.621 L 122.372 23.551 L 125.392 23.551 L 125.392 28.641 C 125.678 28.234 126.032 27.924 126.452 27.711 C 126.878 27.498 127.372 27.391 127.932 27.391 C 128.685 27.391 129.325 27.594 129.852 28.001 C 130.385 28.408 130.792 28.978 131.072 29.711 C 131.352 30.444 131.492 31.298 131.492 32.271 L 131.492 32.451 C 131.492 33.324 131.352 34.088 131.072 34.741 C 130.792 35.401 130.385 35.914 129.852 36.281 C 129.325 36.648 128.692 36.831 127.952 36.831 Z M 127.532 35.481 C 128.312 35.481 128.888 35.204 129.262 34.651 C 129.642 34.098 129.832 33.364 129.832 32.451 L 129.832 32.271 C 129.832 31.571 129.748 30.958 129.582 30.431 C 129.415 29.904 129.162 29.491 128.822 29.191 C 128.475 28.891 128.038 28.741 127.512 28.741 C 127.005 28.741 126.575 28.864 126.222 29.111 C 125.875 29.358 125.598 29.688 125.392 30.101 L 125.392 34.111 C 125.598 34.531 125.878 34.864 126.232 35.111 C 126.592 35.358 127.025 35.481 127.532 35.481 ZM 135.678 36.831 C 134.731 36.831 134.011 36.598 133.518 36.131 C 133.025 35.671 132.778 35.021 132.778 34.181 C 132.778 33.608 132.938 33.104 133.258 32.671 C 133.571 32.244 134.028 31.911 134.628 31.671 C 135.228 31.438 135.945 31.321 136.778 31.321 L 138.398 31.321 L 138.398 30.431 C 138.398 29.878 138.231 29.451 137.898 29.151 C 137.565 28.851 137.098 28.701 136.498 28.701 C 136.111 28.701 135.778 28.748 135.498 28.841 C 135.218 28.928 134.965 29.054 134.738 29.221 L 134.558 30.491 L 133.288 30.491 L 133.288 28.401 C 133.695 28.074 134.171 27.824 134.718 27.651 C 135.258 27.478 135.858 27.391 136.518 27.391 C 137.625 27.391 138.491 27.654 139.118 28.181 C 139.745 28.708 140.058 29.461 140.058 30.441 L 140.058 34.821 C 140.058 34.941 140.058 35.054 140.058 35.161 C 140.058 35.274 140.065 35.388 140.078 35.501 L 140.958 35.591 L 140.958 36.651 L 138.588 36.651 C 138.535 36.404 138.495 36.184 138.468 35.991 C 138.441 35.791 138.421 35.594 138.408 35.401 C 138.088 35.808 137.688 36.148 137.208 36.421 C 136.735 36.694 136.225 36.831 135.678 36.831 Z M 135.918 35.441 C 136.471 35.441 136.975 35.311 137.428 35.051 C 137.881 34.784 138.205 34.468 138.398 34.101 L 138.398 32.451 L 136.718 32.451 C 135.958 32.451 135.388 32.634 135.008 33.001 C 134.628 33.361 134.438 33.764 134.438 34.211 C 134.438 34.611 134.561 34.918 134.808 35.131 C 135.055 35.338 135.425 35.441 135.918 35.441 ZM 146.555 36.651 L 142.165 36.651 L 142.165 35.591 L 143.535 35.361 L 143.535 24.851 L 142.165 24.621 L 142.165 23.551 L 145.185 23.551 L 145.185 35.361 L 146.555 35.591 L 146.555 36.651 ZM 150.669 36.831 C 149.722 36.831 149.002 36.598 148.509 36.131 C 148.016 35.671 147.769 35.021 147.769 34.181 C 147.769 33.608 147.929 33.104 148.249 32.671 C 148.562 32.244 149.019 31.911 149.619 31.671 C 150.219 31.438 150.936 31.321 151.769 31.321 L 153.389 31.321 L 153.389 30.431 C 153.389 29.878 153.222 29.451 152.889 29.151 C 152.556 28.851 152.089 28.701 151.489 28.701 C 151.102 28.701 150.769 28.748 150.489 28.841 C 150.209 28.928 149.956 29.054 149.729 29.221 L 149.549 30.491 L 148.279 30.491 L 148.279 28.401 C 148.686 28.074 149.162 27.824 149.709 27.651 C 150.249 27.478 150.849 27.391 151.509 27.391 C 152.616 27.391 153.482 27.654 154.109 28.181 C 154.736 28.708 155.049 29.461 155.049 30.441 L 155.049 34.821 C 155.049 34.941 155.049 35.054 155.049 35.161 C 155.049 35.274 155.056 35.388 155.069 35.501 L 155.949 35.591 L 155.949 36.651 L 153.579 36.651 C 153.526 36.404 153.486 36.184 153.459 35.991 C 153.432 35.791 153.412 35.594 153.399 35.401 C 153.079 35.808 152.679 36.148 152.199 36.421 C 151.726 36.694 151.216 36.831 150.669 36.831 Z M 150.909 35.441 C 151.462 35.441 151.966 35.311 152.419 35.051 C 152.872 34.784 153.196 34.468 153.389 34.101 L 153.389 32.451 L 151.709 32.451 C 150.949 32.451 150.379 32.634 149.999 33.001 C 149.619 33.361 149.429 33.764 149.429 34.211 C 149.429 34.611 149.552 34.918 149.799 35.131 C 150.046 35.338 150.416 35.441 150.909 35.441 ZM 161.626 36.651 L 157.236 36.651 L 157.236 35.591 L 158.606 35.361 L 158.606 28.861 L 157.236 28.631 L 157.236 27.561 L 160.086 27.561 L 160.206 28.921 C 160.506 28.434 160.883 28.058 161.336 27.791 C 161.796 27.524 162.316 27.391 162.896 27.391 C 163.876 27.391 164.636 27.681 165.176 28.261 C 165.709 28.834 165.976 29.718 165.976 30.911 L 165.976 35.361 L 167.346 35.591 L 167.346 36.651 L 162.956 36.651 L 162.956 35.591 L 164.326 35.361 L 164.326 30.951 C 164.326 30.151 164.169 29.581 163.856 29.241 C 163.536 28.908 163.053 28.741 162.406 28.741 C 161.926 28.741 161.503 28.854 161.136 29.081 C 160.769 29.314 160.476 29.628 160.256 30.021 L 160.256 35.361 L 161.626 35.591 L 161.626 36.651 ZM 172.541 36.831 C 171.715 36.831 170.998 36.638 170.391 36.251 C 169.778 35.871 169.305 35.338 168.971 34.651 C 168.638 33.971 168.471 33.181 168.471 32.281 L 168.471 31.931 C 168.471 31.071 168.631 30.298 168.951 29.611 C 169.278 28.931 169.745 28.391 170.351 27.991 C 170.965 27.591 171.695 27.391 172.541 27.391 C 173.275 27.391 173.918 27.514 174.471 27.761 C 175.018 28.001 175.481 28.331 175.861 28.751 L 175.901 30.931 L 174.601 30.931 L 174.321 29.341 C 174.128 29.148 173.888 28.991 173.601 28.871 C 173.321 28.758 172.988 28.701 172.601 28.701 C 172.108 28.701 171.675 28.844 171.301 29.131 C 170.928 29.424 170.638 29.814 170.431 30.301 C 170.225 30.788 170.121 31.331 170.121 31.931 L 170.121 32.281 C 170.121 32.941 170.218 33.514 170.411 34.001 C 170.605 34.494 170.881 34.871 171.241 35.131 C 171.601 35.398 172.031 35.531 172.531 35.531 C 173.091 35.531 173.555 35.378 173.921 35.071 C 174.295 34.764 174.521 34.341 174.601 33.801 L 176.091 33.801 L 176.111 33.851 C 176.085 34.371 175.931 34.858 175.651 35.311 C 175.371 35.764 174.971 36.131 174.451 36.411 C 173.931 36.691 173.295 36.831 172.541 36.831 ZM 181.742 36.831 C 180.902 36.831 180.172 36.638 179.552 36.251 C 178.932 35.871 178.452 35.338 178.112 34.651 C 177.772 33.971 177.602 33.181 177.602 32.281 L 177.602 31.911 C 177.602 31.051 177.779 30.281 178.132 29.601 C 178.492 28.921 178.966 28.384 179.552 27.991 C 180.146 27.591 180.792 27.391 181.492 27.391 C 182.312 27.391 182.996 27.561 183.542 27.901 C 184.096 28.234 184.512 28.704 184.792 29.311 C 185.072 29.924 185.212 30.641 185.212 31.461 L 185.212 32.491 L 179.312 32.491 L 179.292 32.531 C 179.306 33.118 179.409 33.634 179.602 34.081 C 179.796 34.534 180.072 34.891 180.432 35.151 C 180.799 35.404 181.236 35.531 181.742 35.531 C 182.302 35.531 182.796 35.451 183.222 35.291 C 183.642 35.131 184.006 34.911 184.312 34.631 L 184.962 35.711 C 184.636 36.024 184.206 36.288 183.672 36.501 C 183.139 36.721 182.496 36.831 181.742 36.831 Z M 179.352 31.161 L 179.372 31.201 L 183.562 31.201 L 183.562 30.981 C 183.562 30.548 183.486 30.158 183.332 29.811 C 183.172 29.464 182.942 29.191 182.642 28.991 C 182.336 28.798 181.952 28.701 181.492 28.701 C 181.126 28.701 180.789 28.808 180.482 29.021 C 180.182 29.234 179.932 29.528 179.732 29.901 C 179.539 30.268 179.412 30.688 179.352 31.161 ZM 190.402 36.831 C 189.662 36.831 189.029 36.648 188.502 36.281 C 187.969 35.914 187.562 35.401 187.282 34.741 C 187.009 34.088 186.872 33.324 186.872 32.451 L 186.872 32.271 C 186.872 31.298 187.009 30.444 187.282 29.711 C 187.562 28.978 187.969 28.408 188.502 28.001 C 189.035 27.594 189.675 27.391 190.422 27.391 C 190.955 27.391 191.429 27.491 191.842 27.691 C 192.255 27.891 192.609 28.178 192.902 28.551 L 192.902 24.851 L 191.532 24.621 L 191.532 23.551 L 192.902 23.551 L 194.552 23.551 L 194.552 35.361 L 195.922 35.591 L 195.922 36.651 L 193.112 36.651 L 192.982 35.571 C 192.682 35.984 192.319 36.298 191.892 36.511 C 191.465 36.724 190.969 36.831 190.402 36.831 Z M 190.822 35.481 C 191.315 35.481 191.729 35.371 192.062 35.151 C 192.402 34.924 192.682 34.608 192.902 34.201 L 192.902 29.981 C 192.689 29.601 192.409 29.298 192.062 29.071 C 191.722 28.851 191.315 28.741 190.842 28.741 C 190.315 28.741 189.882 28.891 189.542 29.191 C 189.195 29.491 188.939 29.904 188.772 30.431 C 188.605 30.958 188.522 31.571 188.522 32.271 L 188.522 32.451 C 188.522 33.364 188.709 34.098 189.082 34.651 C 189.455 35.204 190.035 35.481 190.822 35.481 ZM 352.539 36.651 L 346.739 36.651 L 346.739 35.591 L 348.109 35.361 L 348.109 25.721 L 346.739 25.491 L 346.739 24.421 L 348.109 24.421 L 352.009 24.421 C 353.289 24.421 354.289 24.698 355.009 25.251 C 355.729 25.804 356.089 26.631 356.089 27.731 C 356.089 28.278 355.916 28.764 355.569 29.191 C 355.223 29.618 354.769 29.934 354.209 30.141 C 354.703 30.241 355.123 30.438 355.469 30.731 C 355.823 31.024 356.096 31.384 356.289 31.811 C 356.483 32.231 356.579 32.694 356.579 33.201 C 356.579 34.321 356.216 35.174 355.489 35.761 C 354.763 36.354 353.779 36.651 352.539 36.651 Z M 349.759 30.911 L 349.759 35.361 L 352.539 35.361 C 353.293 35.361 353.876 35.174 354.289 34.801 C 354.709 34.428 354.919 33.901 354.919 33.221 C 354.919 32.734 354.843 32.321 354.689 31.981 C 354.536 31.641 354.299 31.378 353.979 31.191 C 353.666 31.004 353.269 30.911 352.789 30.911 L 349.759 30.911 Z M 349.759 25.721 L 349.759 29.621 L 352.439 29.621 C 353.033 29.621 353.513 29.448 353.879 29.101 C 354.246 28.761 354.429 28.294 354.429 27.701 C 354.429 27.041 354.223 26.544 353.809 26.211 C 353.396 25.884 352.796 25.721 352.009 25.721 L 349.759 25.721 ZM 360.722 36.831 C 359.775 36.831 359.055 36.598 358.562 36.131 C 358.069 35.671 357.822 35.021 357.822 34.181 C 357.822 33.608 357.982 33.104 358.302 32.671 C 358.615 32.244 359.072 31.911 359.672 31.671 C 360.272 31.438 360.989 31.321 361.822 31.321 L 363.442 31.321 L 363.442 30.431 C 363.442 29.878 363.275 29.451 362.942 29.151 C 362.609 28.851 362.142 28.701 361.542 28.701 C 361.155 28.701 360.822 28.748 360.542 28.841 C 360.262 28.928 360.009 29.054 359.782 29.221 L 359.602 30.491 L 358.332 30.491 L 358.332 28.401 C 358.739 28.074 359.215 27.824 359.762 27.651 C 360.302 27.478 360.902 27.391 361.562 27.391 C 362.669 27.391 363.535 27.654 364.162 28.181 C 364.789 28.708 365.102 29.461 365.102 30.441 L 365.102 34.821 C 365.102 34.941 365.102 35.054 365.102 35.161 C 365.102 35.274 365.109 35.388 365.122 35.501 L 366.002 35.591 L 366.002 36.651 L 363.632 36.651 C 363.579 36.404 363.539 36.184 363.512 35.991 C 363.485 35.791 363.465 35.594 363.452 35.401 C 363.132 35.808 362.732 36.148 362.252 36.421 C 361.779 36.694 361.269 36.831 360.722 36.831 Z M 360.962 35.441 C 361.515 35.441 362.019 35.311 362.472 35.051 C 362.925 34.784 363.249 34.468 363.442 34.101 L 363.442 32.451 L 361.762 32.451 C 361.002 32.451 360.432 32.634 360.052 33.001 C 359.672 33.361 359.482 33.764 359.482 34.211 C 359.482 34.611 359.605 34.918 359.852 35.131 C 360.099 35.338 360.469 35.441 360.962 35.441 ZM 371.599 36.651 L 367.209 36.651 L 367.209 35.591 L 368.579 35.361 L 368.579 24.851 L 367.209 24.621 L 367.209 23.551 L 370.229 23.551 L 370.229 35.361 L 371.599 35.591 L 371.599 36.651 ZM 375.713 36.831 C 374.766 36.831 374.046 36.598 373.553 36.131 C 373.06 35.671 372.813 35.021 372.813 34.181 C 372.813 33.608 372.973 33.104 373.293 32.671 C 373.606 32.244 374.063 31.911 374.663 31.671 C 375.263 31.438 375.98 31.321 376.813 31.321 L 378.433 31.321 L 378.433 30.431 C 378.433 29.878 378.266 29.451 377.933 29.151 C 377.6 28.851 377.133 28.701 376.533 28.701 C 376.146 28.701 375.813 28.748 375.533 28.841 C 375.253 28.928 375 29.054 374.773 29.221 L 374.593 30.491 L 373.323 30.491 L 373.323 28.401 C 373.73 28.074 374.206 27.824 374.753 27.651 C 375.293 27.478 375.893 27.391 376.553 27.391 C 377.66 27.391 378.526 27.654 379.153 28.181 C 379.78 28.708 380.093 29.461 380.093 30.441 L 380.093 34.821 C 380.093 34.941 380.093 35.054 380.093 35.161 C 380.093 35.274 380.1 35.388 380.113 35.501 L 380.993 35.591 L 380.993 36.651 L 378.623 36.651 C 378.57 36.404 378.53 36.184 378.503 35.991 C 378.476 35.791 378.456 35.594 378.443 35.401 C 378.123 35.808 377.723 36.148 377.243 36.421 C 376.77 36.694 376.26 36.831 375.713 36.831 Z M 375.953 35.441 C 376.506 35.441 377.01 35.311 377.463 35.051 C 377.916 34.784 378.24 34.468 378.433 34.101 L 378.433 32.451 L 376.753 32.451 C 375.993 32.451 375.423 32.634 375.043 33.001 C 374.663 33.361 374.473 33.764 374.473 34.211 C 374.473 34.611 374.596 34.918 374.843 35.131 C 375.09 35.338 375.46 35.441 375.953 35.441 ZM 386.67 36.651 L 382.28 36.651 L 382.28 35.591 L 383.65 35.361 L 383.65 28.861 L 382.28 28.631 L 382.28 27.561 L 385.13 27.561 L 385.25 28.921 C 385.55 28.434 385.927 28.058 386.38 27.791 C 386.84 27.524 387.36 27.391 387.94 27.391 C 388.92 27.391 389.68 27.681 390.22 28.261 C 390.753 28.834 391.02 29.718 391.02 30.911 L 391.02 35.361 L 392.39 35.591 L 392.39 36.651 L 388 36.651 L 388 35.591 L 389.37 35.361 L 389.37 30.951 C 389.37 30.151 389.213 29.581 388.9 29.241 C 388.58 28.908 388.097 28.741 387.45 28.741 C 386.97 28.741 386.547 28.854 386.18 29.081 C 385.813 29.314 385.52 29.628 385.3 30.021 L 385.3 35.361 L 386.67 35.591 L 386.67 36.651 ZM 397.585 36.831 C 396.759 36.831 396.042 36.638 395.435 36.251 C 394.822 35.871 394.349 35.338 394.015 34.651 C 393.682 33.971 393.515 33.181 393.515 32.281 L 393.515 31.931 C 393.515 31.071 393.675 30.298 393.995 29.611 C 394.322 28.931 394.789 28.391 395.395 27.991 C 396.009 27.591 396.739 27.391 397.585 27.391 C 398.319 27.391 398.962 27.514 399.515 27.761 C 400.062 28.001 400.525 28.331 400.905 28.751 L 400.945 30.931 L 399.645 30.931 L 399.365 29.341 C 399.172 29.148 398.932 28.991 398.645 28.871 C 398.365 28.758 398.032 28.701 397.645 28.701 C 397.152 28.701 396.719 28.844 396.345 29.131 C 395.972 29.424 395.682 29.814 395.475 30.301 C 395.269 30.788 395.165 31.331 395.165 31.931 L 395.165 32.281 C 395.165 32.941 395.262 33.514 395.455 34.001 C 395.649 34.494 395.925 34.871 396.285 35.131 C 396.645 35.398 397.075 35.531 397.575 35.531 C 398.135 35.531 398.599 35.378 398.965 35.071 C 399.339 34.764 399.565 34.341 399.645 33.801 L 401.135 33.801 L 401.155 33.851 C 401.129 34.371 400.975 34.858 400.695 35.311 C 400.415 35.764 400.015 36.131 399.495 36.411 C 398.975 36.691 398.339 36.831 397.585 36.831 ZM 406.786 36.831 C 405.946 36.831 405.216 36.638 404.596 36.251 C 403.976 35.871 403.496 35.338 403.156 34.651 C 402.816 33.971 402.646 33.181 402.646 32.281 L 402.646 31.911 C 402.646 31.051 402.823 30.281 403.176 29.601 C 403.536 28.921 404.01 28.384 404.596 27.991 C 405.19 27.591 405.836 27.391 406.536 27.391 C 407.356 27.391 408.04 27.561 408.586 27.901 C 409.14 28.234 409.556 28.704 409.836 29.311 C 410.116 29.924 410.256 30.641 410.256 31.461 L 410.256 32.491 L 404.356 32.491 L 404.336 32.531 C 404.35 33.118 404.453 33.634 404.646 34.081 C 404.84 34.534 405.116 34.891 405.476 35.151 C 405.843 35.404 406.28 35.531 406.786 35.531 C 407.346 35.531 407.84 35.451 408.266 35.291 C 408.686 35.131 409.05 34.911 409.356 34.631 L 410.006 35.711 C 409.68 36.024 409.25 36.288 408.716 36.501 C 408.183 36.721 407.54 36.831 406.786 36.831 Z M 404.396 31.161 L 404.416 31.201 L 408.606 31.201 L 408.606 30.981 C 408.606 30.548 408.53 30.158 408.376 29.811 C 408.216 29.464 407.986 29.191 407.686 28.991 C 407.38 28.798 406.996 28.701 406.536 28.701 C 406.17 28.701 405.833 28.808 405.526 29.021 C 405.226 29.234 404.976 29.528 404.776 29.901 C 404.583 30.268 404.456 30.688 404.396 31.161 ZM 415.446 36.831 C 414.706 36.831 414.073 36.648 413.546 36.281 C 413.013 35.914 412.606 35.401 412.326 34.741 C 412.053 34.088 411.916 33.324 411.916 32.451 L 411.916 32.271 C 411.916 31.298 412.053 30.444 412.326 29.711 C 412.606 28.978 413.013 28.408 413.546 28.001 C 414.08 27.594 414.72 27.391 415.466 27.391 C 416 27.391 416.473 27.491 416.886 27.691 C 417.3 27.891 417.653 28.178 417.946 28.551 L 417.946 24.851 L 416.576 24.621 L 416.576 23.551 L 417.946 23.551 L 419.596 23.551 L 419.596 35.361 L 420.966 35.591 L 420.966 36.651 L 418.156 36.651 L 418.026 35.571 C 417.726 35.984 417.363 36.298 416.936 36.511 C 416.51 36.724 416.013 36.831 415.446 36.831 Z M 415.866 35.481 C 416.36 35.481 416.773 35.371 417.106 35.151 C 417.446 34.924 417.726 34.608 417.946 34.201 L 417.946 29.981 C 417.733 29.601 417.453 29.298 417.106 29.071 C 416.766 28.851 416.36 28.741 415.886 28.741 C 415.36 28.741 414.926 28.891 414.586 29.191 C 414.24 29.491 413.983 29.904 413.816 30.431 C 413.65 30.958 413.566 31.571 413.566 32.271 L 413.566 32.451 C 413.566 33.364 413.753 34.098 414.126 34.651 C 414.5 35.204 415.08 35.481 415.866 35.481 Z" transform="matrix(1, 0, 0, 1, 0, 0)" style="fill: rgb(255, 255, 255); white-space: pre;"/>
  <g transform="matrix(1, 0, 0, 1, -254.345245, 14.514266)">
    <line style="stroke-width: 7px; stroke: rgb(255, 255, 255);" x1="359.775" y1="187.526" x2="422.297" y2="83.713"/>
    <circle style="fill: rgb(93, 98, 234);" cx="315.338" cy="87.201" r="19.168" transform="matrix(0.907245, 0, 0, 0.913313, 133.523849, 2.789092)"/>
    <circle style="fill: rgb(93, 98, 234);" cx="284.013" cy="143.586" r="19.168" transform="matrix(0.907245, 0, 0, 0.913313, 133.523849, 2.789092)"/>
    <circle style="fill: rgb(93, 98, 234);" cx="253.583" cy="199.076" r="19.168" transform="matrix(0.907245, 0, 0, 0.913313, 133.523849, 2.789092)"/>
    <path d="M 419.602 89.868 C 418.589 89.868 417.679 89.681 416.872 89.308 C 416.065 88.935 415.435 88.385 414.982 87.658 C 414.529 86.925 414.312 86.015 414.332 84.928 L 414.362 84.858 L 416.572 84.858 C 416.572 85.831 416.855 86.591 417.422 87.138 C 417.982 87.685 418.709 87.958 419.602 87.958 C 420.635 87.958 421.439 87.595 422.012 86.868 C 422.585 86.141 422.872 85.145 422.872 83.878 C 422.872 82.711 422.582 81.758 422.002 81.018 C 421.429 80.278 420.635 79.908 419.622 79.908 C 418.662 79.908 417.965 80.055 417.532 80.348 C 417.099 80.635 416.782 81.075 416.582 81.668 L 414.542 81.458 L 415.592 71.548 L 425.122 71.548 L 425.122 75.118 L 423.292 75.118 L 423.052 73.718 L 417.662 73.718 L 417.072 78.798 C 417.325 78.605 417.595 78.435 417.882 78.288 C 418.169 78.148 418.485 78.031 418.832 77.938 C 419.172 77.845 419.545 77.795 419.952 77.788 C 421.059 77.781 422.015 78.025 422.822 78.518 C 423.622 79.005 424.235 79.705 424.662 80.618 C 425.095 81.531 425.312 82.611 425.312 83.858 C 425.312 85.065 425.095 86.118 424.662 87.018 C 424.229 87.918 423.589 88.618 422.742 89.118 C 421.889 89.618 420.842 89.868 419.602 89.868 Z" transform="matrix(1, 0, 0, 1, 0, 0)" style="fill: rgb(255, 255, 255); white-space: pre;"/>
    <path d="M 419.602 89.868 C 418.589 89.868 417.679 89.681 416.872 89.308 C 416.065 88.935 415.435 88.385 414.982 87.658 C 414.529 86.925 414.312 86.015 414.332 84.928 L 414.362 84.858 L 416.572 84.858 C 416.572 85.831 416.855 86.591 417.422 87.138 C 417.982 87.685 418.709 87.958 419.602 87.958 C 420.635 87.958 421.439 87.595 422.012 86.868 C 422.585 86.141 422.872 85.145 422.872 83.878 C 422.872 82.711 422.582 81.758 422.002 81.018 C 421.429 80.278 420.635 79.908 419.622 79.908 C 418.662 79.908 417.965 80.055 417.532 80.348 C 417.099 80.635 416.782 81.075 416.582 81.668 L 414.542 81.458 L 415.592 71.548 L 425.122 71.548 L 425.122 75.118 L 423.292 75.118 L 423.052 73.718 L 417.662 73.718 L 417.072 78.798 C 417.325 78.605 417.595 78.435 417.882 78.288 C 418.169 78.148 418.485 78.031 418.832 77.938 C 419.172 77.845 419.545 77.795 419.952 77.788 C 421.059 77.781 422.015 78.025 422.822 78.518 C 423.622 79.005 424.235 79.705 424.662 80.618 C 425.095 81.531 425.312 82.611 425.312 83.858 C 425.312 85.065 425.095 86.118 424.662 87.018 C 424.229 87.918 423.589 88.618 422.742 89.118 C 421.889 89.618 420.842 89.868 419.602 89.868 Z" transform="matrix(1, 0, 0, 1, 0, 0)" style="fill: rgb(255, 255, 255); white-space: pre;"/>
    <path d="M 394.927 141.408 L 388.457 141.408 L 388.457 139.848 L 390.477 139.498 L 390.477 137.238 L 382.367 137.238 L 382.367 135.868 L 390.327 123.348 L 392.907 123.348 L 392.907 135.328 L 395.407 135.328 L 395.407 137.238 L 392.907 137.238 L 392.907 139.498 L 394.927 139.848 L 394.927 141.408 Z M 390.157 127.468 L 384.977 135.328 L 390.477 135.328 L 390.477 126.838 L 390.407 126.808 L 390.157 127.468 Z" transform="matrix(1, 0, 0, 1, 0, 0)" style="fill: rgb(255, 255, 255); white-space: pre;"/>
    <path d="M 362.571 193.092 C 361.471 193.092 360.491 192.892 359.631 192.492 C 358.771 192.092 358.101 191.522 357.621 190.782 C 357.134 190.042 356.904 189.162 356.931 188.142 L 356.971 188.072 L 359.301 188.072 C 359.301 188.705 359.434 189.255 359.701 189.722 C 359.961 190.182 360.334 190.542 360.821 190.802 C 361.314 191.055 361.898 191.182 362.571 191.182 C 363.604 191.182 364.414 190.902 365.001 190.342 C 365.588 189.775 365.881 188.942 365.881 187.842 C 365.881 186.729 365.621 185.909 365.101 185.382 C 364.581 184.849 363.761 184.582 362.641 184.582 L 360.501 184.582 L 360.501 182.672 L 362.641 182.672 C 363.354 182.672 363.931 182.552 364.371 182.312 C 364.811 182.065 365.128 181.712 365.321 181.252 C 365.514 180.792 365.611 180.242 365.611 179.602 C 365.611 178.569 365.354 177.782 364.841 177.242 C 364.328 176.702 363.571 176.432 362.571 176.432 C 361.938 176.432 361.384 176.559 360.911 176.812 C 360.438 177.065 360.071 177.422 359.811 177.882 C 359.551 178.342 359.421 178.882 359.421 179.502 L 357.081 179.502 L 357.051 179.422 C 357.031 178.515 357.251 177.689 357.711 176.942 C 358.164 176.202 358.811 175.612 359.651 175.172 C 360.491 174.732 361.464 174.512 362.571 174.512 C 364.244 174.512 365.578 174.955 366.571 175.842 C 367.564 176.735 368.061 178.005 368.061 179.652 C 368.061 180.392 367.834 181.132 367.381 181.872 C 366.928 182.612 366.251 183.179 365.351 183.572 C 366.438 183.925 367.204 184.482 367.651 185.242 C 368.104 186.002 368.331 186.852 368.331 187.792 C 368.331 188.892 368.084 189.839 367.591 190.632 C 367.098 191.419 366.418 192.025 365.551 192.452 C 364.684 192.879 363.691 193.092 362.571 193.092 Z" transform="matrix(1, 0, 0, 1, 0, 0)" style="fill: rgb(255, 255, 255); white-space: pre;"/>
    <path d="M 358.476 160.663 C 357.289 160.663 356.349 160.253 355.656 159.433 C 354.963 158.606 354.616 157.423 354.616 155.883 L 354.616 153.023 C 354.616 151.483 354.959 150.3 355.646 149.473 C 356.333 148.646 357.269 148.233 358.456 148.233 C 359.643 148.233 360.583 148.646 361.276 149.473 C 361.969 150.3 362.316 151.483 362.316 153.023 L 362.316 155.883 C 362.316 157.43 361.973 158.613 361.286 159.433 C 360.599 160.253 359.663 160.663 358.476 160.663 Z M 358.476 159.393 C 359.196 159.393 359.743 159.126 360.116 158.593 C 360.489 158.06 360.676 157.27 360.676 156.223 L 360.676 152.673 C 360.676 151.626 360.489 150.84 360.116 150.313 C 359.736 149.786 359.183 149.523 358.456 149.523 C 357.743 149.523 357.196 149.786 356.816 150.313 C 356.443 150.84 356.256 151.626 356.256 152.673 L 356.256 156.223 C 356.256 157.263 356.446 158.05 356.826 158.583 C 357.213 159.123 357.763 159.393 358.476 159.393 Z" transform="matrix(1, 0, 0, 1, 0, 0)" style="fill: rgb(255, 255, 255); white-space: pre;"/>
    <path d="M 388.539 109.022 L 383.169 109.022 L 383.169 107.972 L 385.039 107.742 L 385.039 98.692 L 383.139 98.722 L 383.139 97.702 L 386.679 96.932 L 386.679 107.742 L 388.539 107.972 L 388.539 109.022 Z" transform="matrix(1, 0, 0, 1, 0, 0)" style="fill: rgb(255, 255, 255); white-space: pre;"/>
    <path d="M 421.231 57.927 L 413.411 57.927 L 413.411 56.807 L 417.361 52.407 C 417.834 51.88 418.204 51.43 418.471 51.057 C 418.738 50.684 418.921 50.344 419.021 50.037 C 419.128 49.737 419.181 49.424 419.181 49.097 C 419.181 48.49 418.998 47.98 418.631 47.567 C 418.271 47.16 417.751 46.957 417.071 46.957 C 416.358 46.957 415.804 47.17 415.411 47.597 C 415.018 48.017 414.821 48.62 414.821 49.407 L 413.251 49.407 L 413.231 49.357 C 413.218 48.657 413.364 48.03 413.671 47.477 C 413.984 46.917 414.434 46.477 415.021 46.157 C 415.608 45.83 416.308 45.667 417.121 45.667 C 417.888 45.667 418.548 45.814 419.101 46.107 C 419.648 46.394 420.071 46.79 420.371 47.297 C 420.671 47.797 420.821 48.374 420.821 49.027 C 420.821 49.474 420.734 49.914 420.561 50.347 C 420.381 50.787 420.124 51.237 419.791 51.697 C 419.458 52.157 419.054 52.64 418.581 53.147 L 415.411 56.607 L 415.421 56.647 L 419.711 56.647 L 419.851 55.267 L 421.231 55.267 L 421.231 57.927 Z" transform="matrix(1, 0, 0, 1, 0, 0)" style="fill: rgb(255, 255, 255); white-space: pre;"/>
  </g>
  <path d="M 133.84 57.22 H 194.24 L 194.24 47.405 L 218.028 60.491 L 194.24 73.577 L 194.24 63.762 H 133.84 V 57.22 Z" style="fill: rgb(216, 216, 216);" transform="matrix(0.999997, 0.002266, -0.002266, 0.999997, 92.361099, 87.075089)" bx:shape="arrow 133.84 47.405 84.188 26.172 6.542 23.788 0 1@b73029bc"/>
  <path d="M 190.98450145780566 117.20308868436774 C 207.4182595035193 130.35010405582184 210.33685302734375 157.2755350742283 210.33685302734375 177.3336181640625 C 210.33685302734375 181.99500165745772 212.4136774559579 192.53227941279073 210.33685302734375 196.68597412109375 C 208.80682456616674 199.74606482263886 206.88107299804688 208.67453561746868 206.88107299804688 211.2002410888672" style="fill: rgb(216, 216, 216); fill-opacity: 0; stroke: rgb(255, 255, 255); stroke-width: 3px;"/>
  <path d="M 193.74912361518346 195.3036646302895 C 197.5906801540152 198.37691187000928 208.68899751041354 214.78877004274656 213.1014862060547 212.58255004882812 C 216.7158572957431 210.7753844528259 218.89430106919676 202.6428482636804 221.3953399658203 200.14175415039062" style="fill: rgb(216, 216, 216); fill-opacity: 0; stroke: rgb(255, 255, 255); stroke-width: 3px;"/>
</svg>