<?xml version="1.0" encoding="utf-8"?>
<svg viewBox="0 0 500 350" xmlns="http://www.w3.org/2000/svg">
  <rect x="-3.569" y="-2.753" width="509.817" height="377.007" style=""/>
  <polyline style="fill: rgb(216, 216, 216); fill-opacity: 0; stroke: rgb(255, 255, 255); stroke-width: 6px;" points="109.593 255.003 250.541 127.517 387.528 261.338"/>
  <polyline style="fill: rgb(216, 216, 216); fill-opacity: 0; stroke: rgb(255, 255, 255); stroke-width: 6px;" points="180.067 192.448 228.369 260.546"/>
  <circle style="fill: rgb(24, 74, 255);" cx="248.49" cy="131.89" r="27.64"/>
  <path d="M 68.466 47.54 L 62.766 47.54 L 62.766 45.82 L 64.236 45.61 L 71.196 27.63 L 73.506 27.63 L 80.346 45.61 L 81.806 45.82 L 81.806 47.54 L 76.096 47.54 L 76.096 45.82 L 77.596 45.56 L 76.286 41.89 L 68.316 41.89 L 66.956 45.56 L 68.466 45.82 L 68.466 47.54 Z M 72.126 31.54 L 69.146 39.64 L 75.466 39.64 L 72.536 31.54 L 72.376 31.09 L 72.296 31.09 L 72.126 31.54 ZM 90.479 47.54 L 88.169 47.54 L 81.489 29.59 L 79.909 29.37 L 79.909 27.63 L 86.199 27.63 L 86.199 29.37 L 84.379 29.66 L 88.839 42.32 L 89.299 43.89 L 89.379 43.89 L 89.879 42.32 L 94.499 29.64 L 92.469 29.37 L 92.469 27.63 L 98.749 27.63 L 98.749 29.37 L 97.149 29.59 L 90.479 47.54 ZM 115.086 47.54 L 100.746 47.54 L 100.746 45.82 L 102.976 45.43 L 102.976 29.75 L 100.746 29.37 L 100.746 27.63 L 102.976 27.63 L 105.666 27.63 L 107.896 27.63 L 107.896 29.37 L 105.666 29.75 L 105.666 45.48 L 112.706 45.48 L 113.016 42.33 L 115.086 42.33 L 115.086 47.54 ZM 136.308 47.54 L 129.158 47.54 L 129.158 45.82 L 131.378 45.43 L 131.378 29.67 L 126.868 29.67 L 126.478 32.43 L 124.448 32.43 L 124.448 27.63 L 140.998 27.63 L 140.998 32.43 L 138.998 32.43 L 138.588 29.67 L 134.078 29.67 L 134.078 45.43 L 136.308 45.82 L 136.308 47.54 ZM 150.621 47.54 L 143.471 47.54 L 143.471 45.82 L 145.701 45.43 L 145.701 29.75 L 143.471 29.37 L 143.471 27.65 L 152.341 27.65 C 153.787 27.65 155.011 27.867 156.011 28.3 C 157.011 28.733 157.771 29.36 158.291 30.18 C 158.811 31 159.071 32 159.071 33.18 C 159.071 34.347 158.817 35.327 158.311 36.12 C 157.804 36.913 157.084 37.513 156.151 37.92 C 155.224 38.327 154.124 38.543 152.851 38.57 L 148.391 38.65 L 148.391 45.43 L 150.621 45.82 L 150.621 47.54 Z M 159.931 47.54 L 156.611 47.54 L 152.181 37.6 L 154.871 37.57 L 158.551 45.53 L 159.931 45.78 L 159.931 47.54 Z M 148.391 29.75 L 148.391 36.53 L 152.071 36.53 C 153.571 36.53 154.664 36.243 155.351 35.67 C 156.031 35.097 156.371 34.26 156.371 33.16 C 156.371 32.107 156.044 31.277 155.391 30.67 C 154.731 30.057 153.714 29.75 152.341 29.75 L 148.391 29.75 ZM 177.566 47.54 L 162.406 47.54 L 162.406 45.82 L 164.636 45.43 L 164.636 29.75 L 162.406 29.37 L 162.406 27.63 L 177.146 27.63 L 177.146 32.42 L 174.986 32.42 L 174.676 29.71 L 167.326 29.71 L 167.326 36.19 L 174.666 36.19 L 174.666 38.31 L 167.326 38.31 L 167.326 45.52 L 175.116 45.52 L 175.416 42.77 L 177.566 42.77 L 177.566 47.54 ZM 195.422 47.54 L 180.262 47.54 L 180.262 45.82 L 182.492 45.43 L 182.492 29.75 L 180.262 29.37 L 180.262 27.63 L 195.002 27.63 L 195.002 32.42 L 192.842 32.42 L 192.532 29.71 L 185.182 29.71 L 185.182 36.19 L 192.522 36.19 L 192.522 38.31 L 185.182 38.31 L 185.182 45.52 L 192.972 45.52 L 193.272 42.77 L 195.422 42.77 L 195.422 47.54 ZM 210.626 47.54 L 204.926 47.54 L 204.926 45.82 L 206.396 45.61 L 213.356 27.63 L 215.666 27.63 L 222.506 45.61 L 223.966 45.82 L 223.966 47.54 L 218.256 47.54 L 218.256 45.82 L 219.756 45.56 L 218.446 41.89 L 210.476 41.89 L 209.116 45.56 L 210.626 45.82 L 210.626 47.54 Z M 214.286 31.54 L 211.306 39.64 L 217.626 39.64 L 214.696 31.54 L 214.536 31.09 L 214.456 31.09 L 214.286 31.54 ZM 233.215 47.54 L 226.055 47.54 L 226.055 45.82 L 228.285 45.43 L 228.285 29.75 L 226.055 29.37 L 226.055 27.63 L 228.285 27.63 L 231.005 27.63 L 240.775 43.15 L 240.855 43.12 L 240.855 29.75 L 238.405 29.37 L 238.405 27.63 L 243.325 27.63 L 245.555 27.63 L 245.555 29.37 L 243.325 29.75 L 243.325 47.54 L 240.865 47.54 L 230.845 31.94 L 230.765 31.97 L 230.765 45.43 L 233.215 45.82 L 233.215 47.54 ZM 255.731 47.54 L 247.801 47.54 L 247.801 45.82 L 250.031 45.43 L 250.031 29.75 L 247.801 29.37 L 247.801 27.63 L 250.031 27.63 L 255.591 27.63 C 257.351 27.63 258.884 28.05 260.191 28.89 C 261.497 29.73 262.517 30.883 263.251 32.35 C 263.977 33.817 264.341 35.493 264.341 37.38 L 264.341 37.81 C 264.341 39.65 263.991 41.307 263.291 42.78 C 262.584 44.247 261.587 45.407 260.301 46.26 C 259.014 47.113 257.491 47.54 255.731 47.54 Z M 252.721 29.75 L 252.721 45.43 L 255.591 45.43 C 256.851 45.43 257.931 45.087 258.831 44.4 C 259.731 43.713 260.427 42.793 260.921 41.64 C 261.407 40.487 261.651 39.21 261.651 37.81 L 261.651 37.35 C 261.651 35.903 261.407 34.607 260.921 33.46 C 260.427 32.32 259.731 31.417 258.831 30.75 C 257.931 30.083 256.851 29.75 255.591 29.75 L 252.721 29.75 ZM 280.449 47.54 L 273.299 47.54 L 273.299 45.82 L 275.529 45.43 L 275.529 29.75 L 273.299 29.37 L 273.299 27.65 L 282.169 27.65 C 283.615 27.65 284.839 27.867 285.839 28.3 C 286.839 28.733 287.599 29.36 288.119 30.18 C 288.639 31 288.899 32 288.899 33.18 C 288.899 34.347 288.645 35.327 288.139 36.12 C 287.632 36.913 286.912 37.513 285.979 37.92 C 285.052 38.327 283.952 38.543 282.679 38.57 L 278.219 38.65 L 278.219 45.43 L 280.449 45.82 L 280.449 47.54 Z M 289.759 47.54 L 286.439 47.54 L 282.009 37.6 L 284.699 37.57 L 288.379 45.53 L 289.759 45.78 L 289.759 47.54 Z M 278.219 29.75 L 278.219 36.53 L 281.899 36.53 C 283.399 36.53 284.492 36.243 285.179 35.67 C 285.859 35.097 286.199 34.26 286.199 33.16 C 286.199 32.107 285.872 31.277 285.219 30.67 C 284.559 30.057 283.542 29.75 282.169 29.75 L 278.219 29.75 ZM 300.354 47.83 C 299.068 47.83 297.914 47.583 296.894 47.09 C 295.874 46.597 295.008 45.9 294.294 45 C 293.574 44.107 293.024 43.043 292.644 41.81 C 292.271 40.583 292.084 39.227 292.084 37.74 L 292.084 37.45 C 292.084 35.977 292.271 34.62 292.644 33.38 C 293.024 32.147 293.574 31.08 294.294 30.18 C 295.008 29.273 295.874 28.573 296.894 28.08 C 297.914 27.593 299.068 27.35 300.354 27.35 C 301.714 27.35 302.908 27.593 303.934 28.08 C 304.968 28.573 305.831 29.273 306.524 30.18 C 307.224 31.08 307.751 32.147 308.104 33.38 C 308.458 34.62 308.634 35.977 308.634 37.45 L 308.634 37.74 C 308.634 39.227 308.458 40.583 308.104 41.81 C 307.751 43.043 307.224 44.107 306.524 45 C 305.831 45.9 304.968 46.597 303.934 47.09 C 302.908 47.583 301.714 47.83 300.354 47.83 Z M 300.354 45.58 C 301.674 45.58 302.741 45.253 303.554 44.6 C 304.374 43.947 304.974 43.03 305.354 41.85 C 305.741 40.67 305.934 39.3 305.934 37.74 L 305.934 37.42 C 305.934 35.873 305.741 34.513 305.354 33.34 C 304.961 32.167 304.354 31.25 303.534 30.59 C 302.714 29.93 301.654 29.6 300.354 29.6 C 299.161 29.6 298.148 29.933 297.314 30.6 C 296.488 31.267 295.861 32.187 295.434 33.36 C 295.001 34.527 294.784 35.88 294.784 37.42 L 294.784 37.74 C 294.784 39.287 295.001 40.65 295.434 41.83 C 295.861 43.01 296.488 43.93 297.314 44.59 C 298.148 45.25 299.161 45.58 300.354 45.58 ZM 322.396 47.54 L 315.246 47.54 L 315.246 45.82 L 317.466 45.43 L 317.466 29.67 L 312.956 29.67 L 312.566 32.43 L 310.536 32.43 L 310.536 27.63 L 327.086 27.63 L 327.086 32.43 L 325.086 32.43 L 324.676 29.67 L 320.166 29.67 L 320.166 45.43 L 322.396 45.82 L 322.396 47.54 ZM 331.827 47.54 L 326.127 47.54 L 326.127 45.82 L 327.597 45.61 L 334.557 27.63 L 336.867 27.63 L 343.707 45.61 L 345.167 45.82 L 345.167 47.54 L 339.457 47.54 L 339.457 45.82 L 340.957 45.56 L 339.647 41.89 L 331.677 41.89 L 330.317 45.56 L 331.827 45.82 L 331.827 47.54 Z M 335.487 31.54 L 332.507 39.64 L 338.827 39.64 L 335.897 31.54 L 335.737 31.09 L 335.657 31.09 L 335.487 31.54 ZM 356.015 47.54 L 348.865 47.54 L 348.865 45.82 L 351.085 45.43 L 351.085 29.67 L 346.575 29.67 L 346.185 32.43 L 344.155 32.43 L 344.155 27.63 L 360.705 27.63 L 360.705 32.43 L 358.705 32.43 L 358.295 29.67 L 353.785 29.67 L 353.785 45.43 L 356.015 45.82 L 356.015 47.54 ZM 370.328 47.54 L 363.178 47.54 L 363.178 45.82 L 365.408 45.43 L 365.408 29.75 L 363.178 29.37 L 363.178 27.63 L 370.328 27.63 L 370.328 29.37 L 368.098 29.75 L 368.098 45.43 L 370.328 45.82 L 370.328 47.54 ZM 380.663 47.83 C 379.376 47.83 378.223 47.583 377.203 47.09 C 376.183 46.597 375.316 45.9 374.603 45 C 373.883 44.107 373.333 43.043 372.953 41.81 C 372.58 40.583 372.393 39.227 372.393 37.74 L 372.393 37.45 C 372.393 35.977 372.58 34.62 372.953 33.38 C 373.333 32.147 373.883 31.08 374.603 30.18 C 375.316 29.273 376.183 28.573 377.203 28.08 C 378.223 27.593 379.376 27.35 380.663 27.35 C 382.023 27.35 383.216 27.593 384.243 28.08 C 385.276 28.573 386.14 29.273 386.833 30.18 C 387.533 31.08 388.06 32.147 388.413 33.38 C 388.766 34.62 388.943 35.977 388.943 37.45 L 388.943 37.74 C 388.943 39.227 388.766 40.583 388.413 41.81 C 388.06 43.043 387.533 44.107 386.833 45 C 386.14 45.9 385.276 46.597 384.243 47.09 C 383.216 47.583 382.023 47.83 380.663 47.83 Z M 380.663 45.58 C 381.983 45.58 383.05 45.253 383.863 44.6 C 384.683 43.947 385.283 43.03 385.663 41.85 C 386.05 40.67 386.243 39.3 386.243 37.74 L 386.243 37.42 C 386.243 35.873 386.05 34.513 385.663 33.34 C 385.27 32.167 384.663 31.25 383.843 30.59 C 383.023 29.93 381.963 29.6 380.663 29.6 C 379.47 29.6 378.456 29.933 377.623 30.6 C 376.796 31.267 376.17 32.187 375.743 33.36 C 375.31 34.527 375.093 35.88 375.093 37.42 L 375.093 37.74 C 375.093 39.287 375.31 40.65 375.743 41.83 C 376.17 43.01 376.796 43.93 377.623 44.59 C 378.456 45.25 379.47 45.58 380.663 45.58 ZM 398.194 47.54 L 391.034 47.54 L 391.034 45.82 L 393.264 45.43 L 393.264 29.75 L 391.034 29.37 L 391.034 27.63 L 393.264 27.63 L 395.984 27.63 L 405.754 43.15 L 405.834 43.12 L 405.834 29.75 L 403.384 29.37 L 403.384 27.63 L 408.304 27.63 L 410.534 27.63 L 410.534 29.37 L 408.304 29.75 L 408.304 47.54 L 405.844 47.54 L 395.824 31.94 L 395.744 31.97 L 395.744 45.43 L 398.194 45.82 L 398.194 47.54 ZM 419.959 47.83 C 418.746 47.83 417.579 47.65 416.459 47.29 C 415.333 46.937 414.259 46.39 413.239 45.65 L 413.239 41.4 L 415.329 41.4 L 415.789 44.53 C 416.376 44.897 417.016 45.18 417.709 45.38 C 418.403 45.58 419.153 45.68 419.959 45.68 C 420.866 45.68 421.636 45.54 422.269 45.26 C 422.903 44.987 423.389 44.603 423.729 44.11 C 424.063 43.617 424.229 43.043 424.229 42.39 C 424.229 41.777 424.086 41.237 423.799 40.77 C 423.506 40.31 423.023 39.903 422.349 39.55 C 421.683 39.197 420.769 38.89 419.609 38.63 C 418.243 38.31 417.089 37.883 416.149 37.35 C 415.203 36.817 414.486 36.17 413.999 35.41 C 413.513 34.643 413.269 33.77 413.269 32.79 C 413.269 31.75 413.546 30.82 414.099 30 C 414.646 29.18 415.413 28.533 416.399 28.06 C 417.386 27.587 418.536 27.35 419.849 27.35 C 421.243 27.35 422.473 27.56 423.539 27.98 C 424.613 28.407 425.496 28.92 426.189 29.52 L 426.189 33.5 L 424.099 33.5 L 423.649 30.66 C 423.236 30.327 422.726 30.05 422.119 29.83 C 421.506 29.617 420.749 29.51 419.849 29.51 C 419.083 29.51 418.406 29.643 417.819 29.91 C 417.239 30.177 416.786 30.553 416.459 31.04 C 416.126 31.52 415.959 32.09 415.959 32.75 C 415.959 33.323 416.109 33.823 416.409 34.25 C 416.703 34.677 417.186 35.053 417.859 35.38 C 418.526 35.7 419.419 36.003 420.539 36.29 C 422.639 36.81 424.229 37.577 425.309 38.59 C 426.389 39.61 426.929 40.867 426.929 42.36 C 426.929 43.427 426.643 44.373 426.069 45.2 C 425.496 46.02 424.686 46.663 423.639 47.13 C 422.593 47.597 421.366 47.83 419.959 47.83 Z" transform="matrix(1, 0, 0, 1, 0, 0)" style="fill: rgb(255, 255, 255); white-space: pre;"/>
  <circle style="fill: rgb(24, 74, 255);" cx="176.704" cy="191.849" r="27.64"/>
  <circle style="fill: rgb(24, 74, 255);" cx="113.512" cy="255.717" r="27.64"/>
  <circle style="fill: rgb(24, 74, 255);" cx="228.033" cy="255.917" r="27.64"/>
  <circle style="fill: rgb(24, 74, 255);" cx="321.285" cy="191.834" r="27.64"/>
  <circle style="fill: rgb(24, 74, 255);" cx="383.65" cy="255.27" r="27.64"/>
  <path d="M 254.165 141.242 L 247.025 141.242 L 247.025 139.522 L 249.255 139.132 L 249.255 136.652 L 240.315 136.652 L 240.315 135.132 L 249.095 121.332 L 251.935 121.332 L 251.935 134.542 L 254.685 134.542 L 254.685 136.652 L 251.935 136.652 L 251.935 139.132 L 254.165 139.522 L 254.165 141.242 Z M 248.905 125.872 L 243.185 134.542 L 249.255 134.542 L 249.255 125.182 L 249.175 125.152 L 248.905 125.872 Z" transform="matrix(1, 0, 0, 1, 0, 0)" style="fill: rgb(255, 255, 255); white-space: pre;"/>
  <path d="M 182.41 200.629 L 169.52 200.629 L 169.52 198.779 L 176.04 191.539 C 176.813 190.672 177.42 189.932 177.86 189.319 C 178.293 188.699 178.597 188.139 178.77 187.639 C 178.943 187.139 179.03 186.619 179.03 186.079 C 179.03 185.086 178.73 184.249 178.13 183.569 C 177.53 182.896 176.67 182.559 175.55 182.559 C 174.383 182.559 173.473 182.909 172.82 183.609 C 172.167 184.309 171.84 185.302 171.84 186.589 L 169.26 186.589 L 169.23 186.509 C 169.203 185.356 169.443 184.322 169.95 183.409 C 170.463 182.496 171.207 181.772 172.18 181.239 C 173.147 180.706 174.3 180.439 175.64 180.439 C 176.9 180.439 177.983 180.676 178.89 181.149 C 179.797 181.629 180.497 182.286 180.99 183.119 C 181.483 183.946 181.73 184.896 181.73 185.969 C 181.73 186.702 181.583 187.429 181.29 188.149 C 181.003 188.869 180.587 189.606 180.04 190.359 C 179.487 191.119 178.823 191.916 178.05 192.749 L 172.81 198.459 L 172.84 198.519 L 179.91 198.519 L 180.13 196.239 L 182.41 196.239 L 182.41 200.629 Z" transform="matrix(1, 0, 0, 1, 0, 0)" style="fill: rgb(255, 255, 255); white-space: pre;"/>
  <path d="M 114.541 267.144 L 105.701 267.144 L 105.701 265.424 L 108.781 265.034 L 108.781 250.124 L 105.651 250.174 L 105.651 248.494 L 111.471 247.234 L 111.471 265.034 L 114.541 265.424 L 114.541 267.144 Z" transform="matrix(1, 0, 0, 1, 0, 0)" style="fill: rgb(255, 255, 255); white-space: pre;"/>
  <path d="M 226.909 267.434 C 225.696 267.434 224.616 267.211 223.669 266.764 C 222.716 266.324 221.972 265.697 221.439 264.884 C 220.906 264.064 220.656 263.094 220.689 261.974 L 220.729 261.894 L 223.299 261.894 C 223.299 262.594 223.442 263.201 223.729 263.714 C 224.022 264.221 224.439 264.617 224.979 264.904 C 225.519 265.184 226.162 265.324 226.909 265.324 C 228.049 265.324 228.942 265.014 229.589 264.394 C 230.236 263.774 230.559 262.857 230.559 261.644 C 230.559 260.417 230.272 259.511 229.699 258.924 C 229.119 258.344 228.209 258.054 226.969 258.054 L 224.619 258.054 L 224.619 255.944 L 226.969 255.944 C 227.762 255.944 228.402 255.811 228.889 255.544 C 229.369 255.277 229.716 254.891 229.929 254.384 C 230.149 253.877 230.259 253.267 230.259 252.554 C 230.259 251.414 229.976 250.547 229.409 249.954 C 228.842 249.367 228.009 249.074 226.909 249.074 C 226.202 249.074 225.589 249.211 225.069 249.484 C 224.549 249.764 224.146 250.157 223.859 250.664 C 223.572 251.171 223.429 251.764 223.429 252.444 L 220.849 252.444 L 220.819 252.364 C 220.792 251.364 221.032 250.454 221.539 249.634 C 222.046 248.814 222.762 248.161 223.689 247.674 C 224.609 247.194 225.682 246.954 226.909 246.954 C 228.749 246.954 230.216 247.444 231.309 248.424 C 232.402 249.404 232.949 250.801 232.949 252.614 C 232.949 253.434 232.699 254.251 232.199 255.064 C 231.706 255.877 230.962 256.501 229.969 256.934 C 231.162 257.321 232.006 257.934 232.499 258.774 C 232.999 259.614 233.249 260.554 233.249 261.594 C 233.249 262.807 232.979 263.847 232.439 264.714 C 231.892 265.587 231.142 266.257 230.189 266.724 C 229.229 267.197 228.136 267.434 226.909 267.434 Z" transform="matrix(1, 0, 0, 1, 0, 0)" style="fill: rgb(255, 255, 255); white-space: pre;"/>
  <path d="M 384.833 267.434 C 383.54 267.434 382.386 267.117 381.373 266.484 C 380.353 265.851 379.553 264.927 378.973 263.714 C 378.386 262.501 378.093 261.034 378.093 259.314 L 378.093 256.634 C 378.093 254.527 378.41 252.754 379.043 251.314 C 379.676 249.881 380.553 248.794 381.673 248.054 C 382.786 247.321 384.07 246.954 385.523 246.954 C 386.196 246.954 386.866 247.031 387.533 247.184 C 388.206 247.337 388.763 247.534 389.203 247.774 L 388.683 249.784 C 388.25 249.571 387.78 249.397 387.273 249.264 C 386.76 249.137 386.176 249.074 385.523 249.074 C 384.13 249.074 383.02 249.597 382.193 250.644 C 381.366 251.697 380.926 253.287 380.873 255.414 L 380.923 255.464 C 381.436 254.991 382.063 254.617 382.803 254.344 C 383.536 254.064 384.333 253.924 385.193 253.924 C 386.38 253.924 387.41 254.204 388.283 254.764 C 389.156 255.324 389.833 256.097 390.313 257.084 C 390.793 258.064 391.033 259.184 391.033 260.444 C 391.033 261.824 390.776 263.037 390.263 264.084 C 389.756 265.131 389.036 265.951 388.103 266.544 C 387.176 267.137 386.086 267.434 384.833 267.434 Z M 384.833 265.324 C 385.573 265.324 386.203 265.111 386.723 264.684 C 387.243 264.257 387.643 263.674 387.923 262.934 C 388.196 262.194 388.333 261.364 388.333 260.444 C 388.333 259.131 388.003 258.051 387.343 257.204 C 386.683 256.357 385.77 255.934 384.603 255.934 C 383.996 255.934 383.443 256.017 382.943 256.184 C 382.45 256.351 382.023 256.587 381.663 256.894 C 381.303 257.201 381.006 257.561 380.773 257.974 L 380.773 259.574 C 380.773 261.421 381.16 262.841 381.933 263.834 C 382.7 264.827 383.666 265.324 384.833 265.324 Z" transform="matrix(1, 0, 0, 1, 0, 0)" style="fill: rgb(255, 255, 255); white-space: pre;"/>
  <path d="M 321.028 202.503 C 319.908 202.503 318.901 202.296 318.008 201.883 C 317.121 201.476 316.428 200.87 315.928 200.063 C 315.428 199.256 315.191 198.256 315.218 197.063 L 315.238 196.973 L 317.678 196.973 C 317.678 198.053 317.988 198.893 318.608 199.493 C 319.235 200.093 320.041 200.393 321.028 200.393 C 322.168 200.393 323.051 199.993 323.678 199.193 C 324.305 198.393 324.618 197.293 324.618 195.893 C 324.618 194.613 324.301 193.563 323.668 192.743 C 323.035 191.93 322.158 191.523 321.038 191.523 C 319.978 191.523 319.211 191.683 318.738 192.003 C 318.258 192.323 317.908 192.81 317.688 193.463 L 315.448 193.233 L 316.598 182.303 L 327.108 182.303 L 327.108 186.243 L 325.088 186.243 L 324.828 184.703 L 318.878 184.703 L 318.238 190.293 C 318.511 190.08 318.808 189.893 319.128 189.733 C 319.441 189.58 319.788 189.45 320.168 189.343 C 320.548 189.243 320.961 189.19 321.408 189.183 C 322.628 189.176 323.681 189.443 324.568 189.983 C 325.448 190.523 326.125 191.296 326.598 192.303 C 327.078 193.316 327.318 194.506 327.318 195.873 C 327.318 197.2 327.078 198.36 326.598 199.353 C 326.118 200.346 325.411 201.12 324.478 201.673 C 323.545 202.226 322.395 202.503 321.028 202.503 Z" transform="matrix(1, 0, 0, 1, 0, 0)" style="fill: rgb(255, 255, 255); white-space: pre;"/>
</svg>