<?xml version="1.0" encoding="utf-8"?>
<svg viewBox="0 0 500 270" xmlns="http://www.w3.org/2000/svg" xmlns:bx="https://boxy-svg.com">
  <rect x="-0.987" y="-1.996" width="505.843" height="270.254" style=""/>
  <line style="stroke-width: 7px; stroke: rgb(255, 255, 255);" x1="111.724" y1="110.187" x2="139.332" y2="157.597" transform="matrix(-1, 0, 0, -1, 251.056, 267.783997)"/>
  <line style="stroke-width: 7px; stroke: rgb(255, 255, 255);" x1="70.824" y1="161.492" x2="98.432" y2="114.082"/>
  <circle style="fill: rgb(93, 98, 234);" cx="179.298" cy="89.886" r="19.168" transform="matrix(0.907245, 0, 0, 0.913313, -57.992783, 17.071688)"/>
  <circle style="fill: rgb(93, 98, 234);" cx="147.973" cy="145.376" r="19.168" transform="matrix(0.907245, 0, 0, 0.913313, -65.134087, 32.003494)"/>
  <line style="stroke-width: 7px; stroke: rgb(255, 255, 255);" x1="277.272" y1="83.569" x2="304.88" y2="130.979" transform="matrix(-1, 0, 0, -1, 582.151978, 214.548004)"/>
  <g transform="matrix(1, 0, 0, 1, -26.617565, 1.298418)">
    <line style="stroke-width: 7px; stroke: rgb(255, 255, 255);" x1="238.373" y1="182.982" x2="300.895" y2="79.169"/>
    <circle style="fill: rgb(93, 98, 234);" cx="315.338" cy="87.201" r="19.168" transform="matrix(0.907245, 0, 0, 0.913313, 12.121781, -1.755372)"/>
    <circle style="fill: rgb(93, 98, 234);" cx="284.013" cy="143.586" r="19.168" transform="matrix(0.907245, 0, 0, 0.913313, 12.121781, -1.755372)"/>
    <circle style="fill: rgb(93, 98, 234);" cx="253.583" cy="199.076" r="19.168" transform="matrix(0.907245, 0, 0, 0.913313, 12.121781, -1.755372)"/>
  </g>
  <circle style="fill: rgb(93, 98, 234);" cx="480.018" cy="83.621" r="19.168" transform="matrix(0.907245, 0, 0, 0.913313, -289.760376, 88.484673)"/>
  <path d="M 109.11 108.356 L 102.64 108.356 L 102.64 106.796 L 104.66 106.446 L 104.66 104.186 L 96.55 104.186 L 96.55 102.816 L 104.51 90.296 L 107.09 90.296 L 107.09 102.276 L 109.59 102.276 L 109.59 104.186 L 107.09 104.186 L 107.09 106.446 L 109.11 106.796 L 109.11 108.356 Z M 104.34 94.416 L 99.16 102.276 L 104.66 102.276 L 104.66 93.786 L 104.59 93.756 L 104.34 94.416 Z" transform="matrix(1, 0, 0, 1, 0, 0)" style="fill: rgb(255, 255, 255); white-space: pre;"/>
  <path d="M 276.771 86.225 L 270.301 86.225 L 270.301 84.665 L 272.321 84.315 L 272.321 82.055 L 264.211 82.055 L 264.211 80.685 L 272.171 68.165 L 274.751 68.165 L 274.751 80.145 L 277.251 80.145 L 277.251 82.055 L 274.751 82.055 L 274.751 84.315 L 276.771 84.665 L 276.771 86.225 Z M 272.001 72.285 L 266.821 80.145 L 272.321 80.145 L 272.321 71.655 L 272.251 71.625 L 272.001 72.285 Z" transform="matrix(1, 0, 0, 1, 0, 0)" style="fill: rgb(255, 255, 255); white-space: pre;"/>
  <path d="M 143.984 174.055 C 142.971 174.055 142.061 173.868 141.254 173.495 C 140.447 173.122 139.817 172.572 139.364 171.845 C 138.911 171.112 138.694 170.202 138.714 169.115 L 138.744 169.045 L 140.954 169.045 C 140.954 170.018 141.237 170.778 141.804 171.325 C 142.364 171.872 143.091 172.145 143.984 172.145 C 145.017 172.145 145.821 171.782 146.394 171.055 C 146.967 170.328 147.254 169.332 147.254 168.065 C 147.254 166.898 146.964 165.945 146.384 165.205 C 145.811 164.465 145.017 164.095 144.004 164.095 C 143.044 164.095 142.347 164.242 141.914 164.535 C 141.481 164.822 141.164 165.262 140.964 165.855 L 138.924 165.645 L 139.974 155.735 L 149.504 155.735 L 149.504 159.305 L 147.674 159.305 L 147.434 157.905 L 142.044 157.905 L 141.454 162.985 C 141.707 162.792 141.977 162.622 142.264 162.475 C 142.551 162.335 142.867 162.218 143.214 162.125 C 143.554 162.032 143.927 161.982 144.334 161.975 C 145.441 161.968 146.397 162.212 147.204 162.705 C 148.004 163.192 148.617 163.892 149.044 164.805 C 149.477 165.718 149.694 166.798 149.694 168.045 C 149.694 169.252 149.477 170.305 149.044 171.205 C 148.611 172.105 147.971 172.805 147.124 173.305 C 146.271 173.805 145.224 174.055 143.984 174.055 Z" transform="matrix(1, 0, 0, 1, 0, 0)" style="fill: rgb(255, 255, 255); white-space: pre;"/>
  <path d="M 243.128 140.15 C 242.028 140.15 241.048 139.95 240.188 139.55 C 239.328 139.15 238.658 138.58 238.178 137.84 C 237.691 137.1 237.461 136.22 237.488 135.2 L 237.528 135.13 L 239.858 135.13 C 239.858 135.763 239.991 136.313 240.258 136.78 C 240.518 137.24 240.891 137.6 241.378 137.86 C 241.871 138.113 242.455 138.24 243.128 138.24 C 244.161 138.24 244.971 137.96 245.558 137.4 C 246.145 136.833 246.438 136 246.438 134.9 C 246.438 133.787 246.178 132.967 245.658 132.44 C 245.138 131.907 244.318 131.64 243.198 131.64 L 241.058 131.64 L 241.058 129.73 L 243.198 129.73 C 243.911 129.73 244.488 129.61 244.928 129.37 C 245.368 129.123 245.685 128.77 245.878 128.31 C 246.071 127.85 246.168 127.3 246.168 126.66 C 246.168 125.627 245.911 124.84 245.398 124.3 C 244.885 123.76 244.128 123.49 243.128 123.49 C 242.495 123.49 241.941 123.617 241.468 123.87 C 240.995 124.123 240.628 124.48 240.368 124.94 C 240.108 125.4 239.978 125.94 239.978 126.56 L 237.638 126.56 L 237.608 126.48 C 237.588 125.573 237.808 124.747 238.268 124 C 238.721 123.26 239.368 122.67 240.208 122.23 C 241.048 121.79 242.021 121.57 243.128 121.57 C 244.801 121.57 246.135 122.013 247.128 122.9 C 248.121 123.793 248.618 125.063 248.618 126.71 C 248.618 127.45 248.391 128.19 247.938 128.93 C 247.485 129.67 246.808 130.237 245.908 130.63 C 246.995 130.983 247.761 131.54 248.208 132.3 C 248.661 133.06 248.888 133.91 248.888 134.85 C 248.888 135.95 248.641 136.897 248.148 137.69 C 247.655 138.477 246.975 139.083 246.108 139.51 C 245.241 139.937 244.248 140.15 243.128 140.15 Z" transform="matrix(1, 0, 0, 1, 0, 0)" style="fill: rgb(255, 255, 255); white-space: pre;"/>
  <path d="M 222.18 188.288 L 210.48 188.288 L 210.48 186.618 L 216.4 180.038 C 217.1 179.251 217.65 178.581 218.05 178.028 C 218.443 177.468 218.72 176.961 218.88 176.508 C 219.04 176.055 219.12 175.581 219.12 175.088 C 219.12 174.188 218.847 173.431 218.3 172.818 C 217.753 172.198 216.97 171.888 215.95 171.888 C 214.89 171.888 214.067 172.208 213.48 172.848 C 212.887 173.481 212.59 174.381 212.59 175.548 L 210.25 175.548 L 210.22 175.478 C 210.2 174.438 210.42 173.501 210.88 172.668 C 211.34 171.835 212.013 171.178 212.9 170.698 C 213.78 170.211 214.827 169.968 216.04 169.968 C 217.18 169.968 218.16 170.185 218.98 170.618 C 219.807 171.051 220.443 171.645 220.89 172.398 C 221.337 173.151 221.56 174.015 221.56 174.988 C 221.56 175.655 221.43 176.315 221.17 176.968 C 220.91 177.621 220.53 178.291 220.03 178.978 C 219.53 179.665 218.927 180.388 218.22 181.148 L 213.47 186.318 L 213.5 186.378 L 219.91 186.378 L 220.11 184.308 L 222.18 184.308 L 222.18 188.288 Z" transform="matrix(1, 0, 0, 1, 0, 0)" style="fill: rgb(255, 255, 255); white-space: pre;"/>
  <path d="M 68.755 172.322 C 67.655 172.322 66.675 172.122 65.815 171.722 C 64.955 171.322 64.285 170.752 63.805 170.012 C 63.318 169.272 63.088 168.392 63.115 167.372 L 63.155 167.302 L 65.485 167.302 C 65.485 167.935 65.618 168.485 65.885 168.952 C 66.145 169.412 66.518 169.772 67.005 170.032 C 67.498 170.285 68.082 170.412 68.755 170.412 C 69.788 170.412 70.598 170.132 71.185 169.572 C 71.772 169.005 72.065 168.172 72.065 167.072 C 72.065 165.959 71.805 165.139 71.285 164.612 C 70.765 164.079 69.945 163.812 68.825 163.812 L 66.685 163.812 L 66.685 161.902 L 68.825 161.902 C 69.538 161.902 70.115 161.782 70.555 161.542 C 70.995 161.295 71.312 160.942 71.505 160.482 C 71.698 160.022 71.795 159.472 71.795 158.832 C 71.795 157.799 71.538 157.012 71.025 156.472 C 70.512 155.932 69.755 155.662 68.755 155.662 C 68.122 155.662 67.568 155.789 67.095 156.042 C 66.622 156.295 66.255 156.652 65.995 157.112 C 65.735 157.572 65.605 158.112 65.605 158.732 L 63.265 158.732 L 63.235 158.652 C 63.215 157.745 63.435 156.919 63.895 156.172 C 64.348 155.432 64.995 154.842 65.835 154.402 C 66.675 153.962 67.648 153.742 68.755 153.742 C 70.428 153.742 71.762 154.185 72.755 155.072 C 73.748 155.965 74.245 157.235 74.245 158.882 C 74.245 159.622 74.018 160.362 73.565 161.102 C 73.112 161.842 72.435 162.409 71.535 162.802 C 72.622 163.155 73.388 163.712 73.835 164.472 C 74.288 165.232 74.515 166.082 74.515 167.022 C 74.515 168.122 74.268 169.069 73.775 169.862 C 73.282 170.649 72.602 171.255 71.735 171.682 C 70.868 172.109 69.875 172.322 68.755 172.322 Z" transform="matrix(1, 0, 0, 1, 0, 0)" style="fill: rgb(255, 255, 255); white-space: pre;"/>
  <path d="M 74.509 38.033 L 68.709 38.033 L 68.709 36.973 L 70.079 36.743 L 70.079 27.103 L 68.709 26.873 L 68.709 25.803 L 70.079 25.803 L 73.979 25.803 C 75.259 25.803 76.259 26.08 76.979 26.633 C 77.699 27.186 78.059 28.013 78.059 29.113 C 78.059 29.66 77.886 30.146 77.539 30.573 C 77.192 31 76.739 31.316 76.179 31.523 C 76.672 31.623 77.092 31.82 77.439 32.113 C 77.792 32.406 78.066 32.766 78.259 33.193 C 78.452 33.613 78.549 34.076 78.549 34.583 C 78.549 35.703 78.186 36.556 77.459 37.143 C 76.732 37.736 75.749 38.033 74.509 38.033 Z M 71.729 32.293 L 71.729 36.743 L 74.509 36.743 C 75.262 36.743 75.846 36.556 76.259 36.183 C 76.679 35.81 76.889 35.283 76.889 34.603 C 76.889 34.116 76.812 33.703 76.659 33.363 C 76.506 33.023 76.269 32.76 75.949 32.573 C 75.636 32.386 75.239 32.293 74.759 32.293 L 71.729 32.293 Z M 71.729 27.103 L 71.729 31.003 L 74.409 31.003 C 75.002 31.003 75.482 30.83 75.849 30.483 C 76.216 30.143 76.399 29.676 76.399 29.083 C 76.399 28.423 76.192 27.926 75.779 27.593 C 75.366 27.266 74.766 27.103 73.979 27.103 L 71.729 27.103 ZM 82.692 38.213 C 81.745 38.213 81.025 37.98 80.532 37.513 C 80.039 37.053 79.792 36.403 79.792 35.563 C 79.792 34.99 79.952 34.486 80.272 34.053 C 80.585 33.626 81.042 33.293 81.642 33.053 C 82.242 32.82 82.959 32.703 83.792 32.703 L 85.412 32.703 L 85.412 31.813 C 85.412 31.26 85.245 30.833 84.912 30.533 C 84.579 30.233 84.112 30.083 83.512 30.083 C 83.125 30.083 82.792 30.13 82.512 30.223 C 82.232 30.31 81.979 30.436 81.752 30.603 L 81.572 31.873 L 80.302 31.873 L 80.302 29.783 C 80.709 29.456 81.185 29.206 81.732 29.033 C 82.272 28.86 82.872 28.773 83.532 28.773 C 84.639 28.773 85.505 29.036 86.132 29.563 C 86.759 30.09 87.072 30.843 87.072 31.823 L 87.072 36.203 C 87.072 36.323 87.072 36.436 87.072 36.543 C 87.072 36.656 87.079 36.77 87.092 36.883 L 87.972 36.973 L 87.972 38.033 L 85.602 38.033 C 85.549 37.786 85.509 37.566 85.482 37.373 C 85.455 37.173 85.435 36.976 85.422 36.783 C 85.102 37.19 84.702 37.53 84.222 37.803 C 83.749 38.076 83.239 38.213 82.692 38.213 Z M 82.932 36.823 C 83.485 36.823 83.989 36.693 84.442 36.433 C 84.895 36.166 85.219 35.85 85.412 35.483 L 85.412 33.833 L 83.732 33.833 C 82.972 33.833 82.402 34.016 82.022 34.383 C 81.642 34.743 81.452 35.146 81.452 35.593 C 81.452 35.993 81.575 36.3 81.822 36.513 C 82.069 36.72 82.439 36.823 82.932 36.823 ZM 93.569 38.033 L 89.179 38.033 L 89.179 36.973 L 90.549 36.743 L 90.549 26.233 L 89.179 26.003 L 89.179 24.933 L 92.199 24.933 L 92.199 36.743 L 93.569 36.973 L 93.569 38.033 ZM 97.683 38.213 C 96.736 38.213 96.016 37.98 95.523 37.513 C 95.03 37.053 94.783 36.403 94.783 35.563 C 94.783 34.99 94.943 34.486 95.263 34.053 C 95.576 33.626 96.033 33.293 96.633 33.053 C 97.233 32.82 97.95 32.703 98.783 32.703 L 100.403 32.703 L 100.403 31.813 C 100.403 31.26 100.236 30.833 99.903 30.533 C 99.57 30.233 99.103 30.083 98.503 30.083 C 98.116 30.083 97.783 30.13 97.503 30.223 C 97.223 30.31 96.97 30.436 96.743 30.603 L 96.563 31.873 L 95.293 31.873 L 95.293 29.783 C 95.7 29.456 96.176 29.206 96.723 29.033 C 97.263 28.86 97.863 28.773 98.523 28.773 C 99.63 28.773 100.496 29.036 101.123 29.563 C 101.75 30.09 102.063 30.843 102.063 31.823 L 102.063 36.203 C 102.063 36.323 102.063 36.436 102.063 36.543 C 102.063 36.656 102.07 36.77 102.083 36.883 L 102.963 36.973 L 102.963 38.033 L 100.593 38.033 C 100.54 37.786 100.5 37.566 100.473 37.373 C 100.446 37.173 100.426 36.976 100.413 36.783 C 100.093 37.19 99.693 37.53 99.213 37.803 C 98.74 38.076 98.23 38.213 97.683 38.213 Z M 97.923 36.823 C 98.476 36.823 98.98 36.693 99.433 36.433 C 99.886 36.166 100.21 35.85 100.403 35.483 L 100.403 33.833 L 98.723 33.833 C 97.963 33.833 97.393 34.016 97.013 34.383 C 96.633 34.743 96.443 35.146 96.443 35.593 C 96.443 35.993 96.566 36.3 96.813 36.513 C 97.06 36.72 97.43 36.823 97.923 36.823 ZM 108.64 38.033 L 104.25 38.033 L 104.25 36.973 L 105.62 36.743 L 105.62 30.243 L 104.25 30.013 L 104.25 28.943 L 107.1 28.943 L 107.22 30.303 C 107.52 29.816 107.897 29.44 108.35 29.173 C 108.81 28.906 109.33 28.773 109.91 28.773 C 110.89 28.773 111.65 29.063 112.19 29.643 C 112.723 30.216 112.99 31.1 112.99 32.293 L 112.99 36.743 L 114.36 36.973 L 114.36 38.033 L 109.97 38.033 L 109.97 36.973 L 111.34 36.743 L 111.34 32.333 C 111.34 31.533 111.183 30.963 110.87 30.623 C 110.55 30.29 110.067 30.123 109.42 30.123 C 108.94 30.123 108.517 30.236 108.15 30.463 C 107.783 30.696 107.49 31.01 107.27 31.403 L 107.27 36.743 L 108.64 36.973 L 108.64 38.033 ZM 119.555 38.213 C 118.729 38.213 118.012 38.02 117.405 37.633 C 116.792 37.253 116.319 36.72 115.985 36.033 C 115.652 35.353 115.485 34.563 115.485 33.663 L 115.485 33.313 C 115.485 32.453 115.645 31.68 115.965 30.993 C 116.292 30.313 116.759 29.773 117.365 29.373 C 117.979 28.973 118.709 28.773 119.555 28.773 C 120.289 28.773 120.932 28.896 121.485 29.143 C 122.032 29.383 122.495 29.713 122.875 30.133 L 122.915 32.313 L 121.615 32.313 L 121.335 30.723 C 121.142 30.53 120.902 30.373 120.615 30.253 C 120.335 30.14 120.002 30.083 119.615 30.083 C 119.122 30.083 118.689 30.226 118.315 30.513 C 117.942 30.806 117.652 31.196 117.445 31.683 C 117.239 32.17 117.135 32.713 117.135 33.313 L 117.135 33.663 C 117.135 34.323 117.232 34.896 117.425 35.383 C 117.619 35.876 117.895 36.253 118.255 36.513 C 118.615 36.78 119.045 36.913 119.545 36.913 C 120.105 36.913 120.569 36.76 120.935 36.453 C 121.309 36.146 121.535 35.723 121.615 35.183 L 123.105 35.183 L 123.125 35.233 C 123.099 35.753 122.945 36.24 122.665 36.693 C 122.385 37.146 121.985 37.513 121.465 37.793 C 120.945 38.073 120.309 38.213 119.555 38.213 ZM 128.756 38.213 C 127.916 38.213 127.186 38.02 126.566 37.633 C 125.946 37.253 125.466 36.72 125.126 36.033 C 124.786 35.353 124.616 34.563 124.616 33.663 L 124.616 33.293 C 124.616 32.433 124.793 31.663 125.146 30.983 C 125.506 30.303 125.98 29.766 126.566 29.373 C 127.16 28.973 127.806 28.773 128.506 28.773 C 129.326 28.773 130.01 28.943 130.556 29.283 C 131.11 29.616 131.526 30.086 131.806 30.693 C 132.086 31.306 132.226 32.023 132.226 32.843 L 132.226 33.873 L 126.326 33.873 L 126.306 33.913 C 126.32 34.5 126.423 35.016 126.616 35.463 C 126.81 35.916 127.086 36.273 127.446 36.533 C 127.813 36.786 128.25 36.913 128.756 36.913 C 129.316 36.913 129.81 36.833 130.236 36.673 C 130.656 36.513 131.02 36.293 131.326 36.013 L 131.976 37.093 C 131.65 37.406 131.22 37.67 130.686 37.883 C 130.153 38.103 129.51 38.213 128.756 38.213 Z M 126.366 32.543 L 126.386 32.583 L 130.576 32.583 L 130.576 32.363 C 130.576 31.93 130.5 31.54 130.346 31.193 C 130.186 30.846 129.956 30.573 129.656 30.373 C 129.35 30.18 128.966 30.083 128.506 30.083 C 128.14 30.083 127.803 30.19 127.496 30.403 C 127.196 30.616 126.946 30.91 126.746 31.283 C 126.553 31.65 126.426 32.07 126.366 32.543 ZM 137.416 38.213 C 136.676 38.213 136.043 38.03 135.516 37.663 C 134.983 37.296 134.576 36.783 134.296 36.123 C 134.023 35.47 133.886 34.706 133.886 33.833 L 133.886 33.653 C 133.886 32.68 134.023 31.826 134.296 31.093 C 134.576 30.36 134.983 29.79 135.516 29.383 C 136.049 28.976 136.689 28.773 137.436 28.773 C 137.969 28.773 138.443 28.873 138.856 29.073 C 139.269 29.273 139.623 29.56 139.916 29.933 L 139.916 26.233 L 138.546 26.003 L 138.546 24.933 L 139.916 24.933 L 141.566 24.933 L 141.566 36.743 L 142.936 36.973 L 142.936 38.033 L 140.126 38.033 L 139.996 36.953 C 139.696 37.366 139.333 37.68 138.906 37.893 C 138.479 38.106 137.983 38.213 137.416 38.213 Z M 137.836 36.863 C 138.329 36.863 138.743 36.753 139.076 36.533 C 139.416 36.306 139.696 35.99 139.916 35.583 L 139.916 31.363 C 139.703 30.983 139.423 30.68 139.076 30.453 C 138.736 30.233 138.329 30.123 137.856 30.123 C 137.329 30.123 136.896 30.273 136.556 30.573 C 136.209 30.873 135.953 31.286 135.786 31.813 C 135.619 32.34 135.536 32.953 135.536 33.653 L 135.536 33.833 C 135.536 34.746 135.723 35.48 136.096 36.033 C 136.469 36.586 137.049 36.863 137.836 36.863 ZM 239.706 38.033 L 233.906 38.033 L 233.906 36.973 L 235.276 36.743 L 235.276 27.103 L 233.906 26.873 L 233.906 25.803 L 235.276 25.803 L 239.176 25.803 C 240.456 25.803 241.456 26.08 242.176 26.633 C 242.896 27.186 243.256 28.013 243.256 29.113 C 243.256 29.66 243.083 30.146 242.736 30.573 C 242.389 31 241.936 31.316 241.376 31.523 C 241.869 31.623 242.289 31.82 242.636 32.113 C 242.989 32.406 243.263 32.766 243.456 33.193 C 243.649 33.613 243.746 34.076 243.746 34.583 C 243.746 35.703 243.383 36.556 242.656 37.143 C 241.929 37.736 240.946 38.033 239.706 38.033 Z M 236.926 32.293 L 236.926 36.743 L 239.706 36.743 C 240.459 36.743 241.043 36.556 241.456 36.183 C 241.876 35.81 242.086 35.283 242.086 34.603 C 242.086 34.116 242.009 33.703 241.856 33.363 C 241.703 33.023 241.466 32.76 241.146 32.573 C 240.833 32.386 240.436 32.293 239.956 32.293 L 236.926 32.293 Z M 236.926 27.103 L 236.926 31.003 L 239.606 31.003 C 240.199 31.003 240.679 30.83 241.046 30.483 C 241.413 30.143 241.596 29.676 241.596 29.083 C 241.596 28.423 241.389 27.926 240.976 27.593 C 240.563 27.266 239.963 27.103 239.176 27.103 L 236.926 27.103 ZM 247.889 38.213 C 246.942 38.213 246.222 37.98 245.729 37.513 C 245.236 37.053 244.989 36.403 244.989 35.563 C 244.989 34.99 245.149 34.486 245.469 34.053 C 245.782 33.626 246.239 33.293 246.839 33.053 C 247.439 32.82 248.156 32.703 248.989 32.703 L 250.609 32.703 L 250.609 31.813 C 250.609 31.26 250.442 30.833 250.109 30.533 C 249.776 30.233 249.309 30.083 248.709 30.083 C 248.322 30.083 247.989 30.13 247.709 30.223 C 247.429 30.31 247.176 30.436 246.949 30.603 L 246.769 31.873 L 245.499 31.873 L 245.499 29.783 C 245.906 29.456 246.382 29.206 246.929 29.033 C 247.469 28.86 248.069 28.773 248.729 28.773 C 249.836 28.773 250.702 29.036 251.329 29.563 C 251.956 30.09 252.269 30.843 252.269 31.823 L 252.269 36.203 C 252.269 36.323 252.269 36.436 252.269 36.543 C 252.269 36.656 252.276 36.77 252.289 36.883 L 253.169 36.973 L 253.169 38.033 L 250.799 38.033 C 250.746 37.786 250.706 37.566 250.679 37.373 C 250.652 37.173 250.632 36.976 250.619 36.783 C 250.299 37.19 249.899 37.53 249.419 37.803 C 248.946 38.076 248.436 38.213 247.889 38.213 Z M 248.129 36.823 C 248.682 36.823 249.186 36.693 249.639 36.433 C 250.092 36.166 250.416 35.85 250.609 35.483 L 250.609 33.833 L 248.929 33.833 C 248.169 33.833 247.599 34.016 247.219 34.383 C 246.839 34.743 246.649 35.146 246.649 35.593 C 246.649 35.993 246.772 36.3 247.019 36.513 C 247.266 36.72 247.636 36.823 248.129 36.823 ZM 258.766 38.033 L 254.376 38.033 L 254.376 36.973 L 255.746 36.743 L 255.746 26.233 L 254.376 26.003 L 254.376 24.933 L 257.396 24.933 L 257.396 36.743 L 258.766 36.973 L 258.766 38.033 ZM 262.88 38.213 C 261.933 38.213 261.213 37.98 260.72 37.513 C 260.227 37.053 259.98 36.403 259.98 35.563 C 259.98 34.99 260.14 34.486 260.46 34.053 C 260.773 33.626 261.23 33.293 261.83 33.053 C 262.43 32.82 263.147 32.703 263.98 32.703 L 265.6 32.703 L 265.6 31.813 C 265.6 31.26 265.433 30.833 265.1 30.533 C 264.767 30.233 264.3 30.083 263.7 30.083 C 263.313 30.083 262.98 30.13 262.7 30.223 C 262.42 30.31 262.167 30.436 261.94 30.603 L 261.76 31.873 L 260.49 31.873 L 260.49 29.783 C 260.897 29.456 261.373 29.206 261.92 29.033 C 262.46 28.86 263.06 28.773 263.72 28.773 C 264.827 28.773 265.693 29.036 266.32 29.563 C 266.947 30.09 267.26 30.843 267.26 31.823 L 267.26 36.203 C 267.26 36.323 267.26 36.436 267.26 36.543 C 267.26 36.656 267.267 36.77 267.28 36.883 L 268.16 36.973 L 268.16 38.033 L 265.79 38.033 C 265.737 37.786 265.697 37.566 265.67 37.373 C 265.643 37.173 265.623 36.976 265.61 36.783 C 265.29 37.19 264.89 37.53 264.41 37.803 C 263.937 38.076 263.427 38.213 262.88 38.213 Z M 263.12 36.823 C 263.673 36.823 264.177 36.693 264.63 36.433 C 265.083 36.166 265.407 35.85 265.6 35.483 L 265.6 33.833 L 263.92 33.833 C 263.16 33.833 262.59 34.016 262.21 34.383 C 261.83 34.743 261.64 35.146 261.64 35.593 C 261.64 35.993 261.763 36.3 262.01 36.513 C 262.257 36.72 262.627 36.823 263.12 36.823 ZM 273.837 38.033 L 269.447 38.033 L 269.447 36.973 L 270.817 36.743 L 270.817 30.243 L 269.447 30.013 L 269.447 28.943 L 272.297 28.943 L 272.417 30.303 C 272.717 29.816 273.094 29.44 273.547 29.173 C 274.007 28.906 274.527 28.773 275.107 28.773 C 276.087 28.773 276.847 29.063 277.387 29.643 C 277.92 30.216 278.187 31.1 278.187 32.293 L 278.187 36.743 L 279.557 36.973 L 279.557 38.033 L 275.167 38.033 L 275.167 36.973 L 276.537 36.743 L 276.537 32.333 C 276.537 31.533 276.38 30.963 276.067 30.623 C 275.747 30.29 275.264 30.123 274.617 30.123 C 274.137 30.123 273.714 30.236 273.347 30.463 C 272.98 30.696 272.687 31.01 272.467 31.403 L 272.467 36.743 L 273.837 36.973 L 273.837 38.033 ZM 284.752 38.213 C 283.926 38.213 283.209 38.02 282.602 37.633 C 281.989 37.253 281.516 36.72 281.182 36.033 C 280.849 35.353 280.682 34.563 280.682 33.663 L 280.682 33.313 C 280.682 32.453 280.842 31.68 281.162 30.993 C 281.489 30.313 281.956 29.773 282.562 29.373 C 283.176 28.973 283.906 28.773 284.752 28.773 C 285.486 28.773 286.129 28.896 286.682 29.143 C 287.229 29.383 287.692 29.713 288.072 30.133 L 288.112 32.313 L 286.812 32.313 L 286.532 30.723 C 286.339 30.53 286.099 30.373 285.812 30.253 C 285.532 30.14 285.199 30.083 284.812 30.083 C 284.319 30.083 283.886 30.226 283.512 30.513 C 283.139 30.806 282.849 31.196 282.642 31.683 C 282.436 32.17 282.332 32.713 282.332 33.313 L 282.332 33.663 C 282.332 34.323 282.429 34.896 282.622 35.383 C 282.816 35.876 283.092 36.253 283.452 36.513 C 283.812 36.78 284.242 36.913 284.742 36.913 C 285.302 36.913 285.766 36.76 286.132 36.453 C 286.506 36.146 286.732 35.723 286.812 35.183 L 288.302 35.183 L 288.322 35.233 C 288.296 35.753 288.142 36.24 287.862 36.693 C 287.582 37.146 287.182 37.513 286.662 37.793 C 286.142 38.073 285.506 38.213 284.752 38.213 ZM 293.953 38.213 C 293.113 38.213 292.383 38.02 291.763 37.633 C 291.143 37.253 290.663 36.72 290.323 36.033 C 289.983 35.353 289.813 34.563 289.813 33.663 L 289.813 33.293 C 289.813 32.433 289.99 31.663 290.343 30.983 C 290.703 30.303 291.177 29.766 291.763 29.373 C 292.357 28.973 293.003 28.773 293.703 28.773 C 294.523 28.773 295.207 28.943 295.753 29.283 C 296.307 29.616 296.723 30.086 297.003 30.693 C 297.283 31.306 297.423 32.023 297.423 32.843 L 297.423 33.873 L 291.523 33.873 L 291.503 33.913 C 291.517 34.5 291.62 35.016 291.813 35.463 C 292.007 35.916 292.283 36.273 292.643 36.533 C 293.01 36.786 293.447 36.913 293.953 36.913 C 294.513 36.913 295.007 36.833 295.433 36.673 C 295.853 36.513 296.217 36.293 296.523 36.013 L 297.173 37.093 C 296.847 37.406 296.417 37.67 295.883 37.883 C 295.35 38.103 294.707 38.213 293.953 38.213 Z M 291.563 32.543 L 291.583 32.583 L 295.773 32.583 L 295.773 32.363 C 295.773 31.93 295.697 31.54 295.543 31.193 C 295.383 30.846 295.153 30.573 294.853 30.373 C 294.547 30.18 294.163 30.083 293.703 30.083 C 293.337 30.083 293 30.19 292.693 30.403 C 292.393 30.616 292.143 30.91 291.943 31.283 C 291.75 31.65 291.623 32.07 291.563 32.543 ZM 302.613 38.213 C 301.873 38.213 301.24 38.03 300.713 37.663 C 300.18 37.296 299.773 36.783 299.493 36.123 C 299.22 35.47 299.083 34.706 299.083 33.833 L 299.083 33.653 C 299.083 32.68 299.22 31.826 299.493 31.093 C 299.773 30.36 300.18 29.79 300.713 29.383 C 301.246 28.976 301.886 28.773 302.633 28.773 C 303.166 28.773 303.64 28.873 304.053 29.073 C 304.466 29.273 304.82 29.56 305.113 29.933 L 305.113 26.233 L 303.743 26.003 L 303.743 24.933 L 305.113 24.933 L 306.763 24.933 L 306.763 36.743 L 308.133 36.973 L 308.133 38.033 L 305.323 38.033 L 305.193 36.953 C 304.893 37.366 304.53 37.68 304.103 37.893 C 303.676 38.106 303.18 38.213 302.613 38.213 Z M 303.033 36.863 C 303.526 36.863 303.94 36.753 304.273 36.533 C 304.613 36.306 304.893 35.99 305.113 35.583 L 305.113 31.363 C 304.9 30.983 304.62 30.68 304.273 30.453 C 303.933 30.233 303.526 30.123 303.053 30.123 C 302.526 30.123 302.093 30.273 301.753 30.573 C 301.406 30.873 301.15 31.286 300.983 31.813 C 300.816 32.34 300.733 32.953 300.733 33.653 L 300.733 33.833 C 300.733 34.746 300.92 35.48 301.293 36.033 C 301.666 36.586 302.246 36.863 303.033 36.863 ZM 374.839 38.213 C 373.999 38.213 373.249 38.046 372.589 37.713 C 371.929 37.386 371.409 36.916 371.029 36.303 C 370.649 35.69 370.459 34.953 370.459 34.093 L 370.459 27.103 L 369.089 26.873 L 369.089 25.803 L 373.479 25.803 L 373.479 26.873 L 372.109 27.103 L 372.109 34.093 C 372.109 34.706 372.226 35.22 372.459 35.633 C 372.693 36.046 373.016 36.356 373.429 36.563 C 373.843 36.776 374.323 36.883 374.869 36.883 C 375.416 36.883 375.899 36.78 376.319 36.573 C 376.746 36.366 377.076 36.056 377.309 35.643 C 377.549 35.223 377.669 34.706 377.669 34.093 L 377.669 27.103 L 376.299 26.873 L 376.299 25.803 L 380.689 25.803 L 380.689 26.873 L 379.329 27.103 L 379.329 34.093 C 379.329 34.98 379.143 35.73 378.769 36.343 C 378.396 36.956 377.873 37.42 377.199 37.733 C 376.526 38.053 375.739 38.213 374.839 38.213 ZM 386.292 38.033 L 381.902 38.033 L 381.902 36.973 L 383.272 36.743 L 383.272 30.243 L 381.902 30.013 L 381.902 28.943 L 384.752 28.943 L 384.872 30.303 C 385.172 29.816 385.548 29.44 386.002 29.173 C 386.462 28.906 386.982 28.773 387.562 28.773 C 388.542 28.773 389.302 29.063 389.842 29.643 C 390.375 30.216 390.642 31.1 390.642 32.293 L 390.642 36.743 L 392.012 36.973 L 392.012 38.033 L 387.622 38.033 L 387.622 36.973 L 388.992 36.743 L 388.992 32.333 C 388.992 31.533 388.835 30.963 388.522 30.623 C 388.202 30.29 387.718 30.123 387.072 30.123 C 386.592 30.123 386.168 30.236 385.802 30.463 C 385.435 30.696 385.142 31.01 384.922 31.403 L 384.922 36.743 L 386.292 36.973 L 386.292 38.033 ZM 398.011 38.213 C 397.418 38.213 396.904 38.1 396.471 37.873 C 396.031 37.646 395.664 37.31 395.371 36.863 L 395.221 38.033 L 393.791 38.033 L 393.791 26.233 L 392.431 26.003 L 392.431 24.933 L 395.451 24.933 L 395.451 30.023 C 395.738 29.616 396.091 29.306 396.511 29.093 C 396.938 28.88 397.431 28.773 397.991 28.773 C 398.744 28.773 399.384 28.976 399.911 29.383 C 400.444 29.79 400.851 30.36 401.131 31.093 C 401.411 31.826 401.551 32.68 401.551 33.653 L 401.551 33.833 C 401.551 34.706 401.411 35.47 401.131 36.123 C 400.851 36.783 400.444 37.296 399.911 37.663 C 399.384 38.03 398.751 38.213 398.011 38.213 Z M 397.591 36.863 C 398.371 36.863 398.948 36.586 399.321 36.033 C 399.701 35.48 399.891 34.746 399.891 33.833 L 399.891 33.653 C 399.891 32.953 399.808 32.34 399.641 31.813 C 399.474 31.286 399.221 30.873 398.881 30.573 C 398.534 30.273 398.098 30.123 397.571 30.123 C 397.064 30.123 396.634 30.246 396.281 30.493 C 395.934 30.74 395.658 31.07 395.451 31.483 L 395.451 35.493 C 395.658 35.913 395.938 36.246 396.291 36.493 C 396.651 36.74 397.084 36.863 397.591 36.863 ZM 405.737 38.213 C 404.79 38.213 404.07 37.98 403.577 37.513 C 403.084 37.053 402.837 36.403 402.837 35.563 C 402.837 34.99 402.997 34.486 403.317 34.053 C 403.63 33.626 404.087 33.293 404.687 33.053 C 405.287 32.82 406.004 32.703 406.837 32.703 L 408.457 32.703 L 408.457 31.813 C 408.457 31.26 408.29 30.833 407.957 30.533 C 407.624 30.233 407.157 30.083 406.557 30.083 C 406.17 30.083 405.837 30.13 405.557 30.223 C 405.277 30.31 405.024 30.436 404.797 30.603 L 404.617 31.873 L 403.347 31.873 L 403.347 29.783 C 403.754 29.456 404.23 29.206 404.777 29.033 C 405.317 28.86 405.917 28.773 406.577 28.773 C 407.684 28.773 408.55 29.036 409.177 29.563 C 409.804 30.09 410.117 30.843 410.117 31.823 L 410.117 36.203 C 410.117 36.323 410.117 36.436 410.117 36.543 C 410.117 36.656 410.124 36.77 410.137 36.883 L 411.017 36.973 L 411.017 38.033 L 408.647 38.033 C 408.594 37.786 408.554 37.566 408.527 37.373 C 408.5 37.173 408.48 36.976 408.467 36.783 C 408.147 37.19 407.747 37.53 407.267 37.803 C 406.794 38.076 406.284 38.213 405.737 38.213 Z M 405.977 36.823 C 406.53 36.823 407.034 36.693 407.487 36.433 C 407.94 36.166 408.264 35.85 408.457 35.483 L 408.457 33.833 L 406.777 33.833 C 406.017 33.833 405.447 34.016 405.067 34.383 C 404.687 34.743 404.497 35.146 404.497 35.593 C 404.497 35.993 404.62 36.3 404.867 36.513 C 405.114 36.72 405.484 36.823 405.977 36.823 ZM 416.614 38.033 L 412.224 38.033 L 412.224 36.973 L 413.594 36.743 L 413.594 26.233 L 412.224 26.003 L 412.224 24.933 L 415.244 24.933 L 415.244 36.743 L 416.614 36.973 L 416.614 38.033 ZM 420.728 38.213 C 419.782 38.213 419.062 37.98 418.568 37.513 C 418.075 37.053 417.828 36.403 417.828 35.563 C 417.828 34.99 417.988 34.486 418.308 34.053 C 418.622 33.626 419.078 33.293 419.678 33.053 C 420.278 32.82 420.995 32.703 421.828 32.703 L 423.448 32.703 L 423.448 31.813 C 423.448 31.26 423.282 30.833 422.948 30.533 C 422.615 30.233 422.148 30.083 421.548 30.083 C 421.162 30.083 420.828 30.13 420.548 30.223 C 420.268 30.31 420.015 30.436 419.788 30.603 L 419.608 31.873 L 418.338 31.873 L 418.338 29.783 C 418.745 29.456 419.222 29.206 419.768 29.033 C 420.308 28.86 420.908 28.773 421.568 28.773 C 422.675 28.773 423.542 29.036 424.168 29.563 C 424.795 30.09 425.108 30.843 425.108 31.823 L 425.108 36.203 C 425.108 36.323 425.108 36.436 425.108 36.543 C 425.108 36.656 425.115 36.77 425.128 36.883 L 426.008 36.973 L 426.008 38.033 L 423.638 38.033 C 423.585 37.786 423.545 37.566 423.518 37.373 C 423.492 37.173 423.472 36.976 423.458 36.783 C 423.138 37.19 422.738 37.53 422.258 37.803 C 421.785 38.076 421.275 38.213 420.728 38.213 Z M 420.968 36.823 C 421.522 36.823 422.025 36.693 422.478 36.433 C 422.932 36.166 423.255 35.85 423.448 35.483 L 423.448 33.833 L 421.768 33.833 C 421.008 33.833 420.438 34.016 420.058 34.383 C 419.678 34.743 419.488 35.146 419.488 35.593 C 419.488 35.993 419.612 36.3 419.858 36.513 C 420.105 36.72 420.475 36.823 420.968 36.823 ZM 431.685 38.033 L 427.295 38.033 L 427.295 36.973 L 428.665 36.743 L 428.665 30.243 L 427.295 30.013 L 427.295 28.943 L 430.145 28.943 L 430.265 30.303 C 430.565 29.816 430.942 29.44 431.395 29.173 C 431.855 28.906 432.375 28.773 432.955 28.773 C 433.935 28.773 434.695 29.063 435.235 29.643 C 435.769 30.216 436.035 31.1 436.035 32.293 L 436.035 36.743 L 437.405 36.973 L 437.405 38.033 L 433.015 38.033 L 433.015 36.973 L 434.385 36.743 L 434.385 32.333 C 434.385 31.533 434.229 30.963 433.915 30.623 C 433.595 30.29 433.112 30.123 432.465 30.123 C 431.985 30.123 431.562 30.236 431.195 30.463 C 430.829 30.696 430.535 31.01 430.315 31.403 L 430.315 36.743 L 431.685 36.973 L 431.685 38.033 ZM 442.6 38.213 C 441.774 38.213 441.057 38.02 440.45 37.633 C 439.837 37.253 439.364 36.72 439.03 36.033 C 438.697 35.353 438.53 34.563 438.53 33.663 L 438.53 33.313 C 438.53 32.453 438.69 31.68 439.01 30.993 C 439.337 30.313 439.804 29.773 440.41 29.373 C 441.024 28.973 441.754 28.773 442.6 28.773 C 443.334 28.773 443.977 28.896 444.53 29.143 C 445.077 29.383 445.54 29.713 445.92 30.133 L 445.96 32.313 L 444.66 32.313 L 444.38 30.723 C 444.187 30.53 443.947 30.373 443.66 30.253 C 443.38 30.14 443.047 30.083 442.66 30.083 C 442.167 30.083 441.734 30.226 441.36 30.513 C 440.987 30.806 440.697 31.196 440.49 31.683 C 440.284 32.17 440.18 32.713 440.18 33.313 L 440.18 33.663 C 440.18 34.323 440.277 34.896 440.47 35.383 C 440.664 35.876 440.94 36.253 441.3 36.513 C 441.66 36.78 442.09 36.913 442.59 36.913 C 443.15 36.913 443.614 36.76 443.98 36.453 C 444.354 36.146 444.58 35.723 444.66 35.183 L 446.15 35.183 L 446.17 35.233 C 446.144 35.753 445.99 36.24 445.71 36.693 C 445.43 37.146 445.03 37.513 444.51 37.793 C 443.99 38.073 443.354 38.213 442.6 38.213 ZM 451.802 38.213 C 450.962 38.213 450.232 38.02 449.612 37.633 C 448.992 37.253 448.512 36.72 448.172 36.033 C 447.832 35.353 447.662 34.563 447.662 33.663 L 447.662 33.293 C 447.662 32.433 447.838 31.663 448.192 30.983 C 448.552 30.303 449.025 29.766 449.612 29.373 C 450.205 28.973 450.852 28.773 451.552 28.773 C 452.372 28.773 453.055 28.943 453.602 29.283 C 454.155 29.616 454.572 30.086 454.852 30.693 C 455.132 31.306 455.272 32.023 455.272 32.843 L 455.272 33.873 L 449.372 33.873 L 449.352 33.913 C 449.365 34.5 449.468 35.016 449.662 35.463 C 449.855 35.916 450.132 36.273 450.492 36.533 C 450.858 36.786 451.295 36.913 451.802 36.913 C 452.362 36.913 452.855 36.833 453.282 36.673 C 453.702 36.513 454.065 36.293 454.372 36.013 L 455.022 37.093 C 454.695 37.406 454.265 37.67 453.732 37.883 C 453.198 38.103 452.555 38.213 451.802 38.213 Z M 449.412 32.543 L 449.432 32.583 L 453.622 32.583 L 453.622 32.363 C 453.622 31.93 453.545 31.54 453.392 31.193 C 453.232 30.846 453.002 30.573 452.702 30.373 C 452.395 30.18 452.012 30.083 451.552 30.083 C 451.185 30.083 450.848 30.19 450.542 30.403 C 450.242 30.616 449.992 30.91 449.792 31.283 C 449.598 31.65 449.472 32.07 449.412 32.543 ZM 460.461 38.213 C 459.721 38.213 459.088 38.03 458.561 37.663 C 458.028 37.296 457.621 36.783 457.341 36.123 C 457.068 35.47 456.931 34.706 456.931 33.833 L 456.931 33.653 C 456.931 32.68 457.068 31.826 457.341 31.093 C 457.621 30.36 458.028 29.79 458.561 29.383 C 459.095 28.976 459.735 28.773 460.481 28.773 C 461.015 28.773 461.488 28.873 461.901 29.073 C 462.315 29.273 462.668 29.56 462.961 29.933 L 462.961 26.233 L 461.591 26.003 L 461.591 24.933 L 462.961 24.933 L 464.611 24.933 L 464.611 36.743 L 465.981 36.973 L 465.981 38.033 L 463.171 38.033 L 463.041 36.953 C 462.741 37.366 462.378 37.68 461.951 37.893 C 461.525 38.106 461.028 38.213 460.461 38.213 Z M 460.881 36.863 C 461.375 36.863 461.788 36.753 462.121 36.533 C 462.461 36.306 462.741 35.99 462.961 35.583 L 462.961 31.363 C 462.748 30.983 462.468 30.68 462.121 30.453 C 461.781 30.233 461.375 30.123 460.901 30.123 C 460.375 30.123 459.941 30.273 459.601 30.573 C 459.255 30.873 458.998 31.286 458.831 31.813 C 458.665 32.34 458.581 32.953 458.581 33.653 L 458.581 33.833 C 458.581 34.746 458.768 35.48 459.141 36.033 C 459.515 36.586 460.095 36.863 460.881 36.863 Z" transform="matrix(1, 0, 0, 1, 0, 0)" style="fill: rgb(255, 255, 255); white-space: pre;"/>
  <path d="M 222.18 188.288 L 210.48 188.288 L 210.48 186.618 L 216.4 180.038 C 217.1 179.251 217.65 178.581 218.05 178.028 C 218.443 177.468 218.72 176.961 218.88 176.508 C 219.04 176.055 219.12 175.581 219.12 175.088 C 219.12 174.188 218.847 173.431 218.3 172.818 C 217.753 172.198 216.97 171.888 215.95 171.888 C 214.89 171.888 214.067 172.208 213.48 172.848 C 212.887 173.481 212.59 174.381 212.59 175.548 L 210.25 175.548 L 210.22 175.478 C 210.2 174.438 210.42 173.501 210.88 172.668 C 211.34 171.835 212.013 171.178 212.9 170.698 C 213.78 170.211 214.827 169.968 216.04 169.968 C 217.18 169.968 218.16 170.185 218.98 170.618 C 219.807 171.051 220.443 171.645 220.89 172.398 C 221.337 173.151 221.56 174.015 221.56 174.988 C 221.56 175.655 221.43 176.315 221.17 176.968 C 220.91 177.621 220.53 178.291 220.03 178.978 C 219.53 179.665 218.927 180.388 218.22 181.148 L 213.47 186.318 L 213.5 186.378 L 219.91 186.378 L 220.11 184.308 L 222.18 184.308 L 222.18 188.288 Z" transform="matrix(1, 0, 0, 1, 0, 0)" style="fill: rgb(255, 255, 255); white-space: pre;"/>
  <g transform="matrix(1, 0, 0, 1, 121.402069, 4.544464)">
    <line style="stroke-width: 7px; stroke: rgb(255, 255, 255);" x1="238.373" y1="182.982" x2="300.895" y2="79.169"/>
    <circle style="fill: rgb(93, 98, 234);" cx="315.338" cy="87.201" r="19.168" transform="matrix(0.907245, 0, 0, 0.913313, 12.121781, -1.755372)"/>
    <circle style="fill: rgb(93, 98, 234);" cx="284.013" cy="143.586" r="19.168" transform="matrix(0.907245, 0, 0, 0.913313, 12.121781, -1.755372)"/>
    <circle style="fill: rgb(93, 98, 234);" cx="253.583" cy="199.076" r="19.168" transform="matrix(0.907245, 0, 0, 0.913313, 12.121781, -1.755372)"/>
  </g>
  <circle style="fill: rgb(93, 98, 234);" cx="480.018" cy="83.621" r="19.168" transform="matrix(0.907245, 0, 0, 0.913313, -129.405762, 54.076595)"/>
  <path d="M 305.99 139.208 C 304.977 139.208 304.067 139.021 303.26 138.648 C 302.453 138.275 301.823 137.725 301.37 136.998 C 300.917 136.265 300.7 135.355 300.72 134.268 L 300.75 134.198 L 302.96 134.198 C 302.96 135.171 303.243 135.931 303.81 136.478 C 304.37 137.025 305.097 137.298 305.99 137.298 C 307.023 137.298 307.827 136.935 308.4 136.208 C 308.973 135.481 309.26 134.485 309.26 133.218 C 309.26 132.051 308.97 131.098 308.39 130.358 C 307.817 129.618 307.023 129.248 306.01 129.248 C 305.05 129.248 304.353 129.395 303.92 129.688 C 303.487 129.975 303.17 130.415 302.97 131.008 L 300.93 130.798 L 301.98 120.888 L 311.51 120.888 L 311.51 124.458 L 309.68 124.458 L 309.44 123.058 L 304.05 123.058 L 303.46 128.138 C 303.713 127.945 303.983 127.775 304.27 127.628 C 304.557 127.488 304.873 127.371 305.22 127.278 C 305.56 127.185 305.933 127.135 306.34 127.128 C 307.447 127.121 308.403 127.365 309.21 127.858 C 310.01 128.345 310.623 129.045 311.05 129.958 C 311.483 130.871 311.7 131.951 311.7 133.198 C 311.7 134.405 311.483 135.458 311.05 136.358 C 310.617 137.258 309.977 137.958 309.13 138.458 C 308.277 138.958 307.23 139.208 305.99 139.208 Z" transform="matrix(1, 0, 0, 1, 0, 0)" style="fill: rgb(255, 255, 255); white-space: pre;"/>
  <path d="M 419.602 89.868 C 418.589 89.868 417.679 89.681 416.872 89.308 C 416.065 88.935 415.435 88.385 414.982 87.658 C 414.529 86.925 414.312 86.015 414.332 84.928 L 414.362 84.858 L 416.572 84.858 C 416.572 85.831 416.855 86.591 417.422 87.138 C 417.982 87.685 418.709 87.958 419.602 87.958 C 420.635 87.958 421.439 87.595 422.012 86.868 C 422.585 86.141 422.872 85.145 422.872 83.878 C 422.872 82.711 422.582 81.758 422.002 81.018 C 421.429 80.278 420.635 79.908 419.622 79.908 C 418.662 79.908 417.965 80.055 417.532 80.348 C 417.099 80.635 416.782 81.075 416.582 81.668 L 414.542 81.458 L 415.592 71.548 L 425.122 71.548 L 425.122 75.118 L 423.292 75.118 L 423.052 73.718 L 417.662 73.718 L 417.072 78.798 C 417.325 78.605 417.595 78.435 417.882 78.288 C 418.169 78.148 418.485 78.031 418.832 77.938 C 419.172 77.845 419.545 77.795 419.952 77.788 C 421.059 77.781 422.015 78.025 422.822 78.518 C 423.622 79.005 424.235 79.705 424.662 80.618 C 425.095 81.531 425.312 82.611 425.312 83.858 C 425.312 85.065 425.095 86.118 424.662 87.018 C 424.229 87.918 423.589 88.618 422.742 89.118 C 421.889 89.618 420.842 89.868 419.602 89.868 Z" transform="matrix(1, 0, 0, 1, 0, 0)" style="fill: rgb(255, 255, 255); white-space: pre;"/>
  <path d="M 419.602 89.868 C 418.589 89.868 417.679 89.681 416.872 89.308 C 416.065 88.935 415.435 88.385 414.982 87.658 C 414.529 86.925 414.312 86.015 414.332 84.928 L 414.362 84.858 L 416.572 84.858 C 416.572 85.831 416.855 86.591 417.422 87.138 C 417.982 87.685 418.709 87.958 419.602 87.958 C 420.635 87.958 421.439 87.595 422.012 86.868 C 422.585 86.141 422.872 85.145 422.872 83.878 C 422.872 82.711 422.582 81.758 422.002 81.018 C 421.429 80.278 420.635 79.908 419.622 79.908 C 418.662 79.908 417.965 80.055 417.532 80.348 C 417.099 80.635 416.782 81.075 416.582 81.668 L 414.542 81.458 L 415.592 71.548 L 425.122 71.548 L 425.122 75.118 L 423.292 75.118 L 423.052 73.718 L 417.662 73.718 L 417.072 78.798 C 417.325 78.605 417.595 78.435 417.882 78.288 C 418.169 78.148 418.485 78.031 418.832 77.938 C 419.172 77.845 419.545 77.795 419.952 77.788 C 421.059 77.781 422.015 78.025 422.822 78.518 C 423.622 79.005 424.235 79.705 424.662 80.618 C 425.095 81.531 425.312 82.611 425.312 83.858 C 425.312 85.065 425.095 86.118 424.662 87.018 C 424.229 87.918 423.589 88.618 422.742 89.118 C 421.889 89.618 420.842 89.868 419.602 89.868 Z" transform="matrix(1, 0, 0, 1, 0, 0)" style="fill: rgb(255, 255, 255); white-space: pre;"/>
  <path d="M 394.927 141.408 L 388.457 141.408 L 388.457 139.848 L 390.477 139.498 L 390.477 137.238 L 382.367 137.238 L 382.367 135.868 L 390.327 123.348 L 392.907 123.348 L 392.907 135.328 L 395.407 135.328 L 395.407 137.238 L 392.907 137.238 L 392.907 139.498 L 394.927 139.848 L 394.927 141.408 Z M 390.157 127.468 L 384.977 135.328 L 390.477 135.328 L 390.477 126.838 L 390.407 126.808 L 390.157 127.468 Z" transform="matrix(1, 0, 0, 1, 0, 0)" style="fill: rgb(255, 255, 255); white-space: pre;"/>
  <path d="M 368.901 192.832 L 357.201 192.832 L 357.201 191.162 L 363.121 184.582 C 363.821 183.795 364.371 183.125 364.771 182.572 C 365.164 182.012 365.441 181.505 365.601 181.052 C 365.761 180.599 365.841 180.125 365.841 179.632 C 365.841 178.732 365.568 177.975 365.021 177.362 C 364.474 176.742 363.691 176.432 362.671 176.432 C 361.611 176.432 360.788 176.752 360.201 177.392 C 359.608 178.025 359.311 178.925 359.311 180.092 L 356.971 180.092 L 356.941 180.022 C 356.921 178.982 357.141 178.045 357.601 177.212 C 358.061 176.379 358.734 175.722 359.621 175.242 C 360.501 174.755 361.548 174.512 362.761 174.512 C 363.901 174.512 364.881 174.729 365.701 175.162 C 366.528 175.595 367.164 176.189 367.611 176.942 C 368.058 177.695 368.281 178.559 368.281 179.532 C 368.281 180.199 368.151 180.859 367.891 181.512 C 367.631 182.165 367.251 182.835 366.751 183.522 C 366.251 184.209 365.648 184.932 364.941 185.692 L 360.191 190.862 L 360.221 190.922 L 366.631 190.922 L 366.831 188.852 L 368.901 188.852 L 368.901 192.832 Z" transform="matrix(1, 0, 0, 1, 0, 0)" style="fill: rgb(255, 255, 255); white-space: pre;"/>
  <path d="M 64.679 141.502 C 63.492 141.502 62.552 141.092 61.859 140.272 C 61.166 139.445 60.819 138.262 60.819 136.722 L 60.819 133.862 C 60.819 132.322 61.162 131.139 61.849 130.312 C 62.536 129.485 63.472 129.072 64.659 129.072 C 65.846 129.072 66.786 129.485 67.479 130.312 C 68.172 131.139 68.519 132.322 68.519 133.862 L 68.519 136.722 C 68.519 138.269 68.176 139.452 67.489 140.272 C 66.802 141.092 65.866 141.502 64.679 141.502 Z M 64.679 140.232 C 65.399 140.232 65.946 139.965 66.319 139.432 C 66.692 138.899 66.879 138.109 66.879 137.062 L 66.879 133.512 C 66.879 132.465 66.692 131.679 66.319 131.152 C 65.939 130.625 65.386 130.362 64.659 130.362 C 63.946 130.362 63.399 130.625 63.019 131.152 C 62.646 131.679 62.459 132.465 62.459 133.512 L 62.459 137.062 C 62.459 138.102 62.649 138.889 63.029 139.422 C 63.416 139.962 63.966 140.232 64.679 140.232 Z" transform="matrix(1, 0, 0, 1, 0, 0)" style="fill: rgb(255, 255, 255); white-space: pre;"/>
  <path d="M 104.503 73.501 C 103.316 73.501 102.376 73.091 101.683 72.271 C 100.99 71.444 100.643 70.261 100.643 68.721 L 100.643 65.861 C 100.643 64.321 100.986 63.138 101.673 62.311 C 102.36 61.484 103.296 61.071 104.483 61.071 C 105.67 61.071 106.61 61.484 107.303 62.311 C 107.996 63.138 108.343 64.321 108.343 65.861 L 108.343 68.721 C 108.343 70.268 108 71.451 107.313 72.271 C 106.626 73.091 105.69 73.501 104.503 73.501 Z M 104.503 72.231 C 105.223 72.231 105.77 71.964 106.143 71.431 C 106.516 70.898 106.703 70.108 106.703 69.061 L 106.703 65.511 C 106.703 64.464 106.516 63.678 106.143 63.151 C 105.763 62.624 105.21 62.361 104.483 62.361 C 103.77 62.361 103.223 62.624 102.843 63.151 C 102.47 63.678 102.283 64.464 102.283 65.511 L 102.283 69.061 C 102.283 70.101 102.473 70.888 102.853 71.421 C 103.24 71.961 103.79 72.231 104.503 72.231 Z" transform="matrix(1, 0, 0, 1, 0, 0)" style="fill: rgb(255, 255, 255); white-space: pre;"/>
  <path d="M 147.333 143.005 C 146.146 143.005 145.206 142.595 144.513 141.775 C 143.82 140.948 143.473 139.765 143.473 138.225 L 143.473 135.365 C 143.473 133.825 143.816 132.642 144.503 131.815 C 145.19 130.988 146.126 130.575 147.313 130.575 C 148.5 130.575 149.44 130.988 150.133 131.815 C 150.826 132.642 151.173 133.825 151.173 135.365 L 151.173 138.225 C 151.173 139.772 150.83 140.955 150.143 141.775 C 149.456 142.595 148.52 143.005 147.333 143.005 Z M 147.333 141.735 C 148.053 141.735 148.6 141.468 148.973 140.935 C 149.346 140.402 149.533 139.612 149.533 138.565 L 149.533 135.015 C 149.533 133.968 149.346 133.182 148.973 132.655 C 148.593 132.128 148.04 131.865 147.313 131.865 C 146.6 131.865 146.053 132.128 145.673 132.655 C 145.3 133.182 145.113 133.968 145.113 135.015 L 145.113 138.565 C 145.113 139.605 145.303 140.392 145.683 140.925 C 146.07 141.465 146.62 141.735 147.333 141.735 Z" transform="matrix(1, 0, 0, 1, 0, 0)" style="fill: rgb(255, 255, 255); white-space: pre;"/>
  <path d="M 208.572 156.53 C 207.385 156.53 206.445 156.12 205.752 155.3 C 205.059 154.473 204.712 153.29 204.712 151.75 L 204.712 148.89 C 204.712 147.35 205.055 146.167 205.742 145.34 C 206.429 144.513 207.365 144.1 208.552 144.1 C 209.739 144.1 210.679 144.513 211.372 145.34 C 212.065 146.167 212.412 147.35 212.412 148.89 L 212.412 151.75 C 212.412 153.297 212.069 154.48 211.382 155.3 C 210.695 156.12 209.759 156.53 208.572 156.53 Z M 208.572 155.26 C 209.292 155.26 209.839 154.993 210.212 154.46 C 210.585 153.927 210.772 153.137 210.772 152.09 L 210.772 148.54 C 210.772 147.493 210.585 146.707 210.212 146.18 C 209.832 145.653 209.279 145.39 208.552 145.39 C 207.839 145.39 207.292 145.653 206.912 146.18 C 206.539 146.707 206.352 147.493 206.352 148.54 L 206.352 152.09 C 206.352 153.13 206.542 153.917 206.922 154.45 C 207.309 154.99 207.859 155.26 208.572 155.26 Z" transform="matrix(1, 0, 0, 1, 0, 0)" style="fill: rgb(255, 255, 255); white-space: pre;"/>
  <path d="M 239.762 107.895 L 234.392 107.895 L 234.392 106.845 L 236.262 106.615 L 236.262 97.565 L 234.362 97.595 L 234.362 96.575 L 237.902 95.805 L 237.902 106.615 L 239.762 106.845 L 239.762 107.895 Z" transform="matrix(1, 0, 0, 1, 0, 0)" style="fill: rgb(255, 255, 255); white-space: pre;"/>
  <path d="M 272.448 56.8 L 267.078 56.8 L 267.078 55.75 L 268.948 55.52 L 268.948 46.47 L 267.048 46.5 L 267.048 45.48 L 270.588 44.71 L 270.588 55.52 L 272.448 55.75 L 272.448 56.8 Z" transform="matrix(1, 0, 0, 1, 0, 0)" style="fill: rgb(255, 255, 255); white-space: pre;"/>
  <path d="M 307.381 108.441 C 306.194 108.441 305.254 108.031 304.561 107.211 C 303.868 106.384 303.521 105.201 303.521 103.661 L 303.521 100.801 C 303.521 99.261 303.864 98.078 304.551 97.251 C 305.238 96.424 306.174 96.011 307.361 96.011 C 308.548 96.011 309.488 96.424 310.181 97.251 C 310.874 98.078 311.221 99.261 311.221 100.801 L 311.221 103.661 C 311.221 105.208 310.878 106.391 310.191 107.211 C 309.504 108.031 308.568 108.441 307.381 108.441 Z M 307.381 107.171 C 308.101 107.171 308.648 106.904 309.021 106.371 C 309.394 105.838 309.581 105.048 309.581 104.001 L 309.581 100.451 C 309.581 99.404 309.394 98.618 309.021 98.091 C 308.641 97.564 308.088 97.301 307.361 97.301 C 306.648 97.301 306.101 97.564 305.721 98.091 C 305.348 98.618 305.161 99.404 305.161 100.451 L 305.161 104.001 C 305.161 105.041 305.351 105.828 305.731 106.361 C 306.118 106.901 306.668 107.171 307.381 107.171 Z" transform="matrix(1, 0, 0, 1, 0, 0)" style="fill: rgb(255, 255, 255); white-space: pre;"/>
  <path d="M 358.476 160.663 C 357.289 160.663 356.349 160.253 355.656 159.433 C 354.963 158.606 354.616 157.423 354.616 155.883 L 354.616 153.023 C 354.616 151.483 354.959 150.3 355.646 149.473 C 356.333 148.646 357.269 148.233 358.456 148.233 C 359.643 148.233 360.583 148.646 361.276 149.473 C 361.969 150.3 362.316 151.483 362.316 153.023 L 362.316 155.883 C 362.316 157.43 361.973 158.613 361.286 159.433 C 360.599 160.253 359.663 160.663 358.476 160.663 Z M 358.476 159.393 C 359.196 159.393 359.743 159.126 360.116 158.593 C 360.489 158.06 360.676 157.27 360.676 156.223 L 360.676 152.673 C 360.676 151.626 360.489 150.84 360.116 150.313 C 359.736 149.786 359.183 149.523 358.456 149.523 C 357.743 149.523 357.196 149.786 356.816 150.313 C 356.443 150.84 356.256 151.626 356.256 152.673 L 356.256 156.223 C 356.256 157.263 356.446 158.05 356.826 158.583 C 357.213 159.123 357.763 159.393 358.476 159.393 Z" transform="matrix(1, 0, 0, 1, 0, 0)" style="fill: rgb(255, 255, 255); white-space: pre;"/>
  <path d="M 388.539 109.022 L 383.169 109.022 L 383.169 107.972 L 385.039 107.742 L 385.039 98.692 L 383.139 98.722 L 383.139 97.702 L 386.679 96.932 L 386.679 107.742 L 388.539 107.972 L 388.539 109.022 Z" transform="matrix(1, 0, 0, 1, 0, 0)" style="fill: rgb(255, 255, 255); white-space: pre;"/>
  <path d="M 421.231 57.927 L 413.411 57.927 L 413.411 56.807 L 417.361 52.407 C 417.834 51.88 418.204 51.43 418.471 51.057 C 418.738 50.684 418.921 50.344 419.021 50.037 C 419.128 49.737 419.181 49.424 419.181 49.097 C 419.181 48.49 418.998 47.98 418.631 47.567 C 418.271 47.16 417.751 46.957 417.071 46.957 C 416.358 46.957 415.804 47.17 415.411 47.597 C 415.018 48.017 414.821 48.62 414.821 49.407 L 413.251 49.407 L 413.231 49.357 C 413.218 48.657 413.364 48.03 413.671 47.477 C 413.984 46.917 414.434 46.477 415.021 46.157 C 415.608 45.83 416.308 45.667 417.121 45.667 C 417.888 45.667 418.548 45.814 419.101 46.107 C 419.648 46.394 420.071 46.79 420.371 47.297 C 420.671 47.797 420.821 48.374 420.821 49.027 C 420.821 49.474 420.734 49.914 420.561 50.347 C 420.381 50.787 420.124 51.237 419.791 51.697 C 419.458 52.157 419.054 52.64 418.581 53.147 L 415.411 56.607 L 415.421 56.647 L 419.711 56.647 L 419.851 55.267 L 421.231 55.267 L 421.231 57.927 Z" transform="matrix(1, 0, 0, 1, 0, 0)" style="fill: rgb(255, 255, 255); white-space: pre;"/>
  <path d="M 169.74 71.349 L 164.01 71.349 L 164.01 70.299 L 165.37 70.069 L 165.37 60.549 L 164.01 60.319 L 164.01 59.259 L 165.37 59.259 L 169.23 59.259 C 170.49 59.259 171.473 59.532 172.18 60.079 C 172.893 60.626 173.25 61.442 173.25 62.529 C 173.25 63.069 173.08 63.549 172.74 63.969 C 172.4 64.396 171.95 64.712 171.39 64.919 C 171.877 65.019 172.297 65.212 172.65 65.499 C 172.997 65.792 173.263 66.146 173.45 66.559 C 173.643 66.979 173.74 67.439 173.74 67.939 C 173.74 69.046 173.38 69.889 172.66 70.469 C 171.94 71.056 170.967 71.349 169.74 71.349 Z M 167 65.679 L 167 70.069 L 169.74 70.069 C 170.487 70.069 171.067 69.886 171.48 69.519 C 171.893 69.152 172.1 68.629 172.1 67.949 C 172.1 67.476 172.023 67.069 171.87 66.729 C 171.717 66.396 171.483 66.136 171.17 65.949 C 170.857 65.769 170.463 65.679 169.99 65.679 L 167 65.679 Z M 167 60.549 L 167 64.399 L 169.65 64.399 C 170.237 64.399 170.71 64.229 171.07 63.889 C 171.437 63.549 171.62 63.086 171.62 62.499 C 171.62 61.846 171.413 61.359 171 61.039 C 170.593 60.712 170.003 60.549 169.23 60.549 L 167 60.549 ZM 177.827 71.519 C 176.894 71.519 176.184 71.292 175.697 70.839 C 175.211 70.379 174.967 69.736 174.967 68.909 C 174.967 68.336 175.121 67.839 175.427 67.419 C 175.741 66.992 176.194 66.662 176.787 66.429 C 177.381 66.196 178.091 66.079 178.917 66.079 L 180.517 66.079 L 180.517 65.199 C 180.517 64.659 180.354 64.239 180.027 63.939 C 179.694 63.639 179.227 63.489 178.627 63.489 C 178.254 63.489 177.931 63.536 177.657 63.629 C 177.377 63.716 177.124 63.839 176.897 63.999 L 176.727 65.259 L 175.457 65.259 L 175.457 63.199 C 175.864 62.872 176.334 62.626 176.867 62.459 C 177.407 62.286 178.004 62.199 178.657 62.199 C 179.744 62.199 180.597 62.459 181.217 62.979 C 181.837 63.499 182.147 64.246 182.147 65.219 L 182.147 69.539 C 182.147 69.652 182.151 69.766 182.157 69.879 C 182.157 69.992 182.164 70.102 182.177 70.209 L 183.047 70.299 L 183.047 71.349 L 180.697 71.349 C 180.651 71.102 180.614 70.882 180.587 70.689 C 180.554 70.496 180.534 70.302 180.527 70.109 C 180.207 70.516 179.811 70.852 179.337 71.119 C 178.864 71.386 178.361 71.519 177.827 71.519 Z M 178.067 70.149 C 178.607 70.149 179.104 70.019 179.557 69.759 C 180.004 69.499 180.324 69.189 180.517 68.829 L 180.517 67.199 L 178.857 67.199 C 178.104 67.199 177.541 67.379 177.167 67.739 C 176.787 68.099 176.597 68.499 176.597 68.939 C 176.597 69.332 176.721 69.632 176.967 69.839 C 177.207 70.046 177.574 70.149 178.067 70.149 ZM 188.568 71.349 L 184.228 71.349 L 184.228 70.299 L 185.578 70.069 L 185.578 59.689 L 184.228 59.449 L 184.228 58.399 L 187.218 58.399 L 187.218 70.069 L 188.568 70.299 L 188.568 71.349 ZM 192.636 71.519 C 191.702 71.519 190.992 71.292 190.506 70.839 C 190.019 70.379 189.776 69.736 189.776 68.909 C 189.776 68.336 189.929 67.839 190.236 67.419 C 190.549 66.992 191.002 66.662 191.596 66.429 C 192.189 66.196 192.899 66.079 193.726 66.079 L 195.326 66.079 L 195.326 65.199 C 195.326 64.659 195.162 64.239 194.836 63.939 C 194.502 63.639 194.036 63.489 193.436 63.489 C 193.062 63.489 192.739 63.536 192.466 63.629 C 192.186 63.716 191.932 63.839 191.706 63.999 L 191.536 65.259 L 190.266 65.259 L 190.266 63.199 C 190.672 62.872 191.142 62.626 191.676 62.459 C 192.216 62.286 192.812 62.199 193.466 62.199 C 194.552 62.199 195.406 62.459 196.026 62.979 C 196.646 63.499 196.956 64.246 196.956 65.219 L 196.956 69.539 C 196.956 69.652 196.959 69.766 196.966 69.879 C 196.966 69.992 196.972 70.102 196.986 70.209 L 197.856 70.299 L 197.856 71.349 L 195.506 71.349 C 195.459 71.102 195.422 70.882 195.396 70.689 C 195.362 70.496 195.342 70.302 195.336 70.109 C 195.016 70.516 194.619 70.852 194.146 71.119 C 193.672 71.386 193.169 71.519 192.636 71.519 Z M 192.876 70.149 C 193.416 70.149 193.912 70.019 194.366 69.759 C 194.812 69.499 195.132 69.189 195.326 68.829 L 195.326 67.199 L 193.666 67.199 C 192.912 67.199 192.349 67.379 191.976 67.739 C 191.596 68.099 191.406 68.499 191.406 68.939 C 191.406 69.332 191.529 69.632 191.776 69.839 C 192.016 70.046 192.382 70.149 192.876 70.149 ZM 203.467 71.349 L 199.117 71.349 L 199.117 70.299 L 200.477 70.069 L 200.477 63.659 L 199.117 63.419 L 199.117 62.369 L 201.937 62.369 L 202.047 63.699 C 202.347 63.226 202.723 62.859 203.177 62.599 C 203.63 62.332 204.143 62.199 204.717 62.199 C 205.683 62.199 206.433 62.482 206.967 63.049 C 207.5 63.616 207.767 64.492 207.767 65.679 L 207.767 70.069 L 209.117 70.299 L 209.117 71.349 L 204.777 71.349 L 204.777 70.299 L 206.127 70.069 L 206.127 65.709 C 206.127 64.922 205.97 64.362 205.657 64.029 C 205.343 63.696 204.867 63.529 204.227 63.529 C 203.753 63.529 203.337 63.642 202.977 63.869 C 202.617 64.096 202.327 64.406 202.107 64.799 L 202.107 70.069 L 203.467 70.299 L 203.467 71.349 ZM 214.235 71.519 C 213.422 71.519 212.715 71.332 212.115 70.959 C 211.509 70.579 211.042 70.049 210.715 69.369 C 210.382 68.696 210.215 67.916 210.215 67.029 L 210.215 66.679 C 210.215 65.832 210.375 65.069 210.695 64.389 C 211.015 63.716 211.479 63.182 212.085 62.789 C 212.685 62.396 213.402 62.199 214.235 62.199 C 214.962 62.199 215.599 62.319 216.145 62.559 C 216.692 62.799 217.149 63.126 217.515 63.539 L 217.555 65.699 L 216.285 65.699 L 215.995 64.129 C 215.809 63.936 215.575 63.779 215.295 63.659 C 215.009 63.546 214.675 63.489 214.295 63.489 C 213.809 63.489 213.382 63.632 213.015 63.919 C 212.649 64.206 212.362 64.589 212.155 65.069 C 211.949 65.556 211.845 66.092 211.845 66.679 L 211.845 67.029 C 211.845 67.682 211.942 68.252 212.135 68.739 C 212.329 69.219 212.602 69.589 212.955 69.849 C 213.315 70.116 213.742 70.249 214.235 70.249 C 214.789 70.249 215.245 70.096 215.605 69.789 C 215.972 69.482 216.199 69.066 216.285 68.539 L 217.745 68.539 L 217.765 68.589 C 217.739 69.102 217.585 69.582 217.305 70.029 C 217.032 70.476 216.639 70.836 216.125 71.109 C 215.612 71.382 214.982 71.519 214.235 71.519 ZM 223.317 71.349 L 218.977 71.349 L 218.977 70.299 L 220.327 70.069 L 220.327 63.659 L 218.977 63.419 L 218.977 62.369 L 221.957 62.369 L 221.957 70.069 L 223.317 70.299 L 223.317 71.349 Z M 221.957 60.149 L 220.247 60.149 L 220.247 58.399 L 221.957 58.399 L 221.957 60.149 ZM 228.786 71.349 L 224.436 71.349 L 224.436 70.299 L 225.796 70.069 L 225.796 63.659 L 224.436 63.419 L 224.436 62.369 L 227.256 62.369 L 227.366 63.699 C 227.666 63.226 228.043 62.859 228.496 62.599 C 228.949 62.332 229.463 62.199 230.036 62.199 C 231.003 62.199 231.753 62.482 232.286 63.049 C 232.819 63.616 233.086 64.492 233.086 65.679 L 233.086 70.069 L 234.436 70.299 L 234.436 71.349 L 230.096 71.349 L 230.096 70.299 L 231.446 70.069 L 231.446 65.709 C 231.446 64.922 231.289 64.362 230.976 64.029 C 230.663 63.696 230.186 63.529 229.546 63.529 C 229.073 63.529 228.656 63.642 228.296 63.869 C 227.936 64.096 227.646 64.406 227.426 64.799 L 227.426 70.069 L 228.786 70.299 L 228.786 71.349 ZM 239.445 74.979 C 239.011 74.979 238.541 74.919 238.035 74.799 C 237.535 74.679 237.095 74.516 236.715 74.309 L 237.135 73.039 C 237.441 73.199 237.801 73.332 238.215 73.439 C 238.628 73.546 239.031 73.599 239.425 73.599 C 240.158 73.599 240.695 73.396 241.035 72.989 C 241.375 72.576 241.545 71.989 241.545 71.229 L 241.545 70.379 C 241.251 70.752 240.898 71.036 240.485 71.229 C 240.078 71.422 239.608 71.519 239.075 71.519 C 238.348 71.519 237.718 71.339 237.185 70.979 C 236.651 70.619 236.241 70.112 235.955 69.459 C 235.675 68.812 235.535 68.059 235.535 67.199 L 235.535 67.029 C 235.535 66.062 235.675 65.216 235.955 64.489 C 236.241 63.769 236.651 63.206 237.185 62.799 C 237.718 62.399 238.355 62.199 239.095 62.199 C 239.661 62.199 240.155 62.309 240.575 62.529 C 241.001 62.756 241.361 63.079 241.655 63.499 L 241.795 62.369 L 243.175 62.369 L 243.175 71.229 C 243.175 72.009 243.031 72.676 242.745 73.229 C 242.451 73.789 242.028 74.222 241.475 74.529 C 240.915 74.829 240.238 74.979 239.445 74.979 Z M 239.485 70.199 C 239.978 70.199 240.391 70.086 240.725 69.859 C 241.051 69.632 241.325 69.316 241.545 68.909 L 241.545 64.779 C 241.331 64.392 241.058 64.089 240.725 63.869 C 240.385 63.642 239.978 63.529 239.505 63.529 C 238.978 63.529 238.545 63.679 238.205 63.979 C 237.858 64.279 237.598 64.689 237.425 65.209 C 237.251 65.736 237.165 66.342 237.165 67.029 L 237.165 67.199 C 237.165 68.099 237.358 68.822 237.745 69.369 C 238.125 69.922 238.705 70.199 239.485 70.199 Z M 244.285 63.409 L 242.925 63.699 L 242.285 62.369 L 244.285 62.369 L 244.285 63.409 Z" transform="matrix(0.6694750189781189, 0, 0, 0.6403690576553345, 54.833251953125, 22.060014724731445)" style="fill: rgb(255, 255, 255); white-space: pre;"/>
  <path d="M 168.35 88.349 L 164.01 88.349 L 164.01 87.299 L 165.37 87.069 L 165.37 77.549 L 164.01 77.319 L 164.01 76.259 L 173.1 76.259 L 173.1 79.169 L 171.79 79.169 L 171.61 77.529 L 167 77.529 L 167 81.719 L 171.42 81.719 L 171.42 82.999 L 167 82.999 L 167 87.069 L 168.35 87.299 L 168.35 88.349 ZM 176.998 88.519 C 176.064 88.519 175.354 88.292 174.868 87.839 C 174.381 87.379 174.138 86.736 174.138 85.909 C 174.138 85.336 174.291 84.839 174.598 84.419 C 174.911 83.992 175.364 83.662 175.958 83.429 C 176.551 83.196 177.261 83.079 178.088 83.079 L 179.688 83.079 L 179.688 82.199 C 179.688 81.659 179.524 81.239 179.198 80.939 C 178.864 80.639 178.398 80.489 177.798 80.489 C 177.424 80.489 177.101 80.536 176.828 80.629 C 176.548 80.716 176.294 80.839 176.068 80.999 L 175.898 82.259 L 174.628 82.259 L 174.628 80.199 C 175.034 79.872 175.504 79.626 176.038 79.459 C 176.578 79.286 177.174 79.199 177.828 79.199 C 178.914 79.199 179.768 79.459 180.388 79.979 C 181.008 80.499 181.318 81.246 181.318 82.219 L 181.318 86.539 C 181.318 86.652 181.321 86.766 181.328 86.879 C 181.328 86.992 181.334 87.102 181.348 87.209 L 182.218 87.299 L 182.218 88.349 L 179.868 88.349 C 179.821 88.102 179.784 87.882 179.758 87.689 C 179.724 87.496 179.704 87.302 179.698 87.109 C 179.378 87.516 178.981 87.852 178.508 88.119 C 178.034 88.386 177.531 88.519 176.998 88.519 Z M 177.238 87.149 C 177.778 87.149 178.274 87.019 178.728 86.759 C 179.174 86.499 179.494 86.189 179.688 85.829 L 179.688 84.199 L 178.028 84.199 C 177.274 84.199 176.711 84.379 176.338 84.739 C 175.958 85.099 175.768 85.499 175.768 85.939 C 175.768 86.332 175.891 86.632 176.138 86.839 C 176.378 87.046 176.744 87.149 177.238 87.149 ZM 187.539 88.519 C 186.725 88.519 186.019 88.332 185.419 87.959 C 184.812 87.579 184.345 87.049 184.019 86.369 C 183.685 85.696 183.519 84.916 183.519 84.029 L 183.519 83.679 C 183.519 82.832 183.679 82.069 183.999 81.389 C 184.319 80.716 184.782 80.182 185.389 79.789 C 185.989 79.396 186.705 79.199 187.539 79.199 C 188.265 79.199 188.902 79.319 189.449 79.559 C 189.995 79.799 190.452 80.126 190.819 80.539 L 190.859 82.699 L 189.589 82.699 L 189.299 81.129 C 189.112 80.936 188.879 80.779 188.599 80.659 C 188.312 80.546 187.979 80.489 187.599 80.489 C 187.112 80.489 186.685 80.632 186.319 80.919 C 185.952 81.206 185.665 81.589 185.459 82.069 C 185.252 82.556 185.149 83.092 185.149 83.679 L 185.149 84.029 C 185.149 84.682 185.245 85.252 185.439 85.739 C 185.632 86.219 185.905 86.589 186.259 86.849 C 186.619 87.116 187.045 87.249 187.539 87.249 C 188.092 87.249 188.549 87.096 188.909 86.789 C 189.275 86.482 189.502 86.066 189.589 85.539 L 191.049 85.539 L 191.069 85.589 C 191.042 86.102 190.889 86.582 190.609 87.029 C 190.335 87.476 189.942 87.836 189.429 88.109 C 188.915 88.382 188.285 88.519 187.539 88.519 ZM 195.511 88.489 C 194.844 88.489 194.314 88.296 193.921 87.909 C 193.534 87.516 193.341 86.889 193.341 86.029 L 193.341 80.579 L 191.921 80.579 L 191.921 79.369 L 193.341 79.369 L 193.341 77.199 L 194.971 77.199 L 194.971 79.369 L 196.921 79.369 L 196.921 80.579 L 194.971 80.579 L 194.971 86.029 C 194.971 86.462 195.057 86.782 195.231 86.989 C 195.404 87.196 195.634 87.299 195.921 87.299 C 196.114 87.299 196.331 87.279 196.571 87.239 C 196.804 87.206 196.987 87.176 197.121 87.149 L 197.351 88.219 C 197.111 88.292 196.817 88.356 196.471 88.409 C 196.124 88.462 195.804 88.489 195.511 88.489 ZM 202.281 88.519 C 201.454 88.519 200.741 88.326 200.141 87.939 C 199.541 87.546 199.077 87.006 198.751 86.319 C 198.424 85.632 198.261 84.846 198.261 83.959 L 198.261 83.779 C 198.261 82.892 198.424 82.102 198.751 81.409 C 199.077 80.722 199.541 80.182 200.141 79.789 C 200.741 79.396 201.451 79.199 202.271 79.199 C 203.097 79.199 203.811 79.396 204.411 79.789 C 205.011 80.182 205.474 80.722 205.801 81.409 C 206.127 82.096 206.291 82.886 206.291 83.779 L 206.291 83.959 C 206.291 84.852 206.127 85.642 205.801 86.329 C 205.474 87.016 205.014 87.552 204.421 87.939 C 203.821 88.326 203.107 88.519 202.281 88.519 Z M 202.281 87.249 C 202.801 87.249 203.237 87.106 203.591 86.819 C 203.944 86.532 204.211 86.142 204.391 85.649 C 204.571 85.156 204.661 84.592 204.661 83.959 L 204.661 83.779 C 204.661 83.146 204.571 82.582 204.391 82.089 C 204.211 81.589 203.944 81.199 203.591 80.919 C 203.237 80.632 202.797 80.489 202.271 80.489 C 201.751 80.489 201.314 80.632 200.961 80.919 C 200.601 81.199 200.334 81.589 200.161 82.089 C 199.981 82.582 199.891 83.146 199.891 83.779 L 199.891 83.959 C 199.891 84.592 199.981 85.156 200.161 85.649 C 200.334 86.142 200.601 86.532 200.961 86.819 C 201.314 87.106 201.754 87.249 202.281 87.249 ZM 211.875 88.349 L 207.535 88.349 L 207.535 87.299 L 208.885 87.069 L 208.885 80.659 L 207.535 80.419 L 207.535 79.369 L 210.345 79.369 L 210.485 80.509 L 210.505 80.669 C 210.759 80.209 211.072 79.849 211.445 79.589 C 211.819 79.329 212.245 79.199 212.725 79.199 C 212.899 79.199 213.075 79.216 213.255 79.249 C 213.435 79.276 213.565 79.306 213.645 79.339 L 213.425 80.849 L 212.285 80.789 C 211.859 80.762 211.499 80.859 211.205 81.079 C 210.912 81.306 210.685 81.606 210.525 81.979 L 210.525 87.069 L 211.875 87.299 L 211.875 88.349 Z" transform="matrix(0.6694750189781189, 0, 0, 0.6403690576553345, 54.833251953125, 22.060014724731445)" style="fill: rgb(255, 255, 255); white-space: pre;"/>
  <path d="M 57.647 30.333 H 83.662 L 83.662 25.13 L 93.908 32.067 L 83.662 39.004 L 83.662 33.801 H 57.647 V 30.333 Z" style="fill: rgb(216, 216, 216);" transform="matrix(-0.99995, -0.01, 0.01, -0.99995, 211.184677, 98.518517)" bx:shape="arrow 57.647 25.13 36.261 13.874 3.468 10.246 0 1@8cd2c491"/>
  <path d="M 57.647 30.333 H 83.662 L 83.662 25.13 L 93.908 32.067 L 83.662 39.004 L 83.662 33.801 H 57.647 V 30.333 Z" style="fill: rgb(216, 216, 216);" transform="matrix(0.93714, -0.348955, 0.348955, 0.93714, 159.689102, 54.160286)" bx:shape="arrow 57.647 25.13 36.261 13.874 3.468 10.246 0 1@8cd2c491"/>
  <path d="M 57.647 30.333 H 83.662 L 83.662 25.13 L 93.908 32.067 L 83.662 39.004 L 83.662 33.801 H 57.647 V 30.333 Z" style="fill: rgb(216, 216, 216);" transform="matrix(0.703336, 0.710857, -0.710857, 0.703336, 187.894089, 11.922213)" bx:shape="arrow 57.647 25.13 36.261 13.874 3.468 10.246 0 1@8cd2c491"/>
  <path d="M 57.647 30.333 H 83.662 L 83.662 25.13 L 93.908 32.067 L 83.662 39.004 L 83.662 33.801 H 57.647 V 30.333 Z" style="fill: rgb(216, 216, 216);" transform="matrix(-0.315213, 0.949021, -0.949021, -0.315213, 210.999176, 45.504101)" bx:shape="arrow 57.647 25.13 36.261 13.874 3.468 10.246 0 1@8cd2c491"/>
</svg>