<?xml version="1.0" encoding="utf-8"?>
<svg viewBox="0 0 500 270" xmlns="http://www.w3.org/2000/svg" xmlns:bx="https://boxy-svg.com">
  <rect x="-0.987" y="0.601" width="500" height="270.254" style=""/>
  <circle style="fill: rgb(93, 98, 234);" cx="47.733" cy="89.886" r="19.168" transform="matrix(0.907245, 0, 0, 0.913313, 12.121781, -1.755372)"/>
  <line style="stroke-width: 7px; stroke: rgb(255, 255, 255);" x1="147.431" y1="129.032" x2="175.039" y2="81.622"/>
  <circle style="fill: rgb(93, 98, 234);" cx="179.298" cy="89.886" r="19.168" transform="matrix(0.907245, 0, 0, 0.913313, 12.121781, -1.755372)"/>
  <circle style="fill: rgb(93, 98, 234);" cx="147.973" cy="145.376" r="19.168" transform="matrix(0.907245, 0, 0, 0.913313, 12.121781, -1.755372)"/>
  <line style="stroke-width: 7px; stroke: rgb(255, 255, 255);" x1="238.373" y1="182.982" x2="300.895" y2="79.169"/>
  <circle style="fill: rgb(93, 98, 234);" cx="315.338" cy="87.201" r="19.168" transform="matrix(0.907245, 0, 0, 0.913313, 12.121781, -1.755372)"/>
  <circle style="fill: rgb(93, 98, 234);" cx="284.013" cy="143.586" r="19.168" transform="matrix(0.907245, 0, 0, 0.913313, 12.121781, -1.755372)"/>
  <circle style="fill: rgb(93, 98, 234);" cx="253.583" cy="199.076" r="19.168" transform="matrix(0.907245, 0, 0, 0.913313, 12.121781, -1.755372)"/>
  <line style="stroke-width: 7px; stroke: rgb(255, 255, 255);" x1="357.734" y1="219.765" x2="450.3" y2="71.812"/>
  <circle style="fill: rgb(93, 98, 234);" cx="480.018" cy="83.621" r="19.168" transform="matrix(0.907245, 0, 0, 0.913313, 12.121781, -1.755372)"/>
  <circle style="fill: rgb(93, 98, 234);" cx="449.588" cy="135.531" r="19.168" transform="matrix(0.907245, 0, 0, 0.913313, 12.121781, -1.755372)"/>
  <circle style="fill: rgb(93, 98, 234);" cx="419.158" cy="184.756" r="19.168" transform="matrix(0.907245, 0, 0, 0.913313, 12.121781, -1.755372)"/>
  <circle style="fill: rgb(93, 98, 234);" cx="386.043" cy="237.561" r="19.168" transform="matrix(0.907245, 0, 0, 0.913313, 12.121781, -1.755372)"/>
  <path d="M 96.073 74.372 H 114.697 L 114.697 64.569 L 138.364 77.639 L 114.697 90.709 L 114.697 80.907 H 96.073 V 74.372 Z" style="fill: rgb(216, 216, 216);" bx:shape="arrow 96.073 64.569 42.291 26.14 6.535 23.667 0 1@06cd2400"/>
  <path d="M 348.126 72.68 H 366.75 L 366.75 62.877 L 390.417 75.947 L 366.75 89.017 L 366.75 79.215 H 348.126 V 72.68 Z" style="fill: rgb(216, 216, 216);" bx:shape="arrow 348.126 62.877 42.291 26.14 6.535 23.667 0 1@1a58226a"/>
  <path d="M 216.179 72.68 H 234.803 L 234.803 62.877 L 258.47 75.947 L 234.803 89.017 L 234.803 79.215 H 216.179 V 72.68 Z" style="fill: rgb(216, 216, 216);" bx:shape="arrow 216.179 62.877 42.291 26.14 6.535 23.667 0 1@5c5e4990"/>
  <path d="M 59.724 85.591 L 53.254 85.591 L 53.254 84.031 L 55.274 83.681 L 55.274 81.421 L 47.164 81.421 L 47.164 80.051 L 55.124 67.531 L 57.704 67.531 L 57.704 79.511 L 60.204 79.511 L 60.204 81.421 L 57.704 81.421 L 57.704 83.681 L 59.724 84.031 L 59.724 85.591 Z M 54.954 71.651 L 49.774 79.511 L 55.274 79.511 L 55.274 71.021 L 55.204 70.991 L 54.954 71.651 Z" transform="matrix(1, 0, 0, 1, 0, 0)" style="fill: rgb(255, 255, 255); white-space: pre;"/>
  <path d="M 179.225 87.582 L 172.755 87.582 L 172.755 86.022 L 174.775 85.672 L 174.775 83.412 L 166.665 83.412 L 166.665 82.042 L 174.625 69.522 L 177.205 69.522 L 177.205 81.502 L 179.705 81.502 L 179.705 83.412 L 177.205 83.412 L 177.205 85.672 L 179.225 86.022 L 179.225 87.582 Z M 174.455 73.642 L 169.275 81.502 L 174.775 81.502 L 174.775 73.012 L 174.705 72.982 L 174.455 73.642 Z" transform="matrix(1, 0, 0, 1, 0, 0)" style="fill: rgb(255, 255, 255); white-space: pre;"/>
  <path d="M 304.038 84.927 L 297.568 84.927 L 297.568 83.367 L 299.588 83.017 L 299.588 80.757 L 291.478 80.757 L 291.478 79.387 L 299.438 66.867 L 302.018 66.867 L 302.018 78.847 L 304.518 78.847 L 304.518 80.757 L 302.018 80.757 L 302.018 83.017 L 304.038 83.367 L 304.038 84.927 Z M 299.268 70.987 L 294.088 78.847 L 299.588 78.847 L 299.588 70.357 L 299.518 70.327 L 299.268 70.987 Z" transform="matrix(1, 0, 0, 1, 0, 0)" style="fill: rgb(255, 255, 255); white-space: pre;"/>
  <path d="M 452.087 81.607 L 445.617 81.607 L 445.617 80.047 L 447.637 79.697 L 447.637 77.437 L 439.527 77.437 L 439.527 76.067 L 447.487 63.547 L 450.067 63.547 L 450.067 75.527 L 452.567 75.527 L 452.567 77.437 L 450.067 77.437 L 450.067 79.697 L 452.087 80.047 L 452.087 81.607 Z M 447.317 67.667 L 442.137 75.527 L 447.637 75.527 L 447.637 67.037 L 447.567 67.007 L 447.317 67.667 Z" transform="matrix(1, 0, 0, 1, 0, 0)" style="fill: rgb(255, 255, 255); white-space: pre;"/>
  <path d="M 419.867 130.553 C 418.767 130.553 417.787 130.353 416.927 129.953 C 416.067 129.553 415.397 128.983 414.917 128.243 C 414.43 127.503 414.2 126.623 414.227 125.603 L 414.267 125.533 L 416.597 125.533 C 416.597 126.166 416.73 126.716 416.997 127.183 C 417.257 127.643 417.63 128.003 418.117 128.263 C 418.61 128.516 419.194 128.643 419.867 128.643 C 420.9 128.643 421.71 128.363 422.297 127.803 C 422.884 127.236 423.177 126.403 423.177 125.303 C 423.177 124.19 422.917 123.37 422.397 122.843 C 421.877 122.31 421.057 122.043 419.937 122.043 L 417.797 122.043 L 417.797 120.133 L 419.937 120.133 C 420.65 120.133 421.227 120.013 421.667 119.773 C 422.107 119.526 422.424 119.173 422.617 118.713 C 422.81 118.253 422.907 117.703 422.907 117.063 C 422.907 116.03 422.65 115.243 422.137 114.703 C 421.624 114.163 420.867 113.893 419.867 113.893 C 419.234 113.893 418.68 114.02 418.207 114.273 C 417.734 114.526 417.367 114.883 417.107 115.343 C 416.847 115.803 416.717 116.343 416.717 116.963 L 414.377 116.963 L 414.347 116.883 C 414.327 115.976 414.547 115.15 415.007 114.403 C 415.46 113.663 416.107 113.073 416.947 112.633 C 417.787 112.193 418.76 111.973 419.867 111.973 C 421.54 111.973 422.874 112.416 423.867 113.303 C 424.86 114.196 425.357 115.466 425.357 117.113 C 425.357 117.853 425.13 118.593 424.677 119.333 C 424.224 120.073 423.547 120.64 422.647 121.033 C 423.734 121.386 424.5 121.943 424.947 122.703 C 425.4 123.463 425.627 124.313 425.627 125.253 C 425.627 126.353 425.38 127.3 424.887 128.093 C 424.394 128.88 423.714 129.486 422.847 129.913 C 421.98 130.34 420.987 130.553 419.867 130.553 Z" transform="matrix(1, 0, 0, 1, 0, 0)" style="fill: rgb(255, 255, 255); white-space: pre;"/>
  <path d="M 397.429 176.765 L 385.729 176.765 L 385.729 175.095 L 391.649 168.515 C 392.349 167.728 392.899 167.058 393.299 166.505 C 393.692 165.945 393.969 165.438 394.129 164.985 C 394.289 164.532 394.369 164.058 394.369 163.565 C 394.369 162.665 394.096 161.908 393.549 161.295 C 393.002 160.675 392.219 160.365 391.199 160.365 C 390.139 160.365 389.316 160.685 388.729 161.325 C 388.136 161.958 387.839 162.858 387.839 164.025 L 385.499 164.025 L 385.469 163.955 C 385.449 162.915 385.669 161.978 386.129 161.145 C 386.589 160.312 387.262 159.655 388.149 159.175 C 389.029 158.688 390.076 158.445 391.289 158.445 C 392.429 158.445 393.409 158.662 394.229 159.095 C 395.056 159.528 395.692 160.122 396.139 160.875 C 396.586 161.628 396.809 162.492 396.809 163.465 C 396.809 164.132 396.679 164.792 396.419 165.445 C 396.159 166.098 395.779 166.768 395.279 167.455 C 394.779 168.142 394.176 168.865 393.469 169.625 L 388.719 174.795 L 388.749 174.855 L 395.159 174.855 L 395.359 172.785 L 397.429 172.785 L 397.429 176.765 Z" transform="matrix(1, 0, 0, 1, 0, 0)" style="fill: rgb(255, 255, 255); white-space: pre;"/>
  <path d="M 367.483 224.897 L 359.473 224.897 L 359.473 223.337 L 362.263 222.987 L 362.263 209.457 L 359.423 209.507 L 359.423 207.977 L 364.703 206.837 L 364.703 222.987 L 367.483 223.337 L 367.483 224.897 Z" transform="matrix(1, 0, 0, 1, 0, 0)" style="fill: rgb(255, 255, 255); white-space: pre;"/>
  <path d="M 271.044 138.852 C 269.944 138.852 268.964 138.652 268.104 138.252 C 267.244 137.852 266.574 137.282 266.094 136.542 C 265.607 135.802 265.377 134.922 265.404 133.902 L 265.444 133.832 L 267.774 133.832 C 267.774 134.465 267.907 135.015 268.174 135.482 C 268.434 135.942 268.807 136.302 269.294 136.562 C 269.787 136.815 270.371 136.942 271.044 136.942 C 272.077 136.942 272.887 136.662 273.474 136.102 C 274.061 135.535 274.354 134.702 274.354 133.602 C 274.354 132.489 274.094 131.669 273.574 131.142 C 273.054 130.609 272.234 130.342 271.114 130.342 L 268.974 130.342 L 268.974 128.432 L 271.114 128.432 C 271.827 128.432 272.404 128.312 272.844 128.072 C 273.284 127.825 273.601 127.472 273.794 127.012 C 273.987 126.552 274.084 126.002 274.084 125.362 C 274.084 124.329 273.827 123.542 273.314 123.002 C 272.801 122.462 272.044 122.192 271.044 122.192 C 270.411 122.192 269.857 122.319 269.384 122.572 C 268.911 122.825 268.544 123.182 268.284 123.642 C 268.024 124.102 267.894 124.642 267.894 125.262 L 265.554 125.262 L 265.524 125.182 C 265.504 124.275 265.724 123.449 266.184 122.702 C 266.637 121.962 267.284 121.372 268.124 120.932 C 268.964 120.492 269.937 120.272 271.044 120.272 C 272.717 120.272 274.051 120.715 275.044 121.602 C 276.037 122.495 276.534 123.765 276.534 125.412 C 276.534 126.152 276.307 126.892 275.854 127.632 C 275.401 128.372 274.724 128.939 273.824 129.332 C 274.911 129.685 275.677 130.242 276.124 131.002 C 276.577 131.762 276.804 132.612 276.804 133.552 C 276.804 134.652 276.557 135.599 276.064 136.392 C 275.571 137.179 274.891 137.785 274.024 138.212 C 273.157 138.639 272.164 138.852 271.044 138.852 Z" transform="matrix(1, 0, 0, 1, 0, 0)" style="fill: rgb(255, 255, 255); white-space: pre;"/>
  <path d="M 247.499 188.937 L 235.799 188.937 L 235.799 187.267 L 241.719 180.687 C 242.419 179.9 242.969 179.23 243.369 178.677 C 243.762 178.117 244.039 177.61 244.199 177.157 C 244.359 176.704 244.439 176.23 244.439 175.737 C 244.439 174.837 244.166 174.08 243.619 173.467 C 243.072 172.847 242.289 172.537 241.269 172.537 C 240.209 172.537 239.386 172.857 238.799 173.497 C 238.206 174.13 237.909 175.03 237.909 176.197 L 235.569 176.197 L 235.539 176.127 C 235.519 175.087 235.739 174.15 236.199 173.317 C 236.659 172.484 237.332 171.827 238.219 171.347 C 239.099 170.86 240.146 170.617 241.359 170.617 C 242.499 170.617 243.479 170.834 244.299 171.267 C 245.126 171.7 245.762 172.294 246.209 173.047 C 246.656 173.8 246.879 174.664 246.879 175.637 C 246.879 176.304 246.749 176.964 246.489 177.617 C 246.229 178.27 245.849 178.94 245.349 179.627 C 244.849 180.314 244.246 181.037 243.539 181.797 L 238.789 186.967 L 238.819 187.027 L 245.229 187.027 L 245.429 184.957 L 247.499 184.957 L 247.499 188.937 Z" transform="matrix(1, 0, 0, 1, 0, 0)" style="fill: rgb(255, 255, 255); white-space: pre;"/>
  <path d="M 146.011 140.511 C 144.911 140.511 143.931 140.311 143.071 139.911 C 142.211 139.511 141.541 138.941 141.061 138.201 C 140.574 137.461 140.344 136.581 140.371 135.561 L 140.411 135.491 L 142.741 135.491 C 142.741 136.124 142.874 136.674 143.141 137.141 C 143.401 137.601 143.774 137.961 144.261 138.221 C 144.754 138.474 145.338 138.601 146.011 138.601 C 147.044 138.601 147.854 138.321 148.441 137.761 C 149.028 137.194 149.321 136.361 149.321 135.261 C 149.321 134.148 149.061 133.328 148.541 132.801 C 148.021 132.268 147.201 132.001 146.081 132.001 L 143.941 132.001 L 143.941 130.091 L 146.081 130.091 C 146.794 130.091 147.371 129.971 147.811 129.731 C 148.251 129.484 148.568 129.131 148.761 128.671 C 148.954 128.211 149.051 127.661 149.051 127.021 C 149.051 125.988 148.794 125.201 148.281 124.661 C 147.768 124.121 147.011 123.851 146.011 123.851 C 145.378 123.851 144.824 123.978 144.351 124.231 C 143.878 124.484 143.511 124.841 143.251 125.301 C 142.991 125.761 142.861 126.301 142.861 126.921 L 140.521 126.921 L 140.491 126.841 C 140.471 125.934 140.691 125.108 141.151 124.361 C 141.604 123.621 142.251 123.031 143.091 122.591 C 143.931 122.151 144.904 121.931 146.011 121.931 C 147.684 121.931 149.018 122.374 150.011 123.261 C 151.004 124.154 151.501 125.424 151.501 127.071 C 151.501 127.811 151.274 128.551 150.821 129.291 C 150.368 130.031 149.691 130.598 148.791 130.991 C 149.878 131.344 150.644 131.901 151.091 132.661 C 151.544 133.421 151.771 134.271 151.771 135.211 C 151.771 136.311 151.524 137.258 151.031 138.051 C 150.538 138.838 149.858 139.444 148.991 139.871 C 148.124 140.298 147.131 140.511 146.011 140.511 Z" transform="matrix(1, 0, 0, 1, 0, 0)" style="fill: rgb(255, 255, 255); white-space: pre;"/>
  <path d="M 43.395 44.12 L 39.015 44.12 L 39.015 43.06 L 40.295 42.82 L 40.295 32.84 L 38.935 32.61 L 38.935 31.54 L 41.715 31.54 L 41.865 32.65 C 42.172 32.237 42.542 31.92 42.975 31.7 C 43.408 31.48 43.912 31.37 44.485 31.37 C 45.232 31.37 45.872 31.573 46.405 31.98 C 46.938 32.387 47.345 32.957 47.625 33.69 C 47.905 34.417 48.045 35.27 48.045 36.25 L 48.045 36.43 C 48.045 37.303 47.902 38.067 47.615 38.72 C 47.335 39.38 46.932 39.893 46.405 40.26 C 45.878 40.627 45.245 40.81 44.505 40.81 C 43.945 40.81 43.455 40.717 43.035 40.53 C 42.608 40.337 42.248 40.057 41.955 39.69 L 41.955 42.82 L 43.395 43.06 L 43.395 44.12 Z M 43.995 39.51 C 44.782 39.51 45.375 39.227 45.775 38.66 C 46.175 38.087 46.375 37.343 46.375 36.43 L 46.375 36.25 C 46.375 35.557 46.288 34.947 46.115 34.42 C 45.935 33.893 45.665 33.477 45.305 33.17 C 44.952 32.87 44.508 32.72 43.975 32.72 C 43.508 32.72 43.105 32.827 42.765 33.04 C 42.432 33.253 42.162 33.543 41.955 33.91 L 41.955 38.34 C 42.162 38.713 42.432 39.003 42.765 39.21 C 43.098 39.41 43.508 39.51 43.995 39.51 ZM 53.318 40.81 C 52.331 40.81 51.561 40.493 51.008 39.86 C 50.455 39.227 50.178 38.24 50.178 36.9 L 50.178 32.84 L 49.138 32.61 L 49.138 31.54 L 50.178 31.54 L 51.828 31.54 L 51.828 36.92 C 51.828 37.887 51.971 38.553 52.258 38.92 C 52.545 39.28 52.991 39.46 53.598 39.46 C 54.185 39.46 54.668 39.343 55.048 39.11 C 55.435 38.87 55.725 38.53 55.918 38.09 L 55.918 32.84 L 54.698 32.61 L 54.698 31.54 L 55.918 31.54 L 57.578 31.54 L 57.578 39.34 L 58.618 39.57 L 58.618 40.63 L 56.088 40.63 L 55.978 39.29 C 55.691 39.777 55.325 40.15 54.878 40.41 C 54.425 40.677 53.905 40.81 53.318 40.81 ZM 63.454 40.81 C 62.841 40.81 62.271 40.747 61.744 40.62 C 61.211 40.5 60.644 40.31 60.044 40.05 L 60.024 37.89 L 61.274 37.89 L 61.594 39.19 C 61.907 39.323 62.211 39.42 62.504 39.48 C 62.797 39.533 63.114 39.56 63.454 39.56 C 64.127 39.56 64.607 39.433 64.894 39.18 C 65.187 38.92 65.334 38.6 65.334 38.22 C 65.334 37.86 65.187 37.557 64.894 37.31 C 64.601 37.057 64.067 36.843 63.294 36.67 C 62.194 36.423 61.387 36.087 60.874 35.66 C 60.354 35.24 60.094 34.677 60.094 33.97 C 60.094 33.477 60.237 33.037 60.524 32.65 C 60.811 32.257 61.207 31.947 61.714 31.72 C 62.227 31.487 62.821 31.37 63.494 31.37 C 64.187 31.37 64.777 31.45 65.264 31.61 C 65.751 31.77 66.177 31.98 66.544 32.24 L 66.624 34.31 L 65.384 34.31 L 65.114 33.11 C 64.921 32.963 64.691 32.85 64.424 32.77 C 64.151 32.69 63.841 32.65 63.494 32.65 C 62.981 32.65 62.564 32.77 62.244 33.01 C 61.917 33.25 61.754 33.553 61.754 33.92 C 61.754 34.133 61.801 34.317 61.894 34.47 C 61.987 34.63 62.167 34.773 62.434 34.9 C 62.694 35.027 63.077 35.15 63.584 35.27 C 64.851 35.57 65.734 35.95 66.234 36.41 C 66.741 36.863 66.994 37.427 66.994 38.1 C 66.994 38.867 66.707 39.51 66.134 40.03 C 65.567 40.55 64.674 40.81 63.454 40.81 ZM 72.537 40.63 L 68.147 40.63 L 68.147 39.57 L 69.517 39.34 L 69.517 28.83 L 68.147 28.6 L 68.147 27.53 L 71.167 27.53 L 71.167 32.75 C 71.487 32.317 71.874 31.98 72.327 31.74 C 72.781 31.493 73.284 31.37 73.837 31.37 C 74.811 31.37 75.564 31.663 76.097 32.25 C 76.637 32.83 76.907 33.727 76.907 34.94 L 76.907 39.34 L 78.277 39.57 L 78.277 40.63 L 73.887 40.63 L 73.887 39.57 L 75.257 39.34 L 75.257 34.92 C 75.257 34.167 75.094 33.613 74.767 33.26 C 74.447 32.9 73.967 32.72 73.327 32.72 C 72.874 32.72 72.461 32.827 72.087 33.04 C 71.721 33.26 71.414 33.553 71.167 33.92 L 71.167 39.34 L 72.537 39.57 L 72.537 40.63 ZM 83.931 44.52 L 83.881 44.52 C 83.394 44.253 82.904 43.857 82.411 43.33 C 81.924 42.803 81.478 42.16 81.071 41.4 C 80.671 40.64 80.348 39.783 80.101 38.83 C 79.861 37.883 79.741 36.853 79.741 35.74 L 79.741 35.67 C 79.741 34.563 79.861 33.533 80.101 32.58 C 80.348 31.633 80.671 30.777 81.071 30.01 C 81.478 29.25 81.924 28.603 82.411 28.07 C 82.904 27.543 83.394 27.15 83.881 26.89 L 83.931 26.9 L 84.241 27.87 C 83.854 28.177 83.491 28.57 83.151 29.05 C 82.804 29.53 82.501 30.097 82.241 30.75 C 81.981 31.41 81.774 32.147 81.621 32.96 C 81.468 33.78 81.391 34.677 81.391 35.65 L 81.391 35.76 C 81.391 36.733 81.468 37.63 81.621 38.45 C 81.774 39.263 81.981 40 82.241 40.66 C 82.501 41.32 82.801 41.897 83.141 42.39 C 83.488 42.877 83.854 43.283 84.241 43.61 L 83.931 44.52 ZM 93.381 40.63 L 88.991 40.63 L 88.991 39.57 L 90.361 39.34 L 90.361 37.81 L 84.871 37.81 L 84.871 36.88 L 90.261 28.4 L 92.011 28.4 L 92.011 36.51 L 93.701 36.51 L 93.701 37.81 L 92.011 37.81 L 92.011 39.34 L 93.381 39.57 L 93.381 40.63 Z M 90.141 31.19 L 86.631 36.51 L 90.361 36.51 L 90.361 30.76 L 90.311 30.75 L 90.141 31.19 ZM 94.76 44.52 L 94.71 44.52 L 94.4 43.61 C 94.78 43.317 95.143 42.927 95.49 42.44 C 95.83 41.947 96.13 41.37 96.39 40.71 C 96.656 40.043 96.866 39.297 97.02 38.47 C 97.173 37.637 97.25 36.733 97.25 35.76 L 97.25 35.65 C 97.25 34.69 97.17 33.8 97.01 32.98 C 96.85 32.153 96.636 31.41 96.37 30.75 C 96.096 30.083 95.793 29.5 95.46 29 C 95.12 28.507 94.766 28.107 94.4 27.8 L 94.71 26.89 L 94.76 26.89 C 95.246 27.15 95.733 27.543 96.22 28.07 C 96.713 28.603 97.16 29.25 97.56 30.01 C 97.966 30.777 98.293 31.633 98.54 32.58 C 98.78 33.533 98.9 34.563 98.9 35.67 L 98.9 35.74 C 98.9 36.853 98.78 37.883 98.54 38.83 C 98.293 39.783 97.966 40.64 97.56 41.4 C 97.16 42.16 96.713 42.803 96.22 43.33 C 95.733 43.857 95.246 44.253 94.76 44.52 ZM 151.575 44.12 L 147.195 44.12 L 147.195 43.06 L 148.475 42.82 L 148.475 32.84 L 147.115 32.61 L 147.115 31.54 L 149.895 31.54 L 150.045 32.65 C 150.352 32.237 150.722 31.92 151.155 31.7 C 151.588 31.48 152.092 31.37 152.665 31.37 C 153.412 31.37 154.052 31.573 154.585 31.98 C 155.118 32.387 155.525 32.957 155.805 33.69 C 156.085 34.417 156.225 35.27 156.225 36.25 L 156.225 36.43 C 156.225 37.303 156.082 38.067 155.795 38.72 C 155.515 39.38 155.112 39.893 154.585 40.26 C 154.058 40.627 153.425 40.81 152.685 40.81 C 152.125 40.81 151.635 40.717 151.215 40.53 C 150.788 40.337 150.428 40.057 150.135 39.69 L 150.135 42.82 L 151.575 43.06 L 151.575 44.12 Z M 152.175 39.51 C 152.962 39.51 153.555 39.227 153.955 38.66 C 154.355 38.087 154.555 37.343 154.555 36.43 L 154.555 36.25 C 154.555 35.557 154.468 34.947 154.295 34.42 C 154.115 33.893 153.845 33.477 153.485 33.17 C 153.132 32.87 152.688 32.72 152.155 32.72 C 151.688 32.72 151.285 32.827 150.945 33.04 C 150.612 33.253 150.342 33.543 150.135 33.91 L 150.135 38.34 C 150.342 38.713 150.612 39.003 150.945 39.21 C 151.278 39.41 151.688 39.51 152.175 39.51 ZM 161.498 40.81 C 160.511 40.81 159.741 40.493 159.188 39.86 C 158.635 39.227 158.358 38.24 158.358 36.9 L 158.358 32.84 L 157.318 32.61 L 157.318 31.54 L 158.358 31.54 L 160.008 31.54 L 160.008 36.92 C 160.008 37.887 160.151 38.553 160.438 38.92 C 160.725 39.28 161.171 39.46 161.778 39.46 C 162.365 39.46 162.848 39.343 163.228 39.11 C 163.615 38.87 163.905 38.53 164.098 38.09 L 164.098 32.84 L 162.878 32.61 L 162.878 31.54 L 164.098 31.54 L 165.758 31.54 L 165.758 39.34 L 166.798 39.57 L 166.798 40.63 L 164.268 40.63 L 164.158 39.29 C 163.871 39.777 163.505 40.15 163.058 40.41 C 162.605 40.677 162.085 40.81 161.498 40.81 ZM 171.634 40.81 C 171.021 40.81 170.451 40.747 169.924 40.62 C 169.391 40.5 168.824 40.31 168.224 40.05 L 168.204 37.89 L 169.454 37.89 L 169.774 39.19 C 170.087 39.323 170.391 39.42 170.684 39.48 C 170.977 39.533 171.294 39.56 171.634 39.56 C 172.307 39.56 172.787 39.433 173.074 39.18 C 173.367 38.92 173.514 38.6 173.514 38.22 C 173.514 37.86 173.367 37.557 173.074 37.31 C 172.781 37.057 172.247 36.843 171.474 36.67 C 170.374 36.423 169.567 36.087 169.054 35.66 C 168.534 35.24 168.274 34.677 168.274 33.97 C 168.274 33.477 168.417 33.037 168.704 32.65 C 168.991 32.257 169.387 31.947 169.894 31.72 C 170.407 31.487 171.001 31.37 171.674 31.37 C 172.367 31.37 172.957 31.45 173.444 31.61 C 173.931 31.77 174.357 31.98 174.724 32.24 L 174.804 34.31 L 173.564 34.31 L 173.294 33.11 C 173.101 32.963 172.871 32.85 172.604 32.77 C 172.331 32.69 172.021 32.65 171.674 32.65 C 171.161 32.65 170.744 32.77 170.424 33.01 C 170.097 33.25 169.934 33.553 169.934 33.92 C 169.934 34.133 169.981 34.317 170.074 34.47 C 170.167 34.63 170.347 34.773 170.614 34.9 C 170.874 35.027 171.257 35.15 171.764 35.27 C 173.031 35.57 173.914 35.95 174.414 36.41 C 174.921 36.863 175.174 37.427 175.174 38.1 C 175.174 38.867 174.887 39.51 174.314 40.03 C 173.747 40.55 172.854 40.81 171.634 40.81 ZM 180.717 40.63 L 176.327 40.63 L 176.327 39.57 L 177.697 39.34 L 177.697 28.83 L 176.327 28.6 L 176.327 27.53 L 179.347 27.53 L 179.347 32.75 C 179.667 32.317 180.054 31.98 180.507 31.74 C 180.961 31.493 181.464 31.37 182.017 31.37 C 182.991 31.37 183.744 31.663 184.277 32.25 C 184.817 32.83 185.087 33.727 185.087 34.94 L 185.087 39.34 L 186.457 39.57 L 186.457 40.63 L 182.067 40.63 L 182.067 39.57 L 183.437 39.34 L 183.437 34.92 C 183.437 34.167 183.274 33.613 182.947 33.26 C 182.627 32.9 182.147 32.72 181.507 32.72 C 181.054 32.72 180.641 32.827 180.267 33.04 C 179.901 33.26 179.594 33.553 179.347 33.92 L 179.347 39.34 L 180.717 39.57 L 180.717 40.63 ZM 192.111 44.52 L 192.061 44.52 C 191.575 44.253 191.085 43.857 190.591 43.33 C 190.105 42.803 189.658 42.16 189.251 41.4 C 188.851 40.64 188.528 39.783 188.281 38.83 C 188.041 37.883 187.921 36.853 187.921 35.74 L 187.921 35.67 C 187.921 34.563 188.041 33.533 188.281 32.58 C 188.528 31.633 188.851 30.777 189.251 30.01 C 189.658 29.25 190.105 28.603 190.591 28.07 C 191.085 27.543 191.575 27.15 192.061 26.89 L 192.111 26.9 L 192.421 27.87 C 192.035 28.177 191.671 28.57 191.331 29.05 C 190.985 29.53 190.681 30.097 190.421 30.75 C 190.161 31.41 189.955 32.147 189.801 32.96 C 189.648 33.78 189.571 34.677 189.571 35.65 L 189.571 35.76 C 189.571 36.733 189.648 37.63 189.801 38.45 C 189.955 39.263 190.161 40 190.421 40.66 C 190.681 41.32 190.981 41.897 191.321 42.39 C 191.668 42.877 192.035 43.283 192.421 43.61 L 192.111 44.52 ZM 196.971 40.81 C 196.224 40.81 195.561 40.673 194.981 40.4 C 194.401 40.127 193.948 39.74 193.621 39.24 C 193.288 38.74 193.131 38.147 193.151 37.46 L 193.181 37.41 L 194.751 37.41 C 194.751 37.837 194.841 38.207 195.021 38.52 C 195.201 38.833 195.458 39.077 195.791 39.25 C 196.118 39.423 196.511 39.51 196.971 39.51 C 197.671 39.51 198.221 39.32 198.621 38.94 C 199.014 38.56 199.211 37.997 199.211 37.25 C 199.211 36.497 199.034 35.94 198.681 35.58 C 198.334 35.227 197.778 35.05 197.011 35.05 L 195.571 35.05 L 195.571 33.75 L 197.011 33.75 C 197.498 33.75 197.891 33.667 198.191 33.5 C 198.484 33.34 198.698 33.103 198.831 32.79 C 198.964 32.477 199.031 32.103 199.031 31.67 C 199.031 30.97 198.858 30.437 198.511 30.07 C 198.164 29.71 197.651 29.53 196.971 29.53 C 196.538 29.53 196.164 29.613 195.851 29.78 C 195.531 29.953 195.281 30.197 195.101 30.51 C 194.928 30.817 194.841 31.18 194.841 31.6 L 193.251 31.6 L 193.231 31.55 C 193.218 30.937 193.364 30.377 193.671 29.87 C 193.984 29.37 194.424 28.97 194.991 28.67 C 195.564 28.377 196.224 28.23 196.971 28.23 C 198.104 28.23 199.008 28.53 199.681 29.13 C 200.348 29.73 200.681 30.587 200.681 31.7 C 200.681 32.207 200.531 32.71 200.231 33.21 C 199.924 33.71 199.464 34.093 198.851 34.36 C 199.584 34.6 200.104 34.977 200.411 35.49 C 200.718 36.003 200.871 36.58 200.871 37.22 C 200.871 37.967 200.704 38.607 200.371 39.14 C 200.038 39.673 199.578 40.083 198.991 40.37 C 198.398 40.663 197.724 40.81 196.971 40.81 ZM 202.26 44.52 L 202.21 44.52 L 201.9 43.61 C 202.28 43.317 202.643 42.927 202.99 42.44 C 203.33 41.947 203.63 41.37 203.89 40.71 C 204.156 40.043 204.366 39.297 204.52 38.47 C 204.673 37.637 204.75 36.733 204.75 35.76 L 204.75 35.65 C 204.75 34.69 204.67 33.8 204.51 32.98 C 204.35 32.153 204.136 31.41 203.87 30.75 C 203.596 30.083 203.293 29.5 202.96 29 C 202.62 28.507 202.266 28.107 201.9 27.8 L 202.21 26.89 L 202.26 26.89 C 202.746 27.15 203.233 27.543 203.72 28.07 C 204.213 28.603 204.66 29.25 205.06 30.01 C 205.466 30.777 205.793 31.633 206.04 32.58 C 206.28 33.533 206.4 34.563 206.4 35.67 L 206.4 35.74 C 206.4 36.853 206.28 37.883 206.04 38.83 C 205.793 39.783 205.466 40.64 205.06 41.4 C 204.66 42.16 204.213 42.803 203.72 43.33 C 203.233 43.857 202.746 44.253 202.26 44.52 ZM 271.899 44.12 L 267.519 44.12 L 267.519 43.06 L 268.799 42.82 L 268.799 32.84 L 267.439 32.61 L 267.439 31.54 L 270.219 31.54 L 270.369 32.65 C 270.676 32.237 271.046 31.92 271.479 31.7 C 271.913 31.48 272.416 31.37 272.989 31.37 C 273.736 31.37 274.376 31.573 274.909 31.98 C 275.443 32.387 275.849 32.957 276.129 33.69 C 276.409 34.417 276.549 35.27 276.549 36.25 L 276.549 36.43 C 276.549 37.303 276.406 38.067 276.119 38.72 C 275.839 39.38 275.436 39.893 274.909 40.26 C 274.383 40.627 273.749 40.81 273.009 40.81 C 272.449 40.81 271.959 40.717 271.539 40.53 C 271.113 40.337 270.753 40.057 270.459 39.69 L 270.459 42.82 L 271.899 43.06 L 271.899 44.12 Z M 272.499 39.51 C 273.286 39.51 273.879 39.227 274.279 38.66 C 274.679 38.087 274.879 37.343 274.879 36.43 L 274.879 36.25 C 274.879 35.557 274.793 34.947 274.619 34.42 C 274.439 33.893 274.169 33.477 273.809 33.17 C 273.456 32.87 273.013 32.72 272.479 32.72 C 272.013 32.72 271.609 32.827 271.269 33.04 C 270.936 33.253 270.666 33.543 270.459 33.91 L 270.459 38.34 C 270.666 38.713 270.936 39.003 271.269 39.21 C 271.603 39.41 272.013 39.51 272.499 39.51 ZM 281.822 40.81 C 280.836 40.81 280.066 40.493 279.512 39.86 C 278.959 39.227 278.682 38.24 278.682 36.9 L 278.682 32.84 L 277.642 32.61 L 277.642 31.54 L 278.682 31.54 L 280.332 31.54 L 280.332 36.92 C 280.332 37.887 280.476 38.553 280.762 38.92 C 281.049 39.28 281.496 39.46 282.102 39.46 C 282.689 39.46 283.172 39.343 283.552 39.11 C 283.939 38.87 284.229 38.53 284.422 38.09 L 284.422 32.84 L 283.202 32.61 L 283.202 31.54 L 284.422 31.54 L 286.082 31.54 L 286.082 39.34 L 287.122 39.57 L 287.122 40.63 L 284.592 40.63 L 284.482 39.29 C 284.196 39.777 283.829 40.15 283.382 40.41 C 282.929 40.677 282.409 40.81 281.822 40.81 ZM 291.958 40.81 C 291.345 40.81 290.775 40.747 290.248 40.62 C 289.715 40.5 289.148 40.31 288.548 40.05 L 288.528 37.89 L 289.778 37.89 L 290.098 39.19 C 290.412 39.323 290.715 39.42 291.008 39.48 C 291.302 39.533 291.618 39.56 291.958 39.56 C 292.632 39.56 293.112 39.433 293.398 39.18 C 293.692 38.92 293.838 38.6 293.838 38.22 C 293.838 37.86 293.692 37.557 293.398 37.31 C 293.105 37.057 292.572 36.843 291.798 36.67 C 290.698 36.423 289.892 36.087 289.378 35.66 C 288.858 35.24 288.598 34.677 288.598 33.97 C 288.598 33.477 288.742 33.037 289.028 32.65 C 289.315 32.257 289.712 31.947 290.218 31.72 C 290.732 31.487 291.325 31.37 291.998 31.37 C 292.692 31.37 293.282 31.45 293.768 31.61 C 294.255 31.77 294.682 31.98 295.048 32.24 L 295.128 34.31 L 293.888 34.31 L 293.618 33.11 C 293.425 32.963 293.195 32.85 292.928 32.77 C 292.655 32.69 292.345 32.65 291.998 32.65 C 291.485 32.65 291.068 32.77 290.748 33.01 C 290.422 33.25 290.258 33.553 290.258 33.92 C 290.258 34.133 290.305 34.317 290.398 34.47 C 290.492 34.63 290.672 34.773 290.938 34.9 C 291.198 35.027 291.582 35.15 292.088 35.27 C 293.355 35.57 294.238 35.95 294.738 36.41 C 295.245 36.863 295.498 37.427 295.498 38.1 C 295.498 38.867 295.212 39.51 294.638 40.03 C 294.072 40.55 293.178 40.81 291.958 40.81 ZM 301.041 40.63 L 296.651 40.63 L 296.651 39.57 L 298.021 39.34 L 298.021 28.83 L 296.651 28.6 L 296.651 27.53 L 299.671 27.53 L 299.671 32.75 C 299.991 32.317 300.378 31.98 300.831 31.74 C 301.285 31.493 301.788 31.37 302.341 31.37 C 303.315 31.37 304.068 31.663 304.601 32.25 C 305.141 32.83 305.411 33.727 305.411 34.94 L 305.411 39.34 L 306.781 39.57 L 306.781 40.63 L 302.391 40.63 L 302.391 39.57 L 303.761 39.34 L 303.761 34.92 C 303.761 34.167 303.598 33.613 303.271 33.26 C 302.951 32.9 302.471 32.72 301.831 32.72 C 301.378 32.72 300.965 32.827 300.591 33.04 C 300.225 33.26 299.918 33.553 299.671 33.92 L 299.671 39.34 L 301.041 39.57 L 301.041 40.63 ZM 312.435 44.52 L 312.385 44.52 C 311.899 44.253 311.409 43.857 310.915 43.33 C 310.429 42.803 309.982 42.16 309.575 41.4 C 309.175 40.64 308.852 39.783 308.605 38.83 C 308.365 37.883 308.245 36.853 308.245 35.74 L 308.245 35.67 C 308.245 34.563 308.365 33.533 308.605 32.58 C 308.852 31.633 309.175 30.777 309.575 30.01 C 309.982 29.25 310.429 28.603 310.915 28.07 C 311.409 27.543 311.899 27.15 312.385 26.89 L 312.435 26.9 L 312.745 27.87 C 312.359 28.177 311.995 28.57 311.655 29.05 C 311.309 29.53 311.005 30.097 310.745 30.75 C 310.485 31.41 310.279 32.147 310.125 32.96 C 309.972 33.78 309.895 34.677 309.895 35.65 L 309.895 35.76 C 309.895 36.733 309.972 37.63 310.125 38.45 C 310.279 39.263 310.485 40 310.745 40.66 C 311.005 41.32 311.305 41.897 311.645 42.39 C 311.992 42.877 312.359 43.283 312.745 43.61 L 312.435 44.52 ZM 321.575 40.63 L 313.655 40.63 L 313.655 39.5 L 317.665 35.05 C 318.139 34.517 318.512 34.06 318.785 33.68 C 319.052 33.3 319.239 32.957 319.345 32.65 C 319.452 32.343 319.505 32.023 319.505 31.69 C 319.505 31.083 319.322 30.57 318.955 30.15 C 318.582 29.737 318.052 29.53 317.365 29.53 C 316.645 29.53 316.085 29.743 315.685 30.17 C 315.285 30.603 315.085 31.213 315.085 32 L 313.505 32 L 313.485 31.95 C 313.465 31.25 313.612 30.617 313.925 30.05 C 314.239 29.49 314.695 29.047 315.295 28.72 C 315.889 28.393 316.599 28.23 317.425 28.23 C 318.199 28.23 318.862 28.377 319.415 28.67 C 319.975 28.963 320.405 29.363 320.705 29.87 C 321.005 30.383 321.155 30.97 321.155 31.63 C 321.155 32.077 321.069 32.52 320.895 32.96 C 320.722 33.407 320.465 33.86 320.125 34.32 C 319.785 34.787 319.379 35.277 318.905 35.79 L 315.685 39.29 L 315.705 39.34 L 320.045 39.34 L 320.175 37.93 L 321.575 37.93 L 321.575 40.63 ZM 322.794 44.52 L 322.744 44.52 L 322.434 43.61 C 322.814 43.317 323.177 42.927 323.524 42.44 C 323.864 41.947 324.164 41.37 324.424 40.71 C 324.69 40.043 324.9 39.297 325.054 38.47 C 325.207 37.637 325.284 36.733 325.284 35.76 L 325.284 35.65 C 325.284 34.69 325.204 33.8 325.044 32.98 C 324.884 32.153 324.67 31.41 324.404 30.75 C 324.13 30.083 323.827 29.5 323.494 29 C 323.154 28.507 322.8 28.107 322.434 27.8 L 322.744 26.89 L 322.794 26.89 C 323.28 27.15 323.767 27.543 324.254 28.07 C 324.747 28.603 325.194 29.25 325.594 30.01 C 326 30.777 326.327 31.633 326.574 32.58 C 326.814 33.533 326.934 34.563 326.934 35.67 L 326.934 35.74 C 326.934 36.853 326.814 37.883 326.574 38.83 C 326.327 39.783 326 40.64 325.594 41.4 C 325.194 42.16 324.747 42.803 324.254 43.33 C 323.767 43.857 323.28 44.253 322.794 44.52 ZM 418.082 44.12 L 413.702 44.12 L 413.702 43.06 L 414.982 42.82 L 414.982 32.84 L 413.622 32.61 L 413.622 31.54 L 416.402 31.54 L 416.552 32.65 C 416.859 32.237 417.229 31.92 417.662 31.7 C 418.095 31.48 418.599 31.37 419.172 31.37 C 419.919 31.37 420.559 31.573 421.092 31.98 C 421.625 32.387 422.032 32.957 422.312 33.69 C 422.592 34.417 422.732 35.27 422.732 36.25 L 422.732 36.43 C 422.732 37.303 422.589 38.067 422.302 38.72 C 422.022 39.38 421.619 39.893 421.092 40.26 C 420.565 40.627 419.932 40.81 419.192 40.81 C 418.632 40.81 418.142 40.717 417.722 40.53 C 417.295 40.337 416.935 40.057 416.642 39.69 L 416.642 42.82 L 418.082 43.06 L 418.082 44.12 Z M 418.682 39.51 C 419.469 39.51 420.062 39.227 420.462 38.66 C 420.862 38.087 421.062 37.343 421.062 36.43 L 421.062 36.25 C 421.062 35.557 420.975 34.947 420.802 34.42 C 420.622 33.893 420.352 33.477 419.992 33.17 C 419.639 32.87 419.195 32.72 418.662 32.72 C 418.195 32.72 417.792 32.827 417.452 33.04 C 417.119 33.253 416.849 33.543 416.642 33.91 L 416.642 38.34 C 416.849 38.713 417.119 39.003 417.452 39.21 C 417.785 39.41 418.195 39.51 418.682 39.51 ZM 427.685 40.81 C 427.072 40.81 426.502 40.747 425.975 40.62 C 425.442 40.5 424.875 40.31 424.275 40.05 L 424.255 37.89 L 425.505 37.89 L 425.825 39.19 C 426.138 39.323 426.442 39.42 426.735 39.48 C 427.028 39.533 427.345 39.56 427.685 39.56 C 428.358 39.56 428.838 39.433 429.125 39.18 C 429.418 38.92 429.565 38.6 429.565 38.22 C 429.565 37.86 429.418 37.557 429.125 37.31 C 428.832 37.057 428.298 36.843 427.525 36.67 C 426.425 36.423 425.618 36.087 425.105 35.66 C 424.585 35.24 424.325 34.677 424.325 33.97 C 424.325 33.477 424.468 33.037 424.755 32.65 C 425.042 32.257 425.438 31.947 425.945 31.72 C 426.458 31.487 427.052 31.37 427.725 31.37 C 428.418 31.37 429.008 31.45 429.495 31.61 C 429.982 31.77 430.408 31.98 430.775 32.24 L 430.855 34.31 L 429.615 34.31 L 429.345 33.11 C 429.152 32.963 428.922 32.85 428.655 32.77 C 428.382 32.69 428.072 32.65 427.725 32.65 C 427.212 32.65 426.795 32.77 426.475 33.01 C 426.148 33.25 425.985 33.553 425.985 33.92 C 425.985 34.133 426.032 34.317 426.125 34.47 C 426.218 34.63 426.398 34.773 426.665 34.9 C 426.925 35.027 427.308 35.15 427.815 35.27 C 429.082 35.57 429.965 35.95 430.465 36.41 C 430.972 36.863 431.225 37.427 431.225 38.1 C 431.225 38.867 430.938 39.51 430.365 40.03 C 429.798 40.55 428.905 40.81 427.685 40.81 ZM 436.588 40.81 C 435.601 40.81 434.831 40.493 434.278 39.86 C 433.725 39.227 433.448 38.24 433.448 36.9 L 433.448 32.84 L 432.408 32.61 L 432.408 31.54 L 433.448 31.54 L 435.098 31.54 L 435.098 36.92 C 435.098 37.887 435.241 38.553 435.528 38.92 C 435.815 39.28 436.261 39.46 436.868 39.46 C 437.455 39.46 437.938 39.343 438.318 39.11 C 438.705 38.87 438.995 38.53 439.188 38.09 L 439.188 32.84 L 437.968 32.61 L 437.968 31.54 L 439.188 31.54 L 440.848 31.54 L 440.848 39.34 L 441.888 39.57 L 441.888 40.63 L 439.358 40.63 L 439.248 39.29 C 438.961 39.777 438.595 40.15 438.148 40.41 C 437.695 40.677 437.175 40.81 436.588 40.81 ZM 447.224 40.63 L 442.834 40.63 L 442.834 39.57 L 444.204 39.34 L 444.204 28.83 L 442.834 28.6 L 442.834 27.53 L 445.854 27.53 L 445.854 32.75 C 446.174 32.317 446.561 31.98 447.014 31.74 C 447.467 31.493 447.971 31.37 448.524 31.37 C 449.497 31.37 450.251 31.663 450.784 32.25 C 451.324 32.83 451.594 33.727 451.594 34.94 L 451.594 39.34 L 452.964 39.57 L 452.964 40.63 L 448.574 40.63 L 448.574 39.57 L 449.944 39.34 L 449.944 34.92 C 449.944 34.167 449.781 33.613 449.454 33.26 C 449.134 32.9 448.654 32.72 448.014 32.72 C 447.561 32.72 447.147 32.827 446.774 33.04 C 446.407 33.26 446.101 33.553 445.854 33.92 L 445.854 39.34 L 447.224 39.57 L 447.224 40.63 ZM 458.618 44.52 L 458.568 44.52 C 458.081 44.253 457.591 43.857 457.098 43.33 C 456.611 42.803 456.165 42.16 455.758 41.4 C 455.358 40.64 455.035 39.783 454.788 38.83 C 454.548 37.883 454.428 36.853 454.428 35.74 L 454.428 35.67 C 454.428 34.563 454.548 33.533 454.788 32.58 C 455.035 31.633 455.358 30.777 455.758 30.01 C 456.165 29.25 456.611 28.603 457.098 28.07 C 457.591 27.543 458.081 27.15 458.568 26.89 L 458.618 26.9 L 458.928 27.87 C 458.541 28.177 458.178 28.57 457.838 29.05 C 457.491 29.53 457.188 30.097 456.928 30.75 C 456.668 31.41 456.461 32.147 456.308 32.96 C 456.155 33.78 456.078 34.677 456.078 35.65 L 456.078 35.76 C 456.078 36.733 456.155 37.63 456.308 38.45 C 456.461 39.263 456.668 40 456.928 40.66 C 457.188 41.32 457.488 41.897 457.828 42.39 C 458.175 42.877 458.541 43.283 458.928 43.61 L 458.618 44.52 ZM 465.468 40.63 L 460.048 40.63 L 460.048 39.57 L 461.938 39.34 L 461.938 30.17 L 460.008 30.21 L 460.008 29.17 L 463.588 28.4 L 463.588 39.34 L 465.468 39.57 L 465.468 40.63 ZM 466.566 44.52 L 466.516 44.52 L 466.206 43.61 C 466.586 43.317 466.949 42.927 467.296 42.44 C 467.636 41.947 467.936 41.37 468.196 40.71 C 468.463 40.043 468.673 39.297 468.826 38.47 C 468.979 37.637 469.056 36.733 469.056 35.76 L 469.056 35.65 C 469.056 34.69 468.976 33.8 468.816 32.98 C 468.656 32.153 468.443 31.41 468.176 30.75 C 467.903 30.083 467.599 29.5 467.266 29 C 466.926 28.507 466.573 28.107 466.206 27.8 L 466.516 26.89 L 466.566 26.89 C 467.053 27.15 467.539 27.543 468.026 28.07 C 468.519 28.603 468.966 29.25 469.366 30.01 C 469.773 30.777 470.099 31.633 470.346 32.58 C 470.586 33.533 470.706 34.563 470.706 35.67 L 470.706 35.74 C 470.706 36.853 470.586 37.883 470.346 38.83 C 470.099 39.783 469.773 40.64 469.366 41.4 C 468.966 42.16 468.519 42.803 468.026 43.33 C 467.539 43.857 467.053 44.253 466.566 44.52 Z" transform="matrix(1, 0, 0, 1, 0, 0)" style="fill: rgb(255, 255, 255); white-space: pre;"/>
</svg>